<svg xmlns="http://www.w3.org/2000/svg" xmlns:xlink="http://www.w3.org/1999/xlink" width="221" height="273" viewBox="0 0 221 273"><defs><linearGradient id="a" x2="1" y2="1.01" gradientUnits="objectBoundingBox"><stop offset="0" stop-color="#ae8cff"/><stop offset="1" stop-color="#5122c0"/></linearGradient><filter id="b" x="48.736" y="88.93" width="129.528" height="101.14" filterUnits="userSpaceOnUse"><feOffset dx="3" dy="3" input="SourceAlpha"/><feGaussianBlur stdDeviation="5" result="c"/><feFlood flood-opacity="0.078"/><feComposite operator="in" in2="c"/><feComposite in="SourceGraphic"/></filter></defs><g transform="translate(-329 -245)"><rect width="221" height="273" transform="translate(329 245)" fill="url(#a)"/><g transform="matrix(1, 0, 0, 1, 329, 245)" filter="url(#b)"><path d="M63.525-743.45a49.1,49.1,0,0,1,11.794,1.414A52.328,52.328,0,0,1,86.6-737.795v-48.294a42.971,42.971,0,0,0-11.041-5.259,40,40,0,0,0-12.032-1.866A33.315,33.315,0,0,0,55.1-792.14a81.5,81.5,0,0,0-8.313,2.658V-740.4a31.918,31.918,0,0,1,7.974-2.319A53.929,53.929,0,0,1,63.525-743.45Zm29.858,5.655a56.914,56.914,0,0,1,11.084-4.241A45.623,45.623,0,0,1,116-743.45a60.578,60.578,0,0,1,8.878.679,44.258,44.258,0,0,1,7.86,1.81v-48.52a33.66,33.66,0,0,0-8.123-2.828,41.525,41.525,0,0,0-8.616-.9,37.815,37.815,0,0,0-11.819,1.866,44.068,44.068,0,0,0-10.8,5.259ZM89.99-728.86a7.4,7.4,0,0,1-1.614-.17,3.207,3.207,0,0,1-1.327-.622,47.787,47.787,0,0,0-11.293-5.089,41.986,41.986,0,0,0-12.232-1.81,32.664,32.664,0,0,0-8.117,1.018,78.871,78.871,0,0,0-7.943,2.488,4.854,4.854,0,0,1-5.039-.339A5.088,5.088,0,0,1,40-737.908v-52.365a6.257,6.257,0,0,1,.792-3.11,5.4,5.4,0,0,1,2.375-2.205,43.757,43.757,0,0,1,9.884-3.336A50.993,50.993,0,0,1,63.525-800a50.184,50.184,0,0,1,13.855,1.923A44.209,44.209,0,0,1,89.99-792.2a42.939,42.939,0,0,1,12.384-5.881A48.59,48.59,0,0,1,116-800a50.271,50.271,0,0,1,10.4,1.074,43.88,43.88,0,0,1,9.847,3.336,5.762,5.762,0,0,1,2.432,2.205,5.932,5.932,0,0,1,.848,3.11v52.365a5.364,5.364,0,0,1-2.545,4.8,4.327,4.327,0,0,1-5.033.063,53.487,53.487,0,0,0-7.83-2.545,34.488,34.488,0,0,0-8.117-.961,40.493,40.493,0,0,0-12,1.81,46.211,46.211,0,0,0-11.068,5.089,3.207,3.207,0,0,1-1.327.622A7.4,7.4,0,0,1,89.99-728.86ZM66.692-764.826Zm32.121-13.459a2.261,2.261,0,0,1,.455-1.282,2.207,2.207,0,0,1,1.015-.866,44.346,44.346,0,0,1,6.937-1.923,39.586,39.586,0,0,1,7.455-.679,40.93,40.93,0,0,1,4.827.283,37.2,37.2,0,0,1,4.645.848,2.986,2.986,0,0,1,1.244.836,1.969,1.969,0,0,1,.565,1.373,2.38,2.38,0,0,1-.848,1.975,2.231,2.231,0,0,1-2.092.339,26.3,26.3,0,0,0-4-.848,32.76,32.76,0,0,0-4.366-.283,31.66,31.66,0,0,0-6.334.622,31.483,31.483,0,0,0-5.994,1.866,2.814,2.814,0,0,1-2.545-.057A2.424,2.424,0,0,1,98.812-778.285Zm0,24.882a2.461,2.461,0,0,1,.455-1.35,2.238,2.238,0,0,1,1.015-.912,40.4,40.4,0,0,1,6.937-1.866,43.079,43.079,0,0,1,7.455-.622,40.943,40.943,0,0,1,4.827.283,37.2,37.2,0,0,1,4.645.848,2.986,2.986,0,0,1,1.244.836,1.969,1.969,0,0,1,.565,1.373,2.38,2.38,0,0,1-.848,1.975,2.231,2.231,0,0,1-2.092.339,26.3,26.3,0,0,0-4-.848,32.76,32.76,0,0,0-4.366-.283,34.721,34.721,0,0,0-6.334.565,28.818,28.818,0,0,0-5.994,1.81,2.965,2.965,0,0,1-2.545,0A2.28,2.28,0,0,1,98.812-753.4Zm0-12.441a2.261,2.261,0,0,1,.455-1.282,2.207,2.207,0,0,1,1.015-.866,44.346,44.346,0,0,1,6.937-1.923,39.586,39.586,0,0,1,7.455-.679,40.93,40.93,0,0,1,4.827.283,37.2,37.2,0,0,1,4.645.848,2.986,2.986,0,0,1,1.244.836,1.969,1.969,0,0,1,.565,1.373,2.38,2.38,0,0,1-.848,1.975,2.231,2.231,0,0,1-2.092.339,26.3,26.3,0,0,0-4-.848,32.76,32.76,0,0,0-4.366-.283,31.66,31.66,0,0,0-6.334.622,31.483,31.483,0,0,0-5.994,1.866,2.815,2.815,0,0,1-2.545-.057A2.424,2.424,0,0,1,98.812-765.844Z" transform="translate(20.74 900.93)" fill="#e7ddff"/></g></g></svg>