<svg xmlns="http://www.w3.org/2000/svg" xmlns:xlink="http://www.w3.org/1999/xlink" width="689.772" height="728.622" viewBox="0 0 689.772 728.622">
  <defs>
    <clipPath id="clip-path">
      <rect id="Rectangle_1" data-name="Rectangle 1" width="538" height="427" transform="translate(537.555 427) rotate(180)" fill="#fff"/>
    </clipPath>
  </defs>
  <g id="section3_ills" transform="translate(-464 -175.689)">
    <path id="background" d="M-7,134.408c12.4,35.92,65.431,69.95,112.566,39.229,73.36-47.812,131.64-184.2,242.5-172.984,158.77,16.069,137.789,261.8,210.246,342.186C649.478,443.982,737.5,552.5,619,614.5-122.5,865-7,625-7,625Z" transform="translate(477.516 175.689)" fill="#f1eaff"/>
    <g id="ills" transform="translate(543.445 345)" clip-path="url(#clip-path)">
      <path id="Path_1" data-name="Path 1" d="M134.654,203.3V236.6c0,4.057,3.854,7.692,10.167,10.43,6.722,2.9,16.237,4.71,26.8,4.71,20.409,0,36.927-6.78,36.927-15.124V203.322h-73.89Z" transform="translate(-1.596 -2.408)" fill="#945915"/>
      <path id="Path_2" data-name="Path 2" d="M134.654,203.3V236.6c0,4.057,3.855,7.692,10.167,10.43V213.735L142.81,204.9l-1.75-1.58h-6.406Z" transform="translate(-1.596 -2.408)" fill="#874c12"/>
      <path id="Path_3" data-name="Path 3" d="M134.654,203.124c0,4.058,3.854,7.692,10.167,10.43,6.722,2.9,16.237,4.71,26.8,4.71,20.409,0,36.927-6.779,36.927-15.123a6.79,6.79,0,0,0-.429-2.331l-4.171-11.57-8.268,2.429A74.229,74.229,0,0,0,171.6,188a77.958,77.958,0,0,0-20.633,2.591c-1.192.309-2.347.668-3.446,1.059l-8.454-1.939L135.1,200.794A6.2,6.2,0,0,0,134.654,203.124Z" transform="translate(-1.596 -2.227)" fill="#ffcb24"/>
      <path id="Path_4" data-name="Path 4" d="M134.654,203.144c0,4.058,3.855,7.692,10.167,10.43l5.96-20.859s.112-.88.186-2.086c-1.192.309-2.346.668-3.445,1.059l-8.455-1.94L135.1,200.83A6.084,6.084,0,0,0,134.654,203.144Z" transform="translate(-1.596 -2.248)" fill="#f9b800"/>
      <path id="Path_5" data-name="Path 5" d="M171.648,204.994c-18.152,0-32.867-6.027-32.867-13.461s14.715-13.461,32.867-13.461,32.867,6.027,32.867,13.461S189.8,204.994,171.648,204.994Z" transform="translate(-1.645 -2.109)" fill="#ffd357"/>
      <path id="Path_6" data-name="Path 6" d="M172.062,189.951c5.139,0,9.329-3.65,9.329-8.164V147.662h-18.64v34.125C162.752,186.3,166.923,189.951,172.062,189.951Z" transform="translate(-1.929 -1.749)" fill="#fbc006"/>
      <path id="Path_7" data-name="Path 7" d="M162.733,147.662v34.125c0,4.27,3.78,7.79,8.565,8.132a7.563,7.563,0,0,1-3.072-6.013V149.781h13.165v-2.119Z" transform="translate(-1.929 -1.749)" fill="#f7a500"/>
      <path id="Path_8" data-name="Path 8" d="M116.016,64.131v55.555c0,26.742,24.786,48.449,55.362,48.449a61.644,61.644,0,0,0,9.087-.668,58.627,58.627,0,0,0,26.256-10.479c12.234-8.914,20.018-22.31,20.018-37.3V64.131Z" transform="translate(-1.375 -0.76)" fill="#ffcb24"/>
      <path id="Path_9" data-name="Path 9" d="M181.257,167.55a58.623,58.623,0,0,0,26.256-10.478A44.544,44.544,0,0,0,219.748,126.7V71.157H206.9v55.554C206.88,143.887,196.656,158.978,181.257,167.55Z" transform="translate(-2.148 -0.843)" fill="#ffd96e"/>
      <path id="Path_10" data-name="Path 10" d="M116.016,64.131v55.555c0,23.417,18.976,42.957,44.207,47.471-14.1-8.767-23.258-23.173-23.258-39.47V72.133h89.794v-8Z" transform="translate(-1.375 -0.76)" fill="#f9b800"/>
      <path id="Path_11" data-name="Path 11" d="M171.377,79.17c-30.585,0-55.38-6.815-55.38-15.221s24.795-15.221,55.38-15.221,55.381,6.815,55.381,15.221S201.963,79.17,171.377,79.17Z" transform="translate(-1.375 -0.577)" fill="#ffd96e"/>
      <path id="Path_12" data-name="Path 12" d="M171.5,77.431c-28.333,0-51.3-6.027-51.3-13.461s22.97-13.461,51.3-13.461,51.3,6.027,51.3,13.461S199.836,77.431,171.5,77.431Z" transform="translate(-1.425 -0.598)" fill="#c5a600"/>
      <path id="Path_13" data-name="Path 13" d="M172.025,223.146c-.465,0-.931,0-1.415-.017v15.677c.465.017.931.017,1.415.017,14.264,0,26.648-3.308,32.793-8.165V214.981C198.673,219.838,186.289,223.146,172.025,223.146Z" transform="translate(-2.022 -2.547)" fill="#ffcb24"/>
      <path id="Path_14" data-name="Path 14" d="M260.537,125.77c-.018,1.125,2.291,2.037,5.14,2.053s5.158-.864,5.176-1.988c.019-1.109-2.29-2.038-5.139-2.053S260.556,124.646,260.537,125.77Z" transform="translate(-3.087 -1.466)" fill="#ed8406"/>
      <path id="Path_15" data-name="Path 15" d="M260.711,106.994l10.316.08-.19,18.594-10.316-.08Z" transform="translate(-3.087 -1.267)" fill="#ed8406"/>
      <path id="Path_16" data-name="Path 16" d="M260.726,106.953c-.019,1.108,2.29,2.037,5.139,2.053s5.158-.864,5.177-1.988c.019-1.109-2.291-2.038-5.139-2.053S260.745,105.844,260.726,106.953Z" transform="translate(-3.09 -1.243)" fill="#fbc006"/>
      <path id="Path_17" data-name="Path 17" d="M242.7,71.983s-10.055,15.645-12.978,20.175c-2.924,4.547-31.359,15.107-67.187-8.865C146.256,72.6,140,54.611,143.575,49.037c3.575-5.557,15.269-23.728,15.269-23.728Z" transform="translate(-1.69 -0.3)" fill="#5624c1"/>
      <path id="Path_18" data-name="Path 18" d="M272.719,76.594,175.98,79.559,130.32,7.578,227.338,4.6Z" transform="translate(-1.545 -0.054)" fill="#0a2982"/>
      <path id="Path_19" data-name="Path 19" d="M132.721,3.837l-2.4,3.732,5.326,2.624,3.52-1.271Z" transform="translate(-1.545 -0.045)" fill="#0a2982"/>
      <path id="Path_20" data-name="Path 20" d="M276.722,73.652l-2.383,3.732-7.3-6.062Z" transform="translate(-3.164 -0.845)" fill="#0a2982"/>
      <path id="Path_21" data-name="Path 21" d="M275.131,72.817l-96.721,2.966L132.751,3.8,229.769.836Z" transform="translate(-1.574 -0.01)" fill="#5624c1"/>
      <path id="Path_22" data-name="Path 22" d="M265.109,106.944a.919.919,0,0,0,.968-.847l.019-32.919a.8.8,0,0,0-.41-.684L206.321,35.566a1.068,1.068,0,0,0-1.34.2.786.786,0,0,0,.223,1.173l58.974,36.683L264.16,106.1A.9.9,0,0,0,265.109,106.944Z" transform="translate(-2.427 -0.42)" fill="#fbc006"/>
      <path id="Path_23" data-name="Path 23" d="M200.309,36.394c.317,2.673,3.036,4.6,6.09,4.319s5.251-2.656,4.934-5.329-3.035-4.6-6.089-4.319C202.208,31.342,199.992,33.721,200.309,36.394Z" transform="translate(-2.374 -0.368)" fill="#0a2982"/>
      <path id="Path_24" data-name="Path 24" d="M338.5,166.707c0,8.539,13.929,15.465,31.117,15.465s31.117-6.926,31.117-15.465-13.929-15.45-31.117-15.45C352.426,151.241,338.5,158.167,338.5,166.707Z" transform="translate(-4.011 -1.792)" fill="#fff"/>
      <path id="Path_25" data-name="Path 25" d="M412.376,78.133l-11.787,81.955h-.13c-1.248,7.968-14.637,14.243-31.005,14.243-17.188,0-31.117-6.926-31.117-15.449L326.55,78.149h85.826Z" transform="translate(-3.869 -0.926)" fill="#5624c1"/>
      <path id="Path_26" data-name="Path 26" d="M326.587,78.149l11.788,80.733c0,6.257,7.467,11.636,18.23,14.063a9.359,9.359,0,0,1-2.588-6.16L342.248,86.053h68.993l1.135-7.9Z" transform="translate(-3.87 -0.926)" fill="#3a138c"/>
      <path id="Path_27" data-name="Path 27" d="M369.473,99.193c-23.695,0-42.9-9.543-42.9-21.316s19.21-21.316,42.9-21.316,42.9,9.543,42.9,21.316S393.168,99.193,369.473,99.193Z" transform="translate(-3.87 -0.67)" fill="#d0dcfe"/>
      <path id="Path_28" data-name="Path 28" d="M369.539,94.379c-20.621,0-37.336-7.362-37.336-16.443s16.716-16.443,37.336-16.443,37.336,7.362,37.336,16.443S390.159,94.379,369.539,94.379Z" transform="translate(-3.936 -0.728)" fill="#272c91"/>
      <path id="Path_29" data-name="Path 29" d="M369.539,94.379c-20.621,0-37.336-7.362-37.336-16.443s16.716-16.443,37.336-16.443,37.336,7.362,37.336,16.443S390.159,94.379,369.539,94.379Z" transform="translate(-3.936 -0.728)" fill="#272c91"/>
      <path id="Path_30" data-name="Path 30" d="M353.846,70.49l.951-.163a.842.842,0,0,0,.744-.961l-2.775-12.532a.948.948,0,0,0-1.1-.652l-.95.163a.842.842,0,0,0-.745.961l2.775,12.532A.959.959,0,0,0,353.846,70.49Z" transform="translate(-4.147 -0.665)" fill="#fd9220"/>
      <path id="Path_31" data-name="Path 31" d="M357.832,132.932c.242,1.125,2.514,1.3,5.064.376s4.432-2.591,4.191-3.715-2.515-1.3-5.065-.376C359.47,130.13,357.59,131.792,357.832,132.932Z" transform="translate(-4.24 -1.524)" fill="#9a98ed"/>
      <path id="Path_32" data-name="Path 32" d="M347.638,39.773l19.218,88.767-9.255,3.34L338.384,43.1Z" transform="translate(-4.01 -0.471)" fill="#fbc006"/>
      <path id="Path_33" data-name="Path 33" d="M338.383,43.086c.242,1.124,2.514,1.3,5.065.375s4.432-2.591,4.19-3.716-2.514-1.3-5.065-.375C340,40.3,338.123,41.961,338.383,43.086Z" transform="translate(-4.009 -0.459)" fill="#5624c1"/>
      <path id="Path_34" data-name="Path 34" d="M362.185,20.206l.075,2.819.037,1.157.112,3.895.019,1.157.112,3.895.038,1.157.093,3.781.038,1.157.112,3.813.038,1.157.093,3.895.038,1.125.112,3.895.055,1.124.093,3.813.038,1.124.112,3.846.019,1.157.112,3.846.038,1.124.093,3.911.038,1.157.112,3.895.037,1.124.094,3.862.037,1.125.112,3.911.038,1.124.093,3.846.038,1.157.112,3.895.019,1.124.447,15.89c.093,3.633,3.073,6.176,6,5.084l9.628-3.618a5.521,5.521,0,0,0,3.2-5.492L380.4,17.957c-.112-3.308-2.625-5.736-5.344-5.2l-9.032,1.793C363.749,15.04,362.111,17.436,362.185,20.206Z" transform="translate(-4.291 -0.15)" fill="#5624c1"/>
      <path id="Path_35" data-name="Path 35" d="M362.26,23.155l.038,1.157a.154.154,0,0,0,.074-.016l4.1-.929a.613.613,0,0,0,.372-.684c-.055-.293-.3-.521-.558-.424Z" transform="translate(-4.292 -0.263)" fill="#fff"/>
      <path id="Path_36" data-name="Path 36" d="M362.411,28.251l.019,1.157a.189.189,0,0,0,.093-.016l4.1-.945a.539.539,0,0,0,.372-.652c-.056-.293-.3-.521-.541-.456Z" transform="translate(-4.294 -0.324)" fill="#fff"/>
      <path id="Path_37" data-name="Path 37" d="M362.543,33.363l.038,1.157c.038,0,.056-.016.093-.016l4.1-.945a.547.547,0,0,0,.372-.652c-.055-.31-.28-.521-.539-.456Z" transform="translate(-4.296 -0.384)" fill="#fff"/>
      <path id="Path_38" data-name="Path 38" d="M362.676,38.344l.037,1.157c.038,0,.056,0,.075-.016l4.1-.945a.539.539,0,0,0,.372-.652c-.055-.31-.279-.521-.539-.456Z" transform="translate(-4.297 -0.443)" fill="#fff"/>
      <path id="Path_39" data-name="Path 39" d="M362.845,43.374l.038,1.157a.154.154,0,0,0,.074-.016l4.1-.945a.572.572,0,0,0,.373-.652.5.5,0,0,0-.558-.456Z" transform="translate(-4.299 -0.503)" fill="#fff"/>
      <path id="Path_40" data-name="Path 40" d="M362.977,48.486l.038,1.124h.093l4.1-.945a.612.612,0,0,0,.372-.684c-.055-.293-.3-.522-.558-.424Z" transform="translate(-4.301 -0.563)" fill="#fff"/>
      <path id="Path_41" data-name="Path 41" d="M363.128,53.565l.037,1.141a.076.076,0,0,0,.056-.016l4.1-.945a.573.573,0,0,0,.372-.652.5.5,0,0,0-.559-.456Z" transform="translate(-4.303 -0.623)" fill="#fff"/>
      <path id="Path_42" data-name="Path 42" d="M363.259,58.6l.038,1.125h.093l4.1-.945a.557.557,0,0,0,.373-.652c-.056-.31-.3-.538-.54-.456Z" transform="translate(-4.304 -0.683)" fill="#fff"/>
      <path id="Path_43" data-name="Path 43" d="M363.41,63.626l.019,1.157a.154.154,0,0,0,.074-.016l4.1-.945a.538.538,0,0,0,.373-.652c-.055-.31-.279-.522-.54-.456Z" transform="translate(-4.306 -0.743)" fill="#fff"/>
      <path id="Path_44" data-name="Path 44" d="M363.542,68.688l.037,1.124h.075l4.1-.945a.557.557,0,0,0,.373-.652c-.056-.31-.3-.538-.54-.456Z" transform="translate(-4.308 -0.802)" fill="#fff"/>
      <path id="Path_45" data-name="Path 45" d="M363.674,73.784l.038,1.157a.189.189,0,0,0,.093-.016l4.1-.945a.573.573,0,0,0,.373-.652c-.056-.293-.28-.521-.559-.456Z" transform="translate(-4.309 -0.863)" fill="#fff"/>
      <path id="Path_46" data-name="Path 46" d="M363.825,78.9l.037,1.125h.019c.019,0,.056-.016.075-.016l4.1-.945a.547.547,0,0,0,.373-.652.466.466,0,0,0-.54-.456Z" transform="translate(-4.311 -0.923)" fill="#fff"/>
      <path id="Path_47" data-name="Path 47" d="M363.956,83.943l.038,1.125h.038a.189.189,0,0,0,.093-.016l4.1-.945a.556.556,0,0,0,.373-.652c-.056-.293-.3-.522-.54-.456Z" transform="translate(-4.312 -0.983)" fill="#fff"/>
      <path id="Path_48" data-name="Path 48" d="M364.126,89.056l.038,1.124h.055l4.1-.945a.594.594,0,0,0,.373-.652c-.056-.31-.28-.521-.559-.456Z" transform="translate(-4.314 -1.044)" fill="#fff"/>
      <path id="Path_49" data-name="Path 49" d="M364.258,94.086l.038,1.157a.075.075,0,0,0,.055-.016l4.1-.945a.539.539,0,0,0,.373-.652.476.476,0,0,0-.541-.456Z" transform="translate(-4.316 -1.104)" fill="#fff"/>
      <path id="Path_50" data-name="Path 50" d="M364.409,99.182l.019,1.125h.093l4.1-.945a.557.557,0,0,0,.372-.652.475.475,0,0,0-.541-.456Z" transform="translate(-4.318 -1.164)" fill="#fff"/>
      <path id="Path_51" data-name="Path 51" d="M542.594,240.111l-30.037,15.139L441.013,219.2l29.814-15.237Z" transform="translate(-5.225 -2.416)" fill="#fff"/>
      <path id="Path_52" data-name="Path 52" d="M468.67,95.231l66.852,33.7L512.84,140.355l-47.931-34.173V97.138C464.909,95.443,466.994,94.384,468.67,95.231Z" transform="translate(-5.508 -1.125)" fill="#5624c1"/>
      <path id="Path_53" data-name="Path 53" d="M535.284,132.1l-66.46-33.522L444.9,110.674l66.441,33.505Z" transform="translate(-5.271 -1.168)" fill="#b592ff"/>
      <path id="Path_54" data-name="Path 54" d="M443.01,106.976a3.025,3.025,0,0,1,2.886-.245l66.627,33.587,22.681-11.424-66.851-33.7a2.83,2.83,0,0,0-2.179-.13v-.016s2.327-.994,3.24-1.483a3.1,3.1,0,0,1,2.811-.179l70.334,35.461V232.262l-26.349-13.281v26.6l-71.917-36.259a3.768,3.768,0,0,1-2.179-3.292l-2.253-97.551A31.791,31.791,0,0,0,443.01,106.976Z" transform="translate(-5.212 -1.103)" fill="#3300a0"/>
      <path id="Path_55" data-name="Path 55" d="M513.415,144.463l30.037-15.14V232.74l-30.037,15.14Z" transform="translate(-6.083 -1.532)" fill="#5624c1"/>
      <path id="Path_56" data-name="Path 56" d="M517.541,150.161l23.165-11.668v7.9l-23.165,11.668Z" transform="translate(-6.132 -1.641)" fill="#fcc106"/>
      <path id="Path_57" data-name="Path 57" d="M517.541,160.732l23.165-11.685v2.738L517.541,163.47Z" transform="translate(-6.132 -1.766)" fill="#fcc106"/>
      <path id="Path_58" data-name="Path 58" d="M517.541,165.877l23.165-11.668v2.738l-23.165,11.668Z" transform="translate(-6.132 -1.827)" fill="#fcc106"/>
      <path id="Path_59" data-name="Path 59" d="M517.541,235.555l23.165-11.685v2.738l-23.165,11.685Z" transform="translate(-6.132 -2.652)" fill="#fcc106"/>
      <path id="Path_60" data-name="Path 60" d="M442.193,108.77l70.334,35.462V247.649L440.61,211.389a3.769,3.769,0,0,1-2.178-3.292v-97.42C438.432,108.983,440.517,107.924,442.193,108.77Z" transform="translate(-5.195 -1.285)" fill="#632cda"/>
      <path id="Path_61" data-name="Path 61" d="M488.151,248.653l-30.037,15.14-71.543-36.048,29.813-15.236Z" transform="translate(-4.58 -2.517)" fill="#fff"/>
      <path id="Path_62" data-name="Path 62" d="M414.228,102.916l66.852,33.7L458.4,148.041l-47.932-34.174v-9.044C410.466,103.128,412.552,102.069,414.228,102.916Z" transform="translate(-4.863 -1.216)" fill="#b4bbe1"/>
      <path id="Path_63" data-name="Path 63" d="M480.86,139.789l-66.479-33.505L390.453,118.36l66.46,33.505Z" transform="translate(-4.626 -1.259)" fill="#dae3f2"/>
      <path id="Path_64" data-name="Path 64" d="M388.569,114.661a3.022,3.022,0,0,1,2.886-.244L458.1,148l22.681-11.424-66.851-33.7a2.838,2.838,0,0,0-2.179-.13v-.016s2.327-.994,3.24-1.483a3.1,3.1,0,0,1,2.811-.179l70.334,35.461V239.948l-26.349-13.282v26.6L389.872,217a3.767,3.767,0,0,1-2.179-3.292L385.44,116.16A34.37,34.37,0,0,0,388.569,114.661Z" transform="translate(-4.567 -1.194)" fill="#ced2ef"/>
      <path id="Path_65" data-name="Path 65" d="M458.972,152.164l30.037-15.156V240.425l-30.037,15.14Z" transform="translate(-5.438 -1.623)" fill="#c5c8e8"/>
      <path id="Path_66" data-name="Path 66" d="M463.1,157.846l23.165-11.668v7.9L463.1,165.766Z" transform="translate(-5.487 -1.732)" fill="#fff"/>
      <path id="Path_67" data-name="Path 67" d="M463.1,168.417l23.165-11.668v2.738L463.1,171.155Z" transform="translate(-5.487 -1.857)" fill="#fff"/>
      <path id="Path_68" data-name="Path 68" d="M463.1,173.579,486.264,161.9v2.737L463.1,176.317Z" transform="translate(-5.487 -1.918)" fill="#fff"/>
      <path id="Path_69" data-name="Path 69" d="M463.1,243.24l23.165-11.684v2.737L463.1,245.978Z" transform="translate(-5.487 -2.743)" fill="#fff"/>
      <path id="Path_70" data-name="Path 70" d="M387.751,116.456l70.334,35.461V255.334l-71.917-36.259a3.767,3.767,0,0,1-2.179-3.292v-97.42C383.989,116.668,386.075,115.609,387.751,116.456Z" transform="translate(-4.55 -1.376)" fill="#b4bbe1"/>
      <path id="Path_71" data-name="Path 71" d="M22.98,113.657v46.428l3.594,1.711L76,129.269,83.7,86.556l-3.575-1.711Z" transform="translate(-0.273 -1.005)" fill="#ff9906"/>
      <path id="Path_72" data-name="Path 72" d="M22.98,114V160.43l3.594,1.711L76,129.615l-49.422-13.9Z" transform="translate(-0.273 -1.35)" fill="#ef770a"/>
      <path id="Path_73" data-name="Path 73" d="M26.617,115.389v46.428l57.131-28.812V86.577Z" transform="translate(-0.316 -1.026)" fill="#fcc106"/>
      <path id="Path_74" data-name="Path 74" d="M76.757,102.046v3.879L56.106,126.181l-20.689.44v-3.862Z" transform="translate(-0.421 -1.209)" fill="#fff"/>
      <path id="Path_75" data-name="Path 75" d="M56.106,128.5l20.651-20.256v19.8l-41.34,20.713V128.943Z" transform="translate(-0.421 -1.282)" fill="#fff"/>
      <path id="Path_76" data-name="Path 76" d="M254.469,150.767v32.69l3.985,1.923,34.8-22.9L298.7,132.4l-3.985-1.923Z" transform="translate(-3.016 -1.546)" fill="#ff9906"/>
      <path id="Path_77" data-name="Path 77" d="M254.469,151.01V183.7l3.985,1.923,34.8-22.9-34.8-9.794Z" transform="translate(-3.016 -1.789)" fill="#ef770a"/>
      <path id="Path_78" data-name="Path 78" d="M258.5,152.713V185.4l40.242-20.272V132.424Z" transform="translate(-3.063 -1.569)" fill="#fcc106"/>
      <path id="Path_79" data-name="Path 79" d="M288.74,155.687l-5.456,9.435L267.6,155.067" transform="translate(-3.171 -1.837)" fill="none" stroke="#fff" stroke-linecap="round" stroke-linejoin="round" stroke-miterlimit="10" stroke-width="3.16"/>
      <path id="Path_80" data-name="Path 80" d="M.592,230.092V262.8l3.985,1.923,34.8-22.912,5.438-30.067-3.966-1.94Z" transform="translate(-0.008 -2.485)" fill="#5624c1"/>
      <path id="Path_81" data-name="Path 81" d="M.592,230.335v32.707l3.985,1.923,34.8-22.912-34.8-9.778Z" transform="translate(-0.008 -2.728)" fill="#5624c1"/>
      <path id="Path_82" data-name="Path 82" d="M4.625,232.055v32.69l40.241-20.289v-32.69Z" transform="translate(-0.056 -2.508)" fill="#4c96ed"/>
      <path id="Path_83" data-name="Path 83" d="M25.761,228.617,28.8,232.43a.7.7,0,0,0,.819.18l6.573-2.559c.633-.244,1.192.343.819.864l-5.251,7.171a.655.655,0,0,0-.112.457L33,244.751a.671.671,0,0,1-.67.75l-7.039.39a.809.809,0,0,0-.5.212l-6.424,6.258c-.466.456-1.285.146-1.192-.457l1.136-6.339a.54.54,0,0,0-.41-.62l-4.972-1.679a.562.562,0,0,1-.112-1.042l7.914-5.085a.814.814,0,0,0,.261-.293l3.52-8.051A.773.773,0,0,1,25.761,228.617Z" transform="translate(-0.149 -2.705)" fill="#fff"/>
      <path id="Path_84" data-name="Path 84" d="M471.1,285.129,218.184,412.176,61.856,333.139,314.774,206.076Z" transform="translate(-0.734 -2.441)" fill="#fff"/>
      <path id="Path_85" data-name="Path 85" d="M314.774,193.79,61.856,320.836v4.938l156.328,79.054L471.1,277.765v-4.938Z" transform="translate(-0.734 -2.296)" fill="#80b4ff"/>
      <path id="Path_86" data-name="Path 86" d="M471.1,272.828,218.184,399.89,61.856,320.836,314.774,193.79Z" transform="translate(-0.734 -2.296)" fill="#5624c1"/>
      <path id="Path_87" data-name="Path 87" d="M312.945,179.541S266.856,184.3,189.67,243.928c0,0-66.721,11.179-118.731,57.216v16.867l147.5,74.117L460.446,270.54V253.657Z" transform="translate(-0.841 -2.127)" fill="#fff"/>
      <path id="Path_88" data-name="Path 88" d="M462.214,254.545S416.125,259.3,338.94,318.932c0,0-66.721,11.179-118.732,57.217v16.867L462.214,271.429Z" transform="translate(-2.61 -3.015)" fill="#f5f5f5"/>
      <path id="Path_89" data-name="Path 89" d="M70.939,302.6l147.5,74.117V393.6l-147.5-74.116Z" transform="translate(-0.842 -3.585)" fill="#e2e2e2"/>
      <path id="Path_90" data-name="Path 90" d="M81.3,269.679l147.52,74.1a184.528,184.528,0,0,1,22.663-10.755c5.959-2.347,11.824-4.335,17.541-6,37.616-10.951,68.267-8.2,68.267-8.2l-147.52-74.117C189.775,244.7,134.506,239.742,81.3,269.679Z" transform="translate(-0.964 -2.895)" fill="#f5f5f5"/>
      <path id="Path_91" data-name="Path 91" d="M98.98,272.972l3.5,1.76c39.162-20.012,78.528-21.87,94.169-21.691l-6-3.015C171.6,250.467,135.013,254.068,98.98,272.972Z" transform="translate(-1.174 -2.962)" fill="#fff"/>
      <path id="Path_92" data-name="Path 92" d="M115.074,281.069l3.482,1.744c39.142-20.012,78.508-21.87,94.15-21.691l-5.977-3.015C187.7,258.548,151.125,262.133,115.074,281.069Z" transform="translate(-1.364 -3.057)" fill="#fff"/>
      <path id="Path_93" data-name="Path 93" d="M131.129,289.134l3.482,1.743c39.105-20,78.49-21.886,94.151-21.69l-6.015-3.032C203.716,266.6,167.143,270.229,131.129,289.134Z" transform="translate(-1.554 -3.153)" fill="#fff"/>
      <path id="Path_94" data-name="Path 94" d="M147.035,297.116l3.5,1.76c39.086-20,78.434-21.887,94.113-21.707l-5.977-3.015C219.6,274.594,183.049,278.211,147.035,297.116Z" transform="translate(-1.743 -3.248)" fill="#fff"/>
      <path id="Path_95" data-name="Path 95" d="M163.147,305.213l3.482,1.76c39.105-20,78.415-21.886,94.113-21.707l-5.977-3.015C235.715,282.675,199.179,286.293,163.147,305.213Z" transform="translate(-1.934 -3.343)" fill="#fff"/>
      <path id="Path_96" data-name="Path 96" d="M180.164,313.756l3.482,1.76c39.086-20.012,78.453-21.9,94.114-21.707l-6.015-3.031C252.677,291.234,216.141,294.868,180.164,313.756Z" transform="translate(-2.135 -3.444)" fill="#fff"/>
      <path id="Path_97" data-name="Path 97" d="M196.426,321.919l3.482,1.76c39.069-19.979,78.36-21.9,94.076-21.723l-5.977-3.015C268.92,299.4,232.385,303.031,196.426,321.919Z" transform="translate(-2.328 -3.541)" fill="#fff"/>
      <path id="Path_98" data-name="Path 98" d="M212.6,330.066l3.482,1.744c39.086-19.979,78.434-21.87,94.113-21.691l-6.015-3.031C285.108,307.545,248.573,311.162,212.6,330.066Z" transform="translate(-2.52 -3.638)" fill="#fff"/>
      <path id="Path_99" data-name="Path 99" d="M320.548,189.987c-15.885,4.042-53.8,17.078-107.6,57.412l-3.278-1.645c51.731-38.982,88.583-53.013,106.515-57.967Z" transform="translate(-2.485 -2.224)" fill="#fff"/>
      <path id="Path_100" data-name="Path 100" d="M336.453,197.985c-15.959,4.074-53.835,17.177-107.539,57.445l-3.278-1.646c51.638-38.932,88.471-53,106.46-57.982Z" transform="translate(-2.674 -2.319)" fill="#fff"/>
      <path id="Path_101" data-name="Path 101" d="M352.7,206.149c-15.865,4.025-53.778,17.062-107.614,57.412l-3.277-1.645c51.749-39,88.62-53.012,106.534-57.967Z" transform="translate(-2.866 -2.416)" fill="#fff"/>
      <path id="Path_102" data-name="Path 102" d="M368.715,214.2c-15.921,4.057-53.816,17.128-107.559,57.429l-3.277-1.646c51.675-38.965,88.527-53.012,106.478-57.966Z" transform="translate(-3.056 -2.511)" fill="#fff"/>
      <path id="Path_103" data-name="Path 103" d="M384.865,222.311c-15.921,4.042-53.816,17.111-107.576,57.429l-3.278-1.646c51.693-38.965,88.527-53,106.479-57.966Z" transform="translate(-3.247 -2.608)" fill="#fff"/>
      <path id="Path_104" data-name="Path 104" d="M400.883,230.359c-15.94,4.074-53.816,17.144-107.54,57.444l-3.3-1.662c51.656-38.948,88.508-53,106.478-57.983Z" transform="translate(-3.437 -2.703)" fill="#fff"/>
      <path id="Path_105" data-name="Path 105" d="M416.977,238.456c-15.9,4.058-53.817,17.112-107.559,57.429l-3.3-1.662c51.693-38.965,88.546-53,106.5-57.966Z" transform="translate(-3.627 -2.799)" fill="#fff"/>
      <path id="Path_106" data-name="Path 106" d="M433.109,246.57c-15.941,4.058-53.817,17.143-107.54,57.429l-3.278-1.646c51.657-38.948,88.508-53,106.479-57.982Z" transform="translate(-3.819 -2.895)" fill="#fff"/>
      <path id="Path_107" data-name="Path 107" d="M316.575,263.079l-5.9.521-.69,4.4-89.774-45.108,7.207-4.612Z" transform="translate(-2.61 -2.586)" fill="#5624c1"/>
      <path id="Path_108" data-name="Path 108" d="M372.26,268.371c2.234,2.2,18.416,9.028,27.522,11.423q1.592-.83,3.129-1.613L373.879,264.7C373.879,264.688,370.006,266.17,372.26,268.371Z" transform="translate(-4.402 -3.136)" fill="#898989" opacity="0.5"/>
      <path id="Path_109" data-name="Path 109" d="M402.253,172.2s3.352,3.537,1.248,9.354c-1.3,3.6-2.476,3.944-2.793,5.834s2.793,5.46.13,10.854c-1.359,2.754-9.739-.457-9.739-.457l-4.264-4.938,4.264-10.234Z" transform="translate(-4.583 -2.04)" fill="#2a3049"/>
      <path id="Path_110" data-name="Path 110" d="M391.351,190.346l-.484,5s10.335,3.52,10.558,1.875-2.16-2.624-2.607-3.748a2.832,2.832,0,0,1,0-2.086,9.058,9.058,0,0,0,1.1-4.873" transform="translate(-4.631 -2.209)" fill="#22293f"/>
      <path id="Path_111" data-name="Path 111" d="M445.4,323.464a.775.775,0,0,0-.261.62c.056.342.615.929,1.769,1.466a16.477,16.477,0,0,1,3.24,1.629c1.192.864,3.446,2.706,4.712,3.619a10.084,10.084,0,0,0,4.041,1.532,32.684,32.684,0,0,0,5.457.424c1.732-.1,2.942-.929,3.128-1.565a6.049,6.049,0,0,0,.112-1.678" transform="translate(-5.274 -3.832)" fill="#3a3d51"/>
      <path id="Path_112" data-name="Path 112" d="M453.846,312.679v8.832h-5.94l-1.918-8.832Z" transform="translate(-5.284 -3.704)" fill="#ffe1bd"/>
      <path id="Path_113" data-name="Path 113" d="M397.727,254.583s6.238,14.976,18.826,18.822c2.048.635,4.041,1.125,5.94,1.532a64.873,64.873,0,0,0,16.983,1.451c-1.136,11.065,4.525,31.811,5.921,36.7a2.129,2.129,0,0,0,1.695,1.434c.149.033.317.048.465.065a11.861,11.861,0,0,0,4.134-.212,2.223,2.223,0,0,0,1.825-1.988c.335-7.5,1.9-43.12-2.756-45.939-11.49-6.991-39.665-15.3-45.4-17.193A2.413,2.413,0,0,1,403.89,248l-1.88-4.009Z" transform="translate(-4.713 -2.89)" fill="#3a3d51"/>
      <path id="Path_114" data-name="Path 114" d="M419.38,266.7l3.371,8.506a64.867,64.867,0,0,0,16.982,1.451c-1.135,11.065,4.526,31.811,5.922,36.7a2.128,2.128,0,0,0,1.695,1.434c.149.033.316.048.465.065h.019c-5.4-16.508-4.507-42.241-4.507-42.241C431.764,273.25,419.753,266.895,419.38,266.7Z" transform="translate(-4.969 -3.159)" fill="#333647"/>
      <path id="Path_115" data-name="Path 115" d="M413.314,317.081l-2.682,5s-8.1,6.4-6.312-1.483l3.314-9.093" transform="translate(-4.788 -3.69)" fill="#ffe1bd"/>
      <path id="Path_116" data-name="Path 116" d="M370.061,256.848c.484,4.628,2.1,9.795,9.255,13.314a167.75,167.75,0,0,0,35.6,12.32c-.6,1.222-1.247,2.608-1.955,4.172-2.831,6.143-6.109,21.9-7.282,27.084a2.622,2.622,0,0,0,.615,2.3,2.926,2.926,0,0,0,.41.39,6.959,6.959,0,0,0,4.041,1.6,2.92,2.92,0,0,0,2.514-1.418c3.259-5.638,18.957-32.511,20.3-38.247a4.7,4.7,0,0,0,.038-2.543,1.851,1.851,0,0,0-.336-.685c-7.113-6.567-31.21-16.036-31.21-16.036l-.372-15.09-26.462,2.575-4.116.39S369.652,252.986,370.061,256.848Z" transform="translate(-4.384 -2.89)" fill="#3a3d51"/>
      <path id="Path_117" data-name="Path 117" d="M370.061,256.879c.484,4.629,2.1,9.795,9.255,13.314a167.74,167.74,0,0,0,35.605,12.32c-.6,1.222-1.248,2.608-1.956,4.172-2.831,6.143-6.108,21.9-7.281,27.084a2.619,2.619,0,0,0,.614,2.3c1.658-5.085,5.326-15.645,6.593-21.447,1.47-6.746,7.82-14.764,7.82-14.764s-7.765-1.809-18.845-5.02-23.035-8.018-26.517-13.8,0-14.276,0-14.276a1.1,1.1,0,0,1-.13-.146L371.1,247S369.652,253.017,370.061,256.879Z" transform="translate(-4.384 -2.921)" fill="#333647"/>
      <path id="Path_118" data-name="Path 118" d="M445.568,324.028c1,.815,1.676.929,4.357,2.266,2.682,1.32,5.364,4.481,7.543,5.068s6.5,1.3,8.6.424a2.323,2.323,0,0,0,1.62-2.005,3.171,3.171,0,0,0-.447-1.744c-.577-1.027-2.383-1.808-4.562-2.689s-4.487-3.194-6-4.433a12.511,12.511,0,0,1-2.5-3.324c-.261-.342-2.476.082-3.2,1.109-.354.521-.261.733-.112.929a.488.488,0,0,1-.038.6.742.742,0,0,1-.5.228,3,3,0,0,1-3.24-2.543C445.027,318.668,444.562,323.214,445.568,324.028Z" transform="translate(-5.273 -3.761)" fill="#fbc006"/>
      <path id="Path_119" data-name="Path 119" d="M400.921,324.437s-.726.652-.726,1.239a7.348,7.348,0,0,0,2.067,3.211s.242.325.54.831a31.437,31.437,0,0,0,3.073,4.725c1.3,1.451,4.3,2.3,5.642,2.64a8.306,8.306,0,0,0,5.065-.13c2.253-.7,2.365-2.167,2.365-2.167l-6.052-2.934" transform="translate(-4.742 -3.843)" fill="#3a3d51"/>
      <path id="Path_120" data-name="Path 120" d="M400.535,325.143a6.918,6.918,0,0,0,2.216,3.52c1.712,2.966,3.407,5.443,4.357,6.047a21.275,21.275,0,0,0,5.438,2.037c2.718.7,6.443-.62,6.611-2.608v-.292c-.187-2.135-3.594-3.765-4.991-4.368-1.563-.685-2.234-4.955-2.532-6.7a1.229,1.229,0,0,0-1.286-1.044,4.269,4.269,0,0,0-2.308.685c-.541.407-.391.619-.391,1.027,0,.294-.242.457-.559.472a1.084,1.084,0,0,1-.39-.065c-.484-.179-2.7-1.89-2.421-3.128a.979.979,0,0,0-1.006.342C402.844,321.574,400.684,323.774,400.535,325.143Z" transform="translate(-4.746 -3.799)" fill="#fbc006"/>
      <path id="Path_121" data-name="Path 121" d="M393.93,208.728s3.3,8.735,6.034,14.635a36.682,36.682,0,0,0,2.048,3.992c.186.309.409.635.632.961,4.507,6.454,16.35,15.922,20.931,19.751a.017.017,0,0,0,.019.017,2.652,2.652,0,0,0,1.47.57,2.836,2.836,0,0,0,2.57-1.059,1.493,1.493,0,0,0,.3-.717,1.473,1.473,0,0,0-.187-.879.057.057,0,0,1-.019-.033.1.1,0,0,1-.037-.065c-1.6-2.119-10.577-13.982-14.116-18.562-1.695-2.168-2.942-3.6-3.817-4.531-.354-3.357-1.508-13.673-3.278-19.686-.018-.082-.055-.163-.074-.244a13.252,13.252,0,0,0-3.147-5.362A11.56,11.56,0,0,0,401.6,196.1c-.112-.065-.2-.114-.335-.179a15.2,15.2,0,0,0-4.19-1.239,5.845,5.845,0,0,0-2.756.766,5.459,5.459,0,0,0-2.663,4.172C391.342,201.492,392.608,205.077,393.93,208.728Z" transform="translate(-4.64 -2.306)" fill="#2eed89"/>
      <path id="Path_122" data-name="Path 122" d="M406.565,202.992c.13.848,2.1,13.8,2.216,20.256,0,0,17.671,21.153,19.329,23.728a1.473,1.473,0,0,0-.187-.879.057.057,0,0,1-.019-.033.1.1,0,0,1-.037-.065c-1.6-2.119-10.577-13.982-14.116-18.561-1.695-2.168-2.942-3.6-3.817-4.531-.354-3.357-1.508-13.673-3.278-19.686A.715.715,0,0,1,406.565,202.992Z" transform="translate(-4.817 -2.405)" fill="#41f28d"/>
      <path id="Path_123" data-name="Path 123" d="M400.064,223.627a36.7,36.7,0,0,0,2.048,3.992c3.929,6.437,16.74,16.7,21.582,20.713a.017.017,0,0,0,.019.017,2.651,2.651,0,0,0,1.47.57c-2.383-2.2-16.089-14.8-17.839-16.851-1.937-2.248-2.942-3.927-2.663-5.328s.689-1.89,2.03-4.417c1.993-3.715,1.825-5.3,1.825-5.3s-5.177,1.451-5.642,1.483C402.633,218.542,401.274,221.15,400.064,223.627Z" transform="translate(-4.74 -2.571)" fill="#27e076"/>
      <path id="Path_124" data-name="Path 124" d="M404,201.244s-.316,3.813,1.154,6.372a22.934,22.934,0,0,1,3.389,8.784l-6.089-6.258Z" transform="translate(-4.769 -2.384)" fill="#27e076"/>
      <path id="Path_125" data-name="Path 125" d="M393.93,208.728s3.3,8.735,6.034,14.635a36.682,36.682,0,0,0,2.048,3.992c.186.309.409.635.632.961,4.507,6.454,16.35,15.922,20.931,19.751a.017.017,0,0,0,.019.017,2.652,2.652,0,0,0,1.47.57,2.836,2.836,0,0,0,2.57-1.059,1.493,1.493,0,0,0,.3-.717,1.473,1.473,0,0,0-.187-.879.057.057,0,0,1-.019-.033.1.1,0,0,1-.037-.065c-1.6-2.119-10.577-13.982-14.116-18.562-1.695-2.168-2.942-3.6-3.817-4.531-.354-3.357-1.508-13.673-3.278-19.686-.018-.082-.055-.163-.074-.244a13.252,13.252,0,0,0-3.147-5.362A11.56,11.56,0,0,0,401.6,196.1c-.112-.065-.2-.114-.335-.179a15.2,15.2,0,0,0-4.19-1.239,5.845,5.845,0,0,0-2.756.766,5.459,5.459,0,0,0-2.663,4.172C391.342,201.492,392.608,205.077,393.93,208.728Z" transform="translate(-4.64 -2.306)" fill="#fbc006"/>
      <path id="Path_126" data-name="Path 126" d="M370.954,244.673c-.354.684-.578,1.157.112,1.695,0,0,2.365,2.575,9.776,2.819h.317a18.058,18.058,0,0,0,1.973-.13c5.438-.635,14.413-3.389,17.579-5.051,0,0,.037-.017.093-.049.019,0,.019-.016.037-.016.391-.212,1.546-.88,1.416-1.3a16.632,16.632,0,0,1-.633-3.764,60.894,60.894,0,0,1,.745-10.56c.037-.146.074-.309.112-.44a6.149,6.149,0,0,1,.2-.62,34.222,34.222,0,0,1,3.8-6.535l.019-.033a8.852,8.852,0,0,0,1.583-3.276c.558-4.5-4.525-7.594-4.264-11.522.2-3.063.763-6.176-.876-8.343a4.858,4.858,0,0,0-1.657-1.418c-.112-.065-.206-.115-.335-.179a15.2,15.2,0,0,0-4.191-1.239,39.013,39.013,0,0,0-14.822.62s-15.028,5.394-16.536,10.267,3.259,13.966,5.251,18.512c.223.522.447,1.092.652,1.695,1.6,4.775,2.42,11.994,1.508,14.944C372.816,240.729,371.475,243.646,370.954,244.673Z" transform="translate(-4.326 -2.301)" fill="#fbc006"/>
      <path id="Path_127" data-name="Path 127" d="M371.132,246.7s2.365,2.575,9.776,2.82h.317a18.31,18.31,0,0,0,1.973-.13,6.758,6.758,0,0,1-3.426-1.157c-1.713-1.5-.187-9.045.242-11.228.39-2.053-.354-6.323,1.3-6.812l.391-2.3s1.34,1.451,4.432.929a58.072,58.072,0,0,0,6.685-1.6c1.731-.44,3.743-.652,7.3-1.4,3.874-.832,4.339-1.6,4.339-1.6.689-1.108,1.434-2.184,2.067-3.161l.018-.033a9.008,9.008,0,0,1-4.468,2.461c-2.626.489-13.948,3.047-16.388,2.721-2.458-.326-5.083-3.373-5.083-3.373l-9.236,3.292c1.6,4.775,2.42,11.994,1.508,14.944,0,0-1.322,2.917-1.862,3.96C370.666,245.674,370.442,246.147,371.132,246.7Z" transform="translate(-4.392 -2.618)" fill="#f9a208"/>
      <path id="Path_128" data-name="Path 128" d="M377.884,200c.241,1.923,8.565,6.536,15.046,8.459,0,0,2.737-6.454,2.086-10.2a2.175,2.175,0,0,0-1.267-1.6,4.278,4.278,0,0,1-.931-.587,3.228,3.228,0,0,1-1.173-2.445c0-.457.038-.912.055-1.32a16.461,16.461,0,0,1,.317-2.053l-12.049-5.785s1.6,9.826.223,11.342C380.173,195.781,377.642,198.194,377.884,200Z" transform="translate(-4.477 -2.185)" fill="#ffe1bd"/>
      <path id="Path_129" data-name="Path 129" d="M380.888,194.477l2.718-2.689.912-.457a8.027,8.027,0,0,1-2.5-2.77l9.646,3.781q-.056.611-.056,1.32a3.192,3.192,0,0,0,1.174,2.444,2.868,2.868,0,0,1-1.918-1.19c-.484-.668-3.128-1.956-5.345-2.9a5.393,5.393,0,0,1-2.458,4.27,11.492,11.492,0,0,1-6.22,1.3Z" transform="translate(-4.465 -2.234)" fill="#eda38c" opacity="0.25"/>
      <path id="Path_130" data-name="Path 130" d="M401.452,172.836s1.192,6.746-.819,12.678-4.767,7.627-6.331,7.709-10.819-1.125-13.482-6.828a22.22,22.22,0,0,1-.912-15.563c1.192-3.374,7.877-6.258,12.569-5.541C397.15,166.007,401.005,168.908,401.452,172.836Z" transform="translate(-4.49 -1.957)" fill="#ffe1bd"/>
      <path id="Path_131" data-name="Path 131" d="M385.021,261.751V263.2l36.126-12.564,22.477,8.181-.242-.408h3.11v1.174a.379.379,0,0,1-.28.359l-38.006,13.216a1.278,1.278,0,0,1-.819,0l-23.91-8.7a.464.464,0,0,1-.335-.424v-1.4Z" transform="translate(-4.54 -2.969)" fill="#1c0058"/>
      <path id="Path_132" data-name="Path 132" d="M384.14,264.271a.288.288,0,1,0,.279-.358C384.252,263.913,384.14,264.076,384.14,264.271Z" transform="translate(-4.552 -3.126)" fill="#48c8ef"/>
      <path id="Path_133" data-name="Path 133" d="M385.55,265.009a.37.37,0,1,1,.28-.359A.327.327,0,0,1,385.55,265.009Z" transform="translate(-4.565 -3.131)" fill="#48c8ef"/>
      <path id="Path_134" data-name="Path 134" d="M386.477,265.063a.288.288,0,1,0,.279-.359C386.607,264.688,386.477,264.851,386.477,265.063Z" transform="translate(-4.579 -3.136)" fill="#48c8ef"/>
      <path id="Path_135" data-name="Path 135" d="M421.148,249.169l25.344,9.223-38.7,13.462-24.375-8.883a.353.353,0,0,1,0-.684Z" transform="translate(-4.54 -2.952)" fill="#5624c1"/>
      <path id="Path_136" data-name="Path 136" d="M421.366,250.835l21.881,7.968a.179.179,0,0,1,0,.342L409.56,270.863a.238.238,0,0,1-.149,0l-21.881-7.968a.18.18,0,0,1,0-.343l33.686-11.717A.225.225,0,0,1,421.366,250.835Z" transform="translate(-4.59 -2.971)" fill="#ceb8ff"/>
      <path id="Path_137" data-name="Path 137" d="M412.178,253.439l6.573,2.4a.1.1,0,0,1,0,.2l-10.39,3.618a1.287,1.287,0,0,1-.782,0l-6.537-2.379a.12.12,0,0,1,0-.228l10.354-3.6A1.172,1.172,0,0,1,412.178,253.439Z" transform="translate(-4.751 -3.001)" fill="#fff"/>
      <path id="Path_138" data-name="Path 138" d="M408.835,272.256a.669.669,0,0,1-.316-.163.258.258,0,0,0-.074-.065l-.354-.326,10.483-22.962a1.2,1.2,0,0,1,.707-.62l37.747-13.135a.282.282,0,0,1,.3.065l.652.587.019.016-1.286.831-9.925,21.739L409.561,271.18l.13.1-.819.978Z" transform="translate(-4.835 -2.783)" fill="#a87fff"/>
      <path id="Path_139" data-name="Path 139" d="M408.845,272.264l10.335-22.636a1.828,1.828,0,0,1,1.1-.961l37.541-13.054a.238.238,0,0,1,.186.033l.019.016a.111.111,0,0,1,.019.13l-10.428,22.864a.621.621,0,0,1-.354.309L409.2,272.214a.694.694,0,0,1-.093.033.961.961,0,0,1-.223,0h-.038Z" transform="translate(-4.844 -2.791)" fill="#571fd0"/>
      <path id="Path_140" data-name="Path 140" d="M433.135,255.022c.373.994,2.048,1.384,3.743.9s2.756-1.7,2.383-2.69-2.048-1.384-3.743-.9S432.763,254.028,433.135,255.022Z" transform="translate(-5.131 -2.987)" fill="#fff" opacity="0.17"/>
      <path id="Path_141" data-name="Path 141" d="M400.425,253.8l1.434,1.581a5.348,5.348,0,0,0,3.072,1.206l2.124.424a.394.394,0,0,1,.186.048,1.331,1.331,0,0,1,.187.13l2.346,1.76a1.13,1.13,0,0,1,.242.261,24.955,24.955,0,0,1,1.508,2.429c.075.146-.372.309-.744.1a17.2,17.2,0,0,1-1.77-1.94s1.136,2.167,1.416,2.9c.074.179-.354.293-.838-.017a14.056,14.056,0,0,1-1.751-2.558s.689,1.744.819,2.3c.038.163-.2.278-.726.1s-1.452-2.119-1.452-2.119l-.726-.521.632.733s.633,1.206.783,1.564c.074.211-.465.244-.968-.228s-1.379-1.532-1.769-1.581a8.2,8.2,0,0,1-2.309.212c-1.471-.1-2.514-2.364-2.514-2.364l-3.613-3.161Z" transform="translate(-4.692 -3.006)" fill="#ffe1bd"/>
      <path id="Path_142" data-name="Path 142" d="M367.095,216.445s5.382,14.243,8.063,18.627c3.929,6.438,16.74,16.7,21.582,20.713l.019.017a2.9,2.9,0,0,0,1.731.6,2.816,2.816,0,0,0,2.291-1.075,1.523,1.523,0,0,0,.28-.636,1.315,1.315,0,0,0-.187-.961.054.054,0,0,1-.018-.033.1.1,0,0,1-.038-.065c-1.6-2.119-10.577-13.982-14.116-18.561-1.694-2.167-2.942-3.6-3.817-4.53a147.347,147.347,0,0,0-2.905-18.3v-.048c-.112-.472-.241-.913-.372-1.336a12.773,12.773,0,0,0-5.345-7.35,6.687,6.687,0,0,0-6.834-.343,4.864,4.864,0,0,0-1.061.815,5.765,5.765,0,0,0-1.6,3.357C364.506,209.21,365.773,212.8,367.095,216.445Z" transform="translate(-4.322 -2.397)" fill="#2eed89"/>
      <path id="Path_143" data-name="Path 143" d="M367.095,216.465s5.382,14.243,8.063,18.627c3.929,6.438,16.74,16.7,21.582,20.713l.019.017a2.9,2.9,0,0,0,1.732.6c-2.459-2.134-11.509-10.054-13.613-11.977-2.459-2.249-7.523-7.709-9.422-11.391-1.9-3.7-6.537-16.264-8.305-21.348-1.713-4.922-.838-7.513-.764-7.676a5.771,5.771,0,0,0-1.6,3.357C364.507,209.23,365.773,212.815,367.095,216.465Z" transform="translate(-4.322 -2.417)" fill="#27e076"/>
      <path id="Path_144" data-name="Path 144" d="M380.182,212.376c.093.879,1.657,15.253,1.621,18.512,0,0,17.746,21.4,19.459,23.907a1.313,1.313,0,0,0-.186-.961.057.057,0,0,1-.019-.033.1.1,0,0,1-.038-.065c-1.6-2.119-10.576-13.982-14.115-18.562-1.695-2.168-2.942-3.6-3.817-4.531A155.013,155.013,0,0,0,380.182,212.376Z" transform="translate(-4.505 -2.516)" fill="#41f28d"/>
      <path id="Path_145" data-name="Path 145" d="M367.095,216.445s5.382,14.243,8.063,18.627c3.929,6.438,16.74,16.7,21.582,20.713l.019.017a2.9,2.9,0,0,0,1.731.6,2.816,2.816,0,0,0,2.291-1.075,1.523,1.523,0,0,0,.28-.636,1.315,1.315,0,0,0-.187-.961.054.054,0,0,1-.018-.033.1.1,0,0,1-.038-.065c-1.6-2.119-10.577-13.982-14.116-18.561-1.694-2.167-2.942-3.6-3.817-4.53a147.347,147.347,0,0,0-2.905-18.3v-.048c-.112-.472-.241-.913-.372-1.336a12.773,12.773,0,0,0-5.345-7.35,6.687,6.687,0,0,0-6.834-.343,4.864,4.864,0,0,0-1.061.815,5.765,5.765,0,0,0-1.6,3.357C364.506,209.21,365.773,212.8,367.095,216.445Z" transform="translate(-4.322 -2.397)" fill="#fbc006"/>
      <path id="Path_146" data-name="Path 146" d="M374.165,198.339c2.383-1.14,5.139-.977,7.617-2.4l.018-.017c.168-.1.354-.211.522-.326a5.425,5.425,0,0,0,.522-.39c3.147-2.543,1.583-8.377,1.583-11.359v-.179c.093-4.172-.113-7.3,5.866-6.177a19.215,19.215,0,0,0,6.853,0c3.891-.7,6.163-4.433,4.32-7.513-.094-.146-.187-.277-.28-.423-4.1-5.736-13.426-5.068-18.38-2.477-4.19,2.2-5.716,5.28-5.642,10.82.074,4.743-2.03,4.531-3,8.8a7.416,7.416,0,0,0-.186.994c-.056.391-.112.8-.149,1.19A35.979,35.979,0,0,0,374.165,198.339Z" transform="translate(-4.427 -1.956)" fill="#2a3049"/>
      <path id="Path_147" data-name="Path 147" d="M374.164,198.545c2.384-1.14,5.14-.977,7.617-2.4l.019-.017c.167-.1.354-.211.521-.325a5.609,5.609,0,0,0,.522-.391c3.147-2.543,1.583-8.377,1.583-11.359l-2.718-1.548a8.991,8.991,0,0,0,0,3.015c.3,1.418.838,1.483,1.377,3.113s.354,4.694-1.508,5.883-4.768.912-5.642,1.353a17.854,17.854,0,0,1-1.77-9,7.575,7.575,0,0,0-.186.994c-.056.391-.112.8-.149,1.19A36.209,36.209,0,0,0,374.164,198.545Z" transform="translate(-4.427 -2.162)" fill="#22293f"/>
      <path id="Path_148" data-name="Path 148" d="M385.284,181.819a2.769,2.769,0,0,0-2.44-1.157c-1.489.212-1.3,2.135-.893,3.732.558,2.069,3.053,1.841,3.053,1.841" transform="translate(-4.522 -2.14)" fill="#ffe1bd"/>
      <path id="Path_149" data-name="Path 149" d="M445.568,324.034c1.006.815,1.676.93,4.358,2.266,2.682,1.32,5.363,4.481,7.542,5.068s6.5,1.3,8.6.424a2.325,2.325,0,0,0,1.621-2c-.95.929-1.806,1.434-4.935,1.353-3.129-.1-6.257-.978-8.175-3.064-1.937-2.085-3.165-3.129-5.251-3.846s-3.054-1.629-2.775-2.476c.3-.848,1.043-1.385,2.551-1.076s1.713-.424,1.713-.424a.74.74,0,0,1-.5.228,3,3,0,0,1-3.24-2.542C445.028,318.673,444.563,323.22,445.568,324.034Z" transform="translate(-5.273 -3.766)" fill="#f9a208"/>
      <path id="Path_150" data-name="Path 150" d="M400.535,325.143a6.918,6.918,0,0,0,2.216,3.52c1.712,2.966,3.407,5.443,4.357,6.047a21.276,21.276,0,0,0,5.438,2.037c2.718.7,6.443-.62,6.611-2.608-2.979,2.3-9.552.13-10.67-.847s-1.4-2.428-3.054-3.928-3.538-3.292-2.626-4.71c.652-.994,2.718-.8,3.3-.6a1.02,1.02,0,0,0,.968-.146,1.108,1.108,0,0,1-.391-.065c-.484-.18-2.7-1.89-2.421-3.13a.981.981,0,0,0-1.006.342C402.844,321.573,400.684,323.774,400.535,325.143Z" transform="translate(-4.746 -3.799)" fill="#f9a208"/>
      <path id="Path_151" data-name="Path 151" d="M60.107,360.475l119.96,60.574,9.981-5L70.088,355.439,51.374,351.1c-.317-.081-.559.261-.335.473Z" transform="translate(-0.605 -4.159)" fill="#fff"/>
      <path id="Path_152" data-name="Path 152" d="M69.926,345.423,53.744,342.05c-.559-.114-.968.473-.577.848l11.005,10.593Z" transform="translate(-0.629 -4.052)" fill="#b4bbe1"/>
      <path id="Path_153" data-name="Path 153" d="M53.167,342.9l4.32,4.172a4.778,4.778,0,0,1,.6-1.777,5.846,5.846,0,0,1,1.08-1.418,5.142,5.142,0,0,1,.67-.538l-6.108-1.255A.5.5,0,0,0,53.167,342.9Z" transform="translate(-0.629 -4.052)" fill="#5624c1"/>
      <path id="Path_154" data-name="Path 154" d="M182.521,402.89l-1.527,2.364-3.948,6.078L65.522,354.36a4.17,4.17,0,0,1-.67-.359,3.576,3.576,0,0,1-1.285-1.548,4.81,4.81,0,0,1,.317-4.188,6,6,0,0,1,1.08-1.418,5.382,5.382,0,0,1,4.153-1.581,3.729,3.729,0,0,1,1.192.293,1.1,1.1,0,0,1,.2.082l.242.13c.037.016.056.033.093.048a.258.258,0,0,0,.075.049Z" transform="translate(-0.75 -4.09)" fill="#5624c1"/>
      <path id="Path_155" data-name="Path 155" d="M182.542,402.89l-1.527,2.364-3.874-1.011L64.984,346.864v-.017a5.382,5.382,0,0,1,4.153-1.581,3.729,3.729,0,0,1,1.192.293,1.106,1.106,0,0,1,.2.082l.242.13c.037.016.056.033.093.048a.257.257,0,0,0,.075.049Z" transform="translate(-0.771 -4.09)" fill="#80b4ff"/>
      <path id="Path_156" data-name="Path 156" d="M185.487,409.672c-1.341,2.428-4.209,3.65-6.425,2.721a4.151,4.151,0,0,1-.67-.359,3.5,3.5,0,0,1-1.267-1.547,4.813,4.813,0,0,1,.317-4.189,5.647,5.647,0,0,1,5.251-3.015,3.728,3.728,0,0,1,1.192.293,1.1,1.1,0,0,0,.2.082l.242.146c.038.017.056.033.094.049C186.194,404.979,186.715,407.456,185.487,409.672Z" transform="translate(-2.095 -4.777)" fill="#5624c1"/>
      <path id="Path_157" data-name="Path 157" d="M102.746,423.667c2.979,1.6,4.32.946,7.914,2.135,3.613,1.173,10.5,4.954,13.389,5.214,2.886.277,6.48-1.108,7.505-3.259,1.024-2.168-1.844-3.813-5.029-5.248-3.2-1.451-10.725-6.306-10.725-6.306l-10.39-.848c.632.571,1.08,1.011,1.08,1.011l1,4.873-4.823.847A1.159,1.159,0,0,0,102.746,423.667Z" transform="translate(-1.214 -4.92)" fill="#595959"/>
      <path id="Path_158" data-name="Path 158" d="M115.81,415.328s7.524,4.873,10.726,6.306c3.184,1.434,6.052,3.08,5.028,5.247s-4.618,3.537-7.5,3.26-9.777-4.058-13.389-5.231-4.935-.538-7.933-2.119c-1.1-.587-1.527-5.068.652-8.49" transform="translate(-1.207 -4.908)" fill="#5624c1"/>
      <path id="Path_159" data-name="Path 159" d="M68.169,391.909a.9.9,0,0,0,.093.407c.5,1.092,1.341,1.711,3.91,3.063,2.588,1.353,4.357,5,6.518,6.7,2.16,1.711,4.9,3.293,7.486,3.39,2.57.081,5.754-1.451,6.071-3.162s-.931-2.249-2.16-2.965a45.008,45.008,0,0,1-5.754-4.6c-.726-.814-2.365-3.243-2.365-3.243l-8.64-6.225a9.5,9.5,0,0,0-3.035,2.2,1.812,1.812,0,0,1,.819,0,18.842,18.842,0,0,1,.968,2,5.363,5.363,0,0,1-.894,1.044c-.242.065-2.123.179-2.123.179A2.076,2.076,0,0,0,68.169,391.909Z" transform="translate(-0.809 -4.564)" fill="#595959"/>
      <path id="Path_160" data-name="Path 160" d="M82.288,390.809s1.639,2.428,2.365,3.243a45.24,45.24,0,0,0,5.773,4.595c1.229.717,2.477,1.255,2.16,2.966s-3.5,3.243-6.071,3.161c-2.57-.1-5.326-1.662-7.486-3.374s-3.929-5.362-6.518-6.714c-2.57-1.353-3.389-1.956-3.911-3.047s1.024-5.231,5.046-7.041" transform="translate(-0.813 -4.556)" fill="#5624c1"/>
      <path id="Path_161" data-name="Path 161" d="M72.748,383.447c2.141,7.024,10.707,6.666,10.707,6.666s7.262-6.666,14.8-14.374c5.307-5.394,10.745-11.309,13.911-15.775.708-1.011,1.3-1.94,1.769-2.771a23.522,23.522,0,0,0,1.769-4.677c3.948-13.787,5.233-43.137,5.233-43.137L98.5,319.109l.2,30.865s-2.141,1.744-4.786,4.417a59.419,59.419,0,0,0-4.991,5.7C84.61,365.8,72.748,383.447,72.748,383.447Z" transform="translate(-0.863 -3.665)" fill="#3a3d51"/>
      <path id="Path_162" data-name="Path 162" d="M72.748,383.987c2.142,7.024,10.707,6.666,10.707,6.666s7.262-6.666,14.8-14.374l-1.322-12.695-2.179-8.653H93.9a59.434,59.434,0,0,0-4.991,5.7C84.61,366.338,72.748,383.987,72.748,383.987Z" transform="translate(-0.863 -4.204)" fill="#242733"/>
      <path id="Path_163" data-name="Path 163" d="M104.031,328.713s3.128,13.917,3.594,14c.354.048,3.427,11.7,4.9,17.4.708-1.011,1.3-1.94,1.769-2.771a23.524,23.524,0,0,0,1.769-4.677c-1.415-9.469-5.828-30.458-5.828-30.458h-4.042Z" transform="translate(-1.233 -3.817)" fill="#333647"/>
      <path id="Path_164" data-name="Path 164" d="M79.6,323.216c.968,4.253,7.579,19.767,12.4,31.256A73.735,73.735,0,0,1,97.5,376.962c1.1,13.444,3.408,33.717,4.19,37.645a11.956,11.956,0,0,0,2.03,1.075,11.658,11.658,0,0,0,12.569-1.971s.167-43.072-.056-50.633c-.2-7.562-8.435-38.378-8.435-38.378s12.755-3.6,13.165-15.3l-35.325,3.992-6.071.685C79.6,314.074,78.185,316.861,79.6,323.216Z" transform="translate(-0.937 -3.665)" fill="#3a3d51"/>
      <path id="Path_165" data-name="Path 165" d="M79.6,323.264c.968,4.253,7.579,19.767,12.4,31.256A73.728,73.728,0,0,1,97.5,377.01c1.1,13.444,3.408,33.717,4.19,37.645a11.956,11.956,0,0,0,2.03,1.075c-.8-10.576-3.278-43.4-3.762-49.508-.54-7.317-6.294-19.295-9.795-29.92a65.519,65.519,0,0,1-2.886-21.446l-1.639-1.434-6.071.684C79.6,314.122,78.185,316.908,79.6,323.264Z" transform="translate(-0.937 -3.713)" fill="#333647"/>
      <path id="Path_166" data-name="Path 166" d="M77.757,314.109a12.331,12.331,0,0,0-.41,1.711.769.769,0,0,0,.41.814,30.545,30.545,0,0,0,5.419,2.265,31.688,31.688,0,0,0,11.564,1.076c1.415-.115,15.307-2.8,23.612-7.4a5.2,5.2,0,0,0,2.775-5.492v-.048C120.847,305.6,77.757,314.109,77.757,314.109Z" transform="translate(-0.917 -3.635)" fill="#2268bc"/>
      <path id="Path_167" data-name="Path 167" d="M71.168,267.1c1.061,3.813,2.346,7.594,3.668,11.358.615,1.777,1.359,3.537,2.1,5.281,2.663,6.291,5.456,12.6,3.855,19.458-.633,2.689-2.216,6.062-1.862,8.816.223,1.646.484,3.047,3.8,4.905a9.344,9.344,0,0,0,2.2.9l.447.115.2.048a19.58,19.58,0,0,0,2.123.407,23.4,23.4,0,0,0,5.233.18,24.349,24.349,0,0,0,2.439-.278c5.046-.831,14.469-2.852,22.607-7.268a.1.1,0,0,1,.055-.016c2.533-1.337,3.911-4.563,3.11-9.012-.39-2.233-1-5.346-1.527-7.872a38.566,38.566,0,0,1-.745-9.012c.056-1.353.094-2.721.13-4.057,1.49-8.361,6.853-25.309,4.246-29.872-1.676-2.884-4.674-7.79-4.674-7.79a77.962,77.962,0,0,0-9.963-1.792c-.484-.016-.95-.033-1.434-.033-2.756.472-5.642.864-8.492,1.4-1.844.343-3.668.717-5.456,1.207-.54.146-1.043.293-1.564.457-.428.146-.857.277-1.266.423-2.607.88-4.432,1.63-5.884,2.249a41.777,41.777,0,0,0-4.283,2.168,1.325,1.325,0,0,0-.2.114,46.84,46.84,0,0,0-5.586,3.715c-1.9,1.483-3.575,3.1-4.134,4.481a9.823,9.823,0,0,0-.466,1.728.4.4,0,0,0-.019.146C69.567,262.083,70.517,264.756,71.168,267.1Z" transform="translate(-0.828 -2.861)" fill="#5624c1"/>
      <path id="Path_168" data-name="Path 168" d="M69.885,259.529l3,.326c.8-5.345,18.491-13.445,18.491-13.445l.317-1.76c-.428.147-.857.278-1.266.424-2.607.88-4.432,1.629-5.884,2.249a41.8,41.8,0,0,0-4.283,2.167,1.253,1.253,0,0,0-.2.115,46.715,46.715,0,0,0-5.586,3.715c-1.9,1.483-3.575,3.1-4.134,4.481A10.14,10.14,0,0,0,69.885,259.529Z" transform="translate(-0.829 -2.898)" fill="#5624c1"/>
      <path id="Path_169" data-name="Path 169" d="M92.066,236.008v6.7s7.84,4.954,11.992,4.236c1.789-.309,2.738-2.313,2.366-5.149l-3.781-.668Z" transform="translate(-1.092 -2.796)" fill="#f2ba88"/>
      <path id="Path_170" data-name="Path 170" d="M105.146,246.619,109.6,251.2s.168-5.492-2.811-8.295c-2.905-2.738-3.017-.376-3.017-.376S106.505,245.3,105.146,246.619Z" transform="translate(-1.23 -2.862)" fill="#fff"/>
      <path id="Path_171" data-name="Path 171" d="M113.675,226.871a34.067,34.067,0,0,1-.689,10.739c-1.322,5.133-1.732,6.291-4.1,7.2s-4.488,1.01-8.455-1.222a18.4,18.4,0,0,1-6.145-5.883s-.559.326-1.993-1.075c-2.216-2.2-2.644-3.292-2.644-6.274a18.845,18.845,0,0,1,3.5-10.609c2.644-3.9,10.782-2.64,14.469-.994C111.31,220.418,112.968,223.531,113.675,226.871Z" transform="translate(-1.063 -2.573)" fill="#ffd1a4"/>
      <path id="Path_172" data-name="Path 172" d="M116.881,227.086c-4.059,6.274-14.171,2.151-14.171,2.151-.745,2.721-2.924,2.982-3.985,3.487-1.043.5-1.266,3.145-1.266,3.145h-.95a16.385,16.385,0,0,0-.521-3.976,2.868,2.868,0,0,0-4.73-.407c-1.285,1.743.186,3.683,1.043,5.117a5.737,5.737,0,0,1-.261,3.243,10.6,10.6,0,0,1-2.57-4.058c-1.043-2.721-1.806-8.441,0-14.568a6.066,6.066,0,0,1,.838-1.76c3.11-4.6,11.955-5.476,15.438-4.45,3,.9,10.428,3.847,11.805,8.05A4.648,4.648,0,0,1,116.881,227.086Z" transform="translate(-1.048 -2.542)" fill="#2a3049"/>
      <path id="Path_173" data-name="Path 173" d="M117.522,353.958c-.055.325-.112.651-.167.961C117.41,354.544,117.467,354.235,117.522,353.958Z" transform="translate(-1.391 -4.193)" fill="#3a3a3a"/>
      <path id="Path_174" data-name="Path 174" d="M92.067,242.094a6.114,6.114,0,0,0-.857,1.385,10.755,10.755,0,0,0-.54,1.548s3.2,5.769,12.011,8.245l1.006-6.241C103.668,247.064,95.959,246.136,92.067,242.094Z" transform="translate(-1.075 -2.868)" fill="#fff"/>
      <path id="Path_175" data-name="Path 175" d="M116.881,227.144c-4.059,6.274-14.171,2.151-14.171,2.151-.745,2.721-2.924,2.982-3.985,3.487-1.043.5-1.266,3.145-1.266,3.145h-.95a16.385,16.385,0,0,0-.521-3.976,2.868,2.868,0,0,0-4.73-.407c-1.285,1.743.186,3.683,1.043,5.117a5.737,5.737,0,0,1-.261,3.243,10.6,10.6,0,0,1-2.57-4.058c-1.043-2.721-1.806-8.441,0-14.568a6.066,6.066,0,0,1,.838-1.76,51.02,51.02,0,0,0,11.713,6.633c6.369,2.33,11.805,1.956,13.445.8a4.327,4.327,0,0,0,2.085-3.83A4.648,4.648,0,0,1,116.881,227.144Z" transform="translate(-1.048 -2.6)" fill="#1c2235"/>
      <path id="Path_176" data-name="Path 176" d="M82.067,323.7a23.233,23.233,0,0,0,.6,4.107,5.535,5.535,0,0,0,.763,1.19c.447.668,2.458,3.813,2.756,5.655a14.029,14.029,0,0,1-1.061,5.23.394.394,0,0,1-.186.2.511.511,0,0,1-.317.033c-1.266-.163-1.341-1.532-1.229-2.4.056-.489.075-1.988-.3-1.956-1.452.783-1.62,4.091-1.862,5.394-.335,1.76.8,5.28-.186,5.231-.391-.017-3.482-1.174-4.134-2.331a7.075,7.075,0,0,1-1.9-3.992,15.187,15.187,0,0,1,.577-5.133c.2-1.157.54-2.379.708-3.96a44.108,44.108,0,0,0-.317-4.857Z" transform="translate(-0.889 -3.834)" fill="#ffd1a4"/>
      <path id="Path_177" data-name="Path 177" d="M80.881,303.5c-.633,2.689-2.216,6.062-1.862,8.816.224,1.646.484,3.047,3.8,4.905a9.344,9.344,0,0,0,2.2.9l.447.114c.428-10.135-1.08-26.807-1.08-26.807,2.477-7.562,1.825-24.591,1.825-24.591s-8.305,8.473-8.305,9.191c0,.407-.466,4.563-.875,8.018C79.689,290.331,82.483,296.638,80.881,303.5Z" transform="translate(-0.914 -3.161)" fill="#5624c1"/>
      <path id="Path_178" data-name="Path 178" d="M66.489,292.407l8.4,34.3a4.5,4.5,0,0,0,1.117.343c1.322.277,3.817.374,7.467-1.174,0,0-.8-26.808-1.825-34.678,0,0,5.605-19.23,4.209-27.884-.894-5.573-6.331-7.5-10.707-6.861-2.4.359-4.506,1.483-5.326,3.211C69.84,259.667,64.85,287.453,66.489,292.407Z" transform="translate(-0.785 -3.036)" fill="#5624c1"/>
      <path id="Path_179" data-name="Path 179" d="M125.035,279.218c.019-.017.038-.017.056-.033,0,0-5.549-9.778-6.983-13.656l1.285-22.033s4.972.8,9.385,8.9c4.432,8.116,13.891,28.112,12.775,31.452a30.517,30.517,0,0,0-16.462-4.628Z" transform="translate(-1.4 -2.884)" fill="#5624c1"/>
      <path id="Path_180" data-name="Path 180" d="M94.043,274.227v26.237c0,.114.019.538.261.668l.019.016a.256.256,0,0,1,.075.049l.466.277.056-.114,22.123-11.294V262.151l.484-.847-.484-.245-21.583,11A2.5,2.5,0,0,0,94.043,274.227Z" transform="translate(-1.115 -3.092)" fill="#97a2ce"/>
      <path id="Path_181" data-name="Path 181" d="M117.531,261.323,95.949,272.34a2.456,2.456,0,0,0-1.415,2.167v26.449a.756.756,0,0,0,1.117.571l21.881-11.163Z" transform="translate(-1.121 -3.096)" fill="#b4bbe1"/>
      <path id="Path_182" data-name="Path 182" d="M124.6,264.746l-6.8-3.423-.577.294.261,6.763Z" transform="translate(-1.39 -3.096)" fill="#97a2ce"/>
      <path id="Path_183" data-name="Path 183" d="M117.222,261.62l6.741,3.455v4.694l-6.741-4.253Z" transform="translate(-1.39 -3.099)" fill="#8792b2"/>
      <path id="Path_184" data-name="Path 184" d="M116.963,262.428l5.941,3.064.8,28.013L103,304.31l-6.7-3.537a1.687,1.687,0,0,1-.95-1.482V274.472a1.754,1.754,0,0,1,1.024-1.548Z" transform="translate(-1.131 -3.109)" fill="#fff"/>
      <path id="Path_185" data-name="Path 185" d="M101.412,277.954v26.237c0,.114.018.538.26.668l.019.016a.258.258,0,0,1,.075.049l.465.277.055-.114,22.123-11.294V265.879l.484-.848-.484-.244-21.582,11A2.491,2.491,0,0,0,101.412,277.954Z" transform="translate(-1.202 -3.137)" fill="#97a2ce"/>
      <path id="Path_186" data-name="Path 186" d="M124.9,265.034,103.317,276.05a2.475,2.475,0,0,0-1.415,2.168v26.449a.756.756,0,0,0,1.117.57L124.9,294.074Z" transform="translate(-1.208 -3.139)" fill="#b4bbe1"/>
      <path id="Path_187" data-name="Path 187" d="M93.006,291.149a1.419,1.419,0,0,1,.875-1.059l3.445,1.385c-.242-.244-.968-.733-1.248-.977-.745-.652-.354-1.32,0-1.385a23.7,23.7,0,0,1,4.339,1.614,4.485,4.485,0,0,1,1.061.994,2.414,2.414,0,0,0,1.732.668l3.053-.961,3.24,2.167-.782,3.243s-5.81,2.836-7.56,2.445c-5.885-1.288-7.579-3.83-7.579-3.83C93.1,294.783,92.876,291.947,93.006,291.149Z" transform="translate(-1.102 -3.425)" fill="#ffd1a4"/>
      <path id="Path_188" data-name="Path 188" d="M107.947,297.538a3.052,3.052,0,0,0,.354-.978c.279-1.89-.783-5.117-3.762-5,0,0,11.1-7.3,20.353-11.929a30.278,30.278,0,0,1,9.944,1.092,19.3,19.3,0,0,1,6.574,3.537C140.255,287.613,107.947,297.538,107.947,297.538Z" transform="translate(-1.24 -3.311)" fill="#5624c1"/>
      <path id="Path_189" data-name="Path 189" d="M66.488,292.408l8.4,34.3a4.5,4.5,0,0,0,1.117.343c-.54-2.461-7-32.3-7.281-37.368-.317-5.28,6.443-33.212,6.443-33.212-2.4.359-4.506,1.482-5.326,3.211C69.84,259.669,64.85,287.455,66.488,292.408Z" transform="translate(-0.785 -3.038)" fill="#5624c1"/>
      <path id="Path_190" data-name="Path 190" d="M147.053,288.308v-.017l.2-5.785v-.293l.019.033c.577-10.707,17.82-18.888,38.714-18.35,21.024.522,37.783,9.729,37.411,20.517l-.186,5.851c-.149,4.107-2.718,7.822-7,10.853l8.045,4.383a6.751,6.751,0,0,1,3.185-.538,5.745,5.745,0,0,1,1.62.391,1.891,1.891,0,0,1,.261.13l.316.163a.322.322,0,0,1,.13.081c.056.033.056.049.112.082l39.907,21.462c-5.717,1.663-11.583,3.651-17.542,6l-29.72-15.954a3.775,3.775,0,0,1-.894-.522,4.9,4.9,0,0,1-1.75-2.069,6.07,6.07,0,0,1-.41-2.917l-10.651-5.8c-.187-.082-.354-.18-.541-.278a2.912,2.912,0,0,1-.409-.39,64.145,64.145,0,0,1-23.407,3.536c-20.447-.538-36.833-9.223-37.448-19.637l-.019.016Z" transform="translate(-1.742 -3.126)" fill="#b4bbe1" opacity="0.55"/>
      <path id="Path_191" data-name="Path 191" d="M227.7,267.707a11.177,11.177,0,0,1-.541,3.031c-3.184,9.729-19.925,16.818-39.832,16.313s-36.126-8.459-38.659-18.334c-.26-.994-.335-9.272-.335-9.272s10.428-18.154,40.372-17.8c18.119.227,38.994,19.832,38.994,19.832S227.756,265.751,227.7,267.707Zm-6.313-.163a10.565,10.565,0,0,0-2.607-6.991c-4.972-6.143-16.555-10.641-30.2-11-13.632-.359-25.493,3.537-30.875,9.419a10.7,10.7,0,0,0-3.072,6.845c-.317,9.452,14.357,13.135,32.792,13.608C205.876,279.912,221.071,277.012,221.387,267.544Z" transform="translate(-1.758 -2.862)" fill="#5624c1"/>
      <path id="Path_192" data-name="Path 192" d="M222.975,261.5c-.316,9.647-16.144,17.078-35.362,16.59-19.2-.489-34.506-8.718-34.17-18.383.316-9.647,16.144-17.078,35.362-16.59C208,243.622,223.31,251.851,222.975,261.5Z" transform="translate(-1.819 -2.879)" fill="#fff" opacity="0.2"/>
      <path id="Path_193" data-name="Path 193" d="M208.208,246.51c-34.636.668-45.045,15.579-47.931,24.021-4.413-3.064-6.964-6.812-6.834-10.821.335-9.647,16.052-16.736,35.269-16.247C195.77,243.658,202.808,244.57,208.208,246.51Z" transform="translate(-1.819 -2.884)" fill="#fff" opacity="0.2"/>
      <path id="Path_194" data-name="Path 194" d="M219.6,262.07c-.28,8.54-14.3,15.124-31.3,14.683s-30.54-7.708-30.241-16.263c.019-.245.019-.489.055-.733.951,8.018,13.985,14.634,30.186,15.057,16.479.44,30.166-5.736,31.228-13.9A4.755,4.755,0,0,1,219.6,262.07Z" transform="translate(-1.873 -3.077)" fill="#fff" opacity="0.6"/>
      <path id="Path_195" data-name="Path 195" d="M224.23,255.468l-9.013-8.2-25.977-5.622-26.313,4.269-9.535,7.709-2.476,4.807,3.762,1.157s4.432-15.644,34.468-14.862c30.018.766,33.408,16.622,33.408,16.622l3.836-.961Z" transform="translate(-1.789 -2.862)" fill="#5624c1"/>
      <path id="Path_196" data-name="Path 196" d="M227.7,261.462a11.189,11.189,0,0,1-.54,3.032c-3.185,9.728-19.925,16.817-39.832,16.313s-36.126-8.458-38.659-18.333a10.492,10.492,0,0,1-.335-3.047c.373-11.245,18.454-19.914,40.371-19.344C210.625,240.636,228.073,250.218,227.7,261.462Zm-6.312-.146a10.568,10.568,0,0,0-2.607-6.991c-4.972-6.144-16.555-10.641-30.2-11-13.631-.359-25.492,3.536-30.874,9.419a10.706,10.706,0,0,0-3.073,6.845c-.316,9.452,14.358,17.518,32.793,17.99C205.876,278.053,221.072,270.768,221.388,261.316Z" transform="translate(-1.758 -2.844)" fill="#81c5e8"/>
      <path id="Path_197" data-name="Path 197" d="M227.7,261.462a11.189,11.189,0,0,1-.54,3.032c-3.185,9.728-19.925,16.817-39.832,16.313s-36.126-8.458-38.659-18.333a10.492,10.492,0,0,1-.335-3.047c.373-11.245,18.454-19.914,40.371-19.344C210.625,240.636,228.073,250.218,227.7,261.462Zm-6.312-.146a10.568,10.568,0,0,0-2.607-6.991c-4.972-6.144-16.555-10.641-30.2-11-13.631-.359-25.492,3.536-30.874,9.419a10.706,10.706,0,0,0-3.073,6.845c-.316,9.452,14.358,17.518,32.793,17.99C205.876,278.053,221.072,270.768,221.388,261.316Z" transform="translate(-1.758 -2.844)" fill="#80b4ff"/>
      <path id="Path_198" data-name="Path 198" d="M233.2,285.986l-.764.977h-.018l-3.408,4.4-.876,1.125-14.915-8.148a2.667,2.667,0,0,1-.541-.293,2.742,2.742,0,0,1-1.024-1.254,2.882,2.882,0,0,1-.224-.8,4.136,4.136,0,0,1,.484-2.591,4.858,4.858,0,0,1,2.551-2.216,4.057,4.057,0,0,1,1.695-.227,3.3,3.3,0,0,1,.968.227c.055.017.112.049.168.065l.2.115c.019.016.055.033.074.048Z" transform="translate(-2.505 -3.281)" fill="#cdd5f7"/>
      <path id="Path_199" data-name="Path 199" d="M233.232,285.986l-.764.977h-.018L214.5,277.218a4.074,4.074,0,0,1,1.695-.228,3.333,3.333,0,0,1,.968.228c.055.017.112.049.168.065l.2.115c.019.016.055.033.074.048Z" transform="translate(-2.542 -3.281)" fill="#fff"/>
      <path id="Path_200" data-name="Path 200" d="M229.044,291.441l-.876,1.125-14.915-8.148a2.9,2.9,0,0,1-1.564-1.548,2.875,2.875,0,0,1-.224-.8Z" transform="translate(-2.506 -3.341)" fill="#b4bbe1"/>
      <path id="Path_201" data-name="Path 201" d="M280.837,308.86l-2.16,3.341-5.568,8.588-45.381-24.543h-.019a4.053,4.053,0,0,1-.931-.522,4.951,4.951,0,0,1-1.806-2.183,6.788,6.788,0,0,1,.448-5.916,7.969,7.969,0,0,1,1.527-2V285.6a7.6,7.6,0,0,1,5.866-2.232,5.313,5.313,0,0,1,1.676.407,2.145,2.145,0,0,1,.28.13l.354.2a.8.8,0,0,1,.13.065c.037.016.055.048.093.065Z" transform="translate(-2.66 -3.356)" fill="#5624c1"/>
      <path id="Path_202" data-name="Path 202" d="M280.866,308.86l-2.16,3.341-5.457-1.435-46.274-25.129V285.6a7.6,7.6,0,0,1,5.866-2.232,5.313,5.313,0,0,1,1.676.407,2.143,2.143,0,0,1,.28.13l.354.2a.8.8,0,0,1,.13.065c.037.016.055.048.093.065Z" transform="translate(-2.69 -3.356)" fill="#80b4ff"/>
      <path id="Path_203" data-name="Path 203" d="M283.681,317.765c-1.88,3.439-5.94,5.15-9.068,3.847h-.019a5.309,5.309,0,0,1-.95-.522,5.222,5.222,0,0,1-1.806-2.184,6.752,6.752,0,0,1,.447-5.9,7.952,7.952,0,0,1,7.393-4.253,5.314,5.314,0,0,1,1.676.407,2.149,2.149,0,0,1,.28.13l.354.2a.744.744,0,0,1,.129.065C284.668,311.132,285.395,314.62,283.681,317.765Z" transform="translate(-3.216 -3.657)" fill="#5624c1"/>
      <path id="Path_204" data-name="Path 204" d="M331.959,411.629v1.711a3.026,3.026,0,0,0,.168.994v.016a1.046,1.046,0,0,0,.093.212c.038.048.056.114.112.211a.784.784,0,0,1,.13.211c.112.115.2.261.335.408.056.081.112.146.168.228a1.5,1.5,0,0,0,.186.146,3.749,3.749,0,0,1,.28.261,8.679,8.679,0,0,0,2.1,1.238c2.979,1.3,6.126,2.266,8.323,3.406.708.375,2.663,1.516,2.663,1.516a32.732,32.732,0,0,0,2.83,1.793,13.238,13.238,0,0,0,6.76,1.58c2.682-.26,3.966-1.76,4.1-2.672l-.038-1.434-9.963-3.243Z" transform="translate(-3.933 -4.876)" fill="#3a3a3a"/>
      <path id="Path_205" data-name="Path 205" d="M349.408,411.2a80.482,80.482,0,0,1-8.045-.864c-4.99-.75-8.417-.961-9.068.407-.633,1.32-.764,2.738,3.687,5.394,4.451,2.673,7.9,2.95,11.471,5.46a13.682,13.682,0,0,0,7.672,2.461c2.663.163,4.451-.733,5.028-1.679,1.341-2.2-.055-6.372-.055-6.372Z" transform="translate(-3.934 -4.854)" fill="#5624c1"/>
      <path id="Path_206" data-name="Path 206" d="M313.717,422.25v1.58a1.932,1.932,0,0,0,1.173,1.744,32.991,32.991,0,0,0,10.335,2.689c4.991.539,6.685.717,6.685.717s2.179.146,3.743.309c1.583.18,4.171.115,5.307-.749.28-.228.465-.391.633-.539a.048.048,0,0,1,.019-.033.206.206,0,0,1,.037-.048.962.962,0,0,0,.206-.261,2.874,2.874,0,0,0,.242-.814v-.082l-.019-.652v-.292l-3.669-.228h-.019l-1.806-.115-1.694-.1-1.564-.1Z" transform="translate(-3.717 -5.002)" fill="#3a3a3a"/>
      <path id="Path_207" data-name="Path 207" d="M328.335,418.16a8.486,8.486,0,0,1-4.748,1.793c-2.57,0-7.579-.048-8.864.733a1.834,1.834,0,0,0-1.006,1.4,2.631,2.631,0,0,0,.689,1.744c.968,1.238,7.449,3.1,12.328,3.422,4.879.343,5.139.278,7.449.62s4.711.489,6.163-.13c2.514-1.092,2.682-4.416,1.154-6.617C339.954,418.943,328.335,418.16,328.335,418.16Z" transform="translate(-3.717 -4.953)" fill="#5624c1"/>
      <path id="Path_208" data-name="Path 208" d="M355.193,257.022l.39.815-.615,2.673-9.757,4.3-.577-.065-1.564-.163-2.459-.277v-2.965a3.89,3.89,0,0,0-2.533-3.6.567.567,0,0,0-.112-.049,4.814,4.814,0,0,1-1.657-.977l-.149-.13c-1.88-1.744-3.556-5.671-3.072-14.243a14.6,14.6,0,0,1,1.266-5.41c1.415-2.379,4.432-3.961,10.651-2.477,10.373,2.51,14.9,6.633,15.419,10.186C360.965,248.189,355.193,257.022,355.193,257.022Z" transform="translate(-3.946 -2.77)" fill="#ffd1a4"/>
      <path id="Path_209" data-name="Path 209" d="M340.691,264.576V261.61a3.891,3.891,0,0,0-2.532-3.6c.5.2,2.085.864,4.171,1.842.838.391.819,2.754.819,5Z" transform="translate(-4.007 -3.056)" fill="#f2ba88"/>
      <path id="Path_210" data-name="Path 210" d="M332.29,275.892l-14.842-7.642.968,6.779,8.734,8.214Z" transform="translate(-3.762 -3.178)" fill="#ffd1a4"/>
      <path id="Path_211" data-name="Path 211" d="M323.542,280.2l-18.621,8.377a1.121,1.121,0,0,1-1.528-.57l-9.05-25.358a1.9,1.9,0,0,1,1.1-2.346l17.3-7.774a1.724,1.724,0,0,1,2.328.913l9.106,25.487A1.079,1.079,0,0,1,323.542,280.2Z" transform="translate(-3.487 -2.99)" fill="#0a2982"/>
      <path id="Path_212" data-name="Path 212" d="M322.5,279.515l-16.965,7.676a.851.851,0,0,1-1.154-.424l-8.492-23.728c-.335-1.125-.279-1.614,1.006-2.168l16.144-7.3a.747.747,0,0,1,1.025.407l8.826,24.706A.638.638,0,0,1,322.5,279.515Z" transform="translate(-3.504 -3.003)" fill="#5624c1"/>
      <g id="Group_1" data-name="Group 1" transform="translate(294.284 252.541)" opacity="0.5">
        <path id="Path_213" data-name="Path 213" d="M297.813,262.314l.335.913,14.935-6.747-.3-.864c0-.016-.019-.033-.019-.048Z" transform="translate(-297.813 -255.568)" fill="#6ce3ff" opacity="0.5"/>
        <path id="Path_214" data-name="Path 214" d="M298.924,265.333l.317.9,14.934-6.714-.316-.9Z" transform="translate(-297.826 -255.604)" fill="#6ce3ff" opacity="0.5"/>
        <path id="Path_215" data-name="Path 215" d="M300,268.35l.317.913,14.972-6.73-.354-.913Z" transform="translate(-297.839 -255.64)" fill="#6ce3ff" opacity="0.5"/>
        <path id="Path_216" data-name="Path 216" d="M301.072,271.368l.336.913,14.953-6.747-.335-.9Z" transform="translate(-297.852 -255.675)" fill="#6ce3ff" opacity="0.5"/>
        <path id="Path_217" data-name="Path 217" d="M302.165,274.419l.317.9,14.953-6.746-.316-.9Z" transform="translate(-297.865 -255.711)" fill="#6ce3ff" opacity="0.5"/>
        <path id="Path_218" data-name="Path 218" d="M303.239,277.421l.317.9,14.972-6.714-.316-.912Z" transform="translate(-297.877 -255.747)" fill="#6ce3ff" opacity="0.5"/>
        <path id="Path_219" data-name="Path 219" d="M304.314,280.455l.335.9,14.953-6.73-.316-.9Z" transform="translate(-297.89 -255.783)" fill="#6ce3ff" opacity="0.5"/>
        <path id="Path_220" data-name="Path 220" d="M305.407,283.473l.316.913,14.953-6.747-.316-.912Z" transform="translate(-297.903 -255.819)" fill="#6ce3ff" opacity="0.5"/>
      </g>
      <path id="Path_221" data-name="Path 221" d="M308.215,283.971,304.88,286.4l-.632.457s-.764-2.8-2.124-3.863a9.4,9.4,0,0,0-2.588-1.027,2.133,2.133,0,0,1-1.118-.651,6.5,6.5,0,0,1-1.117-5.46,3.389,3.389,0,0,1,.428-1.238l.019-.017a1.17,1.17,0,0,1,.931-.6s2.253,1.4,2.905,1.825c.54.342,1.229,1.027,1.75.522.28-.261-1.359-2.086-1.824-2.917-.448-.831.428-1.727.819-1.418a20.337,20.337,0,0,1,3.63,5.019A71.29,71.29,0,0,1,308.215,283.971Z" transform="translate(-3.521 -3.221)" fill="#ffd1a4"/>
      <path id="Path_222" data-name="Path 222" d="M305.644,284.362l-.764,2.086-.632.456s-.764-2.8-2.124-3.862a9.341,9.341,0,0,0-2.588-1.027,2.141,2.141,0,0,1-1.118-.652,6.5,6.5,0,0,1-1.117-5.46,3.389,3.389,0,0,1,.428-1.238l.019-.016s.019.5.95,1.238a22.956,22.956,0,0,0,2.942,1.727,8.112,8.112,0,0,1,2.273,2.982C304.564,281.917,305.644,284.362,305.644,284.362Z" transform="translate(-3.521 -3.253)" fill="#f2ba88"/>
      <path id="Path_223" data-name="Path 223" d="M365.306,339.288c-2.308,11.049-3.966,24.754-3.966,24.754s3.855,27.443-.484,51.35c-.186,1.125-.632,3.52-2.29,4.449a7.012,7.012,0,0,1-5.364-.033c-.074-.048-.167-.065-.242-.114-6.48-3.1-5.791-7.122-6.722-9.762.019-10.641,1.286-36.8-1.285-42.55l-2.309-23.19.838-16.573h23.184v.049l.112-.049C366.778,327.637,368.752,332.086,365.306,339.288Z" transform="translate(-4.06 -3.881)" fill="#3a3a3a"/>
      <path id="Path_224" data-name="Path 224" d="M358.23,339.745c-2.179,6.274-4.991,22.685-5.587,26.677,0,0,2.16,31.582.317,53.289-6.48-3.1-5.792-7.122-6.722-9.762.019-10.641,1.285-36.8-1.285-42.549l-2.309-23.19.838-16.573h15.94A27.124,27.124,0,0,1,358.23,339.745Z" transform="translate(-4.06 -3.881)" fill="#2d2d2d"/>
      <path id="Path_225" data-name="Path 225" d="M356.515,333.174a30.046,30.046,0,0,1-5.009,10.609c-.447.587-.838,1.19-1.229,1.792-.074.277-1.211,3.993-2.607,8.979-1.415,4.987-3.11,11.228-4.32,16.558.67,6.665,2.551,30.034-1.042,50.274a3.931,3.931,0,0,1-3.054,3.015,8.9,8.9,0,0,1-2.551.244,7.535,7.535,0,0,1-2.141-.44c-3.8-1.4-6.536-6.715-6.536-6.715s-.094-33.6-2.086-42.419a33.949,33.949,0,0,1-.708-5.1c-.373-5.393-1.042-15.253-1.248-19.376a150.471,150.471,0,0,1-.148-17.73l18.993.211Z" transform="translate(-3.835 -3.943)" fill="#3a3a3a"/>
      <path id="Path_226" data-name="Path 226" d="M342.846,333.026c-.093.994-.167,1.646-.167,1.646a36.794,36.794,0,0,1-2.608,10.463c-2.421,6.274-4.823,21.169-5.083,26.758-.261,5.133,2.868,29.611,1.695,52.7a7.536,7.536,0,0,1-2.142-.441c-3.8-1.4-6.536-6.714-6.536-6.714s-.093-33.6-2.086-42.419a34.1,34.1,0,0,1-.708-5.1c-.373-5.394-1.043-15.253-1.247-19.377a150.342,150.342,0,0,1-.149-17.73Z" transform="translate(-3.835 -3.942)" fill="#2d2d2d"/>
      <path id="Path_227" data-name="Path 227" d="M368.8,285.395c-3.053,8.132-4.786,21.511-2.942,27.084a91.1,91.1,0,0,1,2.942,13.494c-1.731,4.188-17.932,13.265-26.983,13.949a15.009,15.009,0,0,1-3.314-.114c-7.952-1.027-15.419-7.219-15.419-7.219s1.713-22.912,2.794-37.563c.726-9.745,2.365-15.808,3.389-18.79a18.36,18.36,0,0,1,.856-2.2c.951-1.108,3.818-2.965,7.449-5.068a.147.147,0,0,0,.075-.033c2.439-1.417,5.214-2.933,8.007-4.367h.019c3.724-1.923,7.467-3.732,10.466-5.036.354-.147.689-.293,1-.424a26.3,26.3,0,0,1,4.6-1.646c4.264-.7,9.963,1.272,11.694,8.018C375.168,272.26,371.835,277.246,368.8,285.395Z" transform="translate(-3.828 -3.048)" fill="#5624c1"/>
      <path id="Path_228" data-name="Path 228" d="M337.534,312.608c-.541,6.258.539,21.853.95,27.443-7.952-1.027-15.419-7.219-15.419-7.219s1.713-22.912,2.793-37.563c.726-9.745,2.365-15.807,3.389-18.79.857-.864,1.415-1.418,1.415-1.418h10.484s5.456.977,3.482,11.847C342.635,297.778,338.185,304.932,337.534,312.608Z" transform="translate(-3.828 -3.258)" fill="#205ce2" opacity="0.75"/>
      <path id="Path_229" data-name="Path 229" d="M357.371,262.585c-1.6,1.907-7.318,4.677-9.944,5.166a26.836,26.836,0,0,1-6,.228,8.581,8.581,0,0,0-3.613,1.01c-.038.017-.056.033-.074.033a.062.062,0,0,1-.038.017l1.564-2.086,1.825-1.011s2.662-.847,3.258-1.092a8.671,8.671,0,0,1,1.49-.227h.019c1.583-.163,3.836-.31,4.19-.343a50.681,50.681,0,0,0,4.786-2.624c.093-.048.912-1.222,1.49-2.069.354-.147.689-.293,1-.424A2.433,2.433,0,0,1,357.371,262.585Z" transform="translate(-4.002 -3.07)" fill="#5624c1"/>
      <path id="Path_230" data-name="Path 230" d="M363.182,244.879c-.894,4.661-5.4,11.994-7.691,12.662a15.172,15.172,0,0,1-3.762.636,3.521,3.521,0,0,1-3.706-2.575,13.521,13.521,0,0,0-1.545-4.22c-1.6-2.575-3.687-3.928-4.73-3.456-1.061.473-.95,2.135-.95,2.135l-.689-.017s-.055-.538-.167-1.238c-.075-.7-.168-1.6-.206-2.282a7.248,7.248,0,0,0-1.825-4.824,19.018,19.018,0,0,1-2.55-4.123,6.72,6.72,0,0,1-.633-3.683v-.017a7.531,7.531,0,0,1,3.687-6.078c5.158-3.308,15.94,2.836,19.925,5.769a12.177,12.177,0,0,1,4.469,5.557v.016A10.375,10.375,0,0,1,363.182,244.879Z" transform="translate(-3.966 -2.687)" fill="#713e23"/>
      <path id="Path_231" data-name="Path 231" d="M356.626,258.922l-.987-.8a24.584,24.584,0,0,1-14.953,6.454,11.1,11.1,0,0,0-3,4.449l1.36-.766a6.44,6.44,0,0,1,2.346-.8c.541-.065,1.713-.13,1.713-.13,5.325-.065,10.633-3.325,13.389-5.329A1.871,1.871,0,0,0,356.626,258.922Z" transform="translate(-4.001 -3.058)" fill="#fff"/>
      <path id="Path_232" data-name="Path 232" d="M332.467,415.455a2.857,2.857,0,0,0,.336.424C332.673,415.716,332.561,415.585,332.467,415.455Z" transform="translate(-3.939 -4.921)" fill="#474747"/>
      <path id="Path_233" data-name="Path 233" d="M332.975,416.1a1.656,1.656,0,0,1-.168-.211,3,3,0,0,0,.354.375A1.62,1.62,0,0,1,332.975,416.1Z" transform="translate(-3.943 -4.926)" fill="#474747"/>
      <path id="Path_234" data-name="Path 234" d="M303.767,285.459v.017c.149.375,1.657,4.644,2.569,7.316.875,2.575,3.762,11.913,6.09,16.362a.636.636,0,0,0,.112.228,5.418,5.418,0,0,1,.316.554.594.594,0,0,0,.112.211c0,.017.019.017.019.033a3.991,3.991,0,0,1,.261.489,6.1,6.1,0,0,0,4.525,2.819h.242c3.2,0,10.857-12.043,13.129-15.727-.931-.5-2.067-1.14-3.3-1.923a25.611,25.611,0,0,1-6.517-5.7c-1.136,2.216-3.464,5.508-4.488,7.627,0,0-.13-.277-.316-.766a43.768,43.768,0,0,0-4.545-7.479,31.709,31.709,0,0,1-4.264-7.5c0,.13-.112.506-1.266.636a2.23,2.23,0,0,0-1.174.733,10.814,10.814,0,0,0-1.061,1.32,1.042,1.042,0,0,0-.13.162A3.023,3.023,0,0,0,303.767,285.459Z" transform="translate(-3.6 -3.341)" fill="#ffd1a4"/>
      <path id="Path_235" data-name="Path 235" d="M303.767,285.475v.017c.149.374,1.657,4.644,2.569,7.316.875,2.575,3.762,11.913,6.09,16.362a.636.636,0,0,0,.112.228,5.521,5.521,0,0,1,.316.554.594.594,0,0,0,.112.211c0,.017.019.017.019.033a4.061,4.061,0,0,1,.261.489,6.1,6.1,0,0,0,4.525,2.819h.242c3.2,0,10.857-12.043,13.129-15.727-.931-.5-2.067-1.14-3.3-1.923-2.253,3.651-8.826,14.113-11.285,14.1-1.173,0-3.613-6.763-5.4-10.8s-5.866-15.742-5.866-15.742a10.706,10.706,0,0,0-1.061,1.32.955.955,0,0,0-.13.163A2.338,2.338,0,0,0,303.767,285.475Z" transform="translate(-3.6 -3.357)" fill="#f2ba88"/>
      <path id="Path_236" data-name="Path 236" d="M319.955,290.525c2.775,3.618,7.821,6.665,10.5,8.132.82.457,1.471.766,1.881.945.558-.766,8.883-12.221,9.757-16.215a3.492,3.492,0,0,0,.206-.766c1.1-5.3-.764-7.187-1.006-7.431a1.313,1.313,0,0,1-.149-.163c-3.761-3.944-9.832-4.074-13.37,1.743C326.137,279.46,322.823,284.838,319.955,290.525Z" transform="translate(-3.791 -3.225)" fill="#5624c1"/>
      <path id="Path_237" data-name="Path 237" d="M363.182,244.963c-.894,4.661-5.4,11.994-7.691,12.663a15.213,15.213,0,0,1-3.762.635,3.521,3.521,0,0,1-3.706-2.575,13.521,13.521,0,0,0-1.545-4.22c-1.6-2.575-3.687-3.928-4.73-3.456-1.061.473-.95,2.135-.95,2.135l-.689-.017s-.055-.538-.167-1.238c-.075-.7-.168-1.6-.206-2.282a7.244,7.244,0,0,0-1.825-4.823,19.055,19.055,0,0,1-2.55-4.124,6.72,6.72,0,0,1-.633-3.683c.5,1.125,4.8,9.891,16.815,12.092,12.532,2.3,11.359-6.4,11.266-6.845A10.375,10.375,0,0,1,363.182,244.963Z" transform="translate(-3.966 -2.772)" fill="#442312"/>
      <path id="Path_238" data-name="Path 238" d="M329.933,328.052c1.024,1.646,4.636,3.993,8.9,3.471.763-.1,1.564-.228,2.365-.391a1.512,1.512,0,0,1,.242-.033c8.939-1.809,20.707-7.268,23.78-11.114,3.948-4.938.055-31.713-6.015-41.931v-.016a6.961,6.961,0,0,0-6.443-3.324s-11.881,3.911-15.642,7.953C333.341,286.692,326.749,322.919,329.933,328.052Z" transform="translate(-3.899 -3.254)" fill="#fbc006"/>
      <path id="Path_239" data-name="Path 239" d="M329.933,328.052c1.024,1.646,4.636,3.993,8.9,3.471.764-.1,1.564-.228,2.366-.391-2.794.652-4.935-2.167-4.935-4.123,0-1.94,2.811-31.778,6.015-40.106.95-2.46,13.091-7.316,16.908-8.865a6.961,6.961,0,0,0-6.443-3.324s-11.881,3.911-15.642,7.953C333.34,286.692,326.748,322.919,329.933,328.052Z" transform="translate(-3.899 -3.254)" fill="#ffd04d"/>
      <path id="Path_240" data-name="Path 240" d="M348,276.707s-2.5-4.172-5.457-5.834a10.159,10.159,0,0,0-5.866-1.272l-4.413,2.754a10.227,10.227,0,0,1,5.344,1.727c1.676,1.076,4.432,5.281,4.432,5.281Z" transform="translate(-3.937 -3.193)" fill="#ffd04d"/>
      <path id="Path_241" data-name="Path 241" d="M324.773,309.017a12.338,12.338,0,0,0,5.884,7.791l-.838,5.915s-2.793-1.451-5.586-6.649Z" transform="translate(-3.842 -3.661)" fill="#ffd04d"/>
    </g>
  </g>
</svg>
