<?xml version="1.0" encoding="UTF-8"?><svg id="_Слой_1" xmlns="http://www.w3.org/2000/svg" viewBox="0 0 2562.41 1651.5"><defs><style>.cls-1{fill:#494c7f;}.cls-2{fill:#fff;}.cls-3{fill:#b0173e;}.cls-4{fill:#de623c;}.cls-5{fill:#062440;}.cls-6{fill:#4364cc;}.cls-7{fill:#3f964f;}.cls-8{fill:#c4204a;}.cls-9{fill:#768fdb;}.cls-10{fill:#2c2858;}.cls-11{fill:#f57191;}.cls-12{fill:#de6280;}.cls-13{fill:#607fdb;}.cls-14{fill:#f5a3b7;}.cls-15{fill:#f3c8b9;}.cls-16{fill:#f37a50;}.cls-17{fill:#e62552;}.cls-18{fill:#0e6a41;}.cls-19{fill:#f3dad1;}.cls-20{fill:#f3ae9c;}.cls-21{fill:#e3eaff;}.cls-22{fill:#a11a3d;}</style></defs><path class="cls-21" d="m86.49,1604.11c-150.17-168.73-76.03-349.14,6.77-535.95,30.04-67.77-44.25-136.63-63.26-208.28-54.69-206.15,110.84-431.6,258.15-468.19,174.58-43.36,285.97-64.81,360-116.36C739.31,211.85,817.35,20.46,1164.62,2c473.67-25.17,412.72,195.11,659.35,208.33,635.29,34.05,412.25,376.38,516.42,590.72,65.5,209.37,190.71,95.1,216.74,306.1,21.66,175.56-29.58,355.17-40.69,529.18l-2429.95-32.22Z"/><polygon class="cls-2" points="596.58 732.43 548.71 1073.55 1347.34 1495.72 1556.98 865.07 923.44 567.39 596.58 732.43"/><path class="cls-9" d="m606.7,1571.37H202.62c0-39.96,32.39-72.35,72.35-72.35h259.38c39.96,0,72.35,32.39,72.35,72.35h0Z"/><rect class="cls-9" x="332.73" y="896.89" width="28.92" height="615.55" transform="translate(-160.85 58.52) rotate(-7.83)"/><rect class="cls-9" x="423.2" y="416.16" width="28.92" height="615.55" transform="translate(552.07 -114.24) rotate(38.93)"/><path class="cls-6" d="m339.97,903.94c-2.75,19.62-20.88,33.29-40.5,30.54-19.62-2.75-33.29-20.88-30.54-40.5,2.75-19.62,20.88-33.29,40.5-30.54,19.62,2.75,33.29,20.88,30.54,40.5Z"/><path class="cls-6" d="m727.13,473.6c-7.29,37.24-43.38,61.52-80.62,54.24-37.24-7.29-61.52-43.38-54.24-80.62,7.28-37.24,43.38-61.52,80.62-54.24,37.24,7.29,61.52,43.38,54.24,80.62Z"/><path class="cls-9" d="m923.44,567.39l-326.86,165.04c-4.24-8.4-7.95-16.9-11.16-25.46-37.25-99.49-5.4-206.97,77.7-248.94,82.03-41.43,185.79-4.75,244.18,81.84,5.86,8.68,11.26,17.86,16.13,27.52Z"/><path class="cls-6" d="m923.44,567.39l-326.86,165.04c-4.24-8.4-7.95-16.9-11.16-25.46l321.88-167.1c5.86,8.68,11.26,17.86,16.13,27.52Z"/><path class="cls-5" d="m1301.76,1102.43c-98.19-15.45-248.41-128.62-179.62-279.08,68.79-150.46,118.43-101.62,53.58-255.83-64.85-154.21,25.11-302.64,140.22-291.6,115.11,11.03,159.88,93.85,289.14,45.84,129.26-48.01,264.31,55.54,234.87,173.53-29.43,117.99-40.87,174.28,17.68,225.19,58.55,50.92,282.78,74.75,222.08,235.38-60.7,160.64-73.94,213.7-25.27,278.74,183,244.61-108.16,344.94-233.16,357.12-125,12.18-497.89-16.1-569.3-144.54-71.41-128.44,49.79-344.74,49.79-344.74Z"/><path class="cls-16" d="m1097.95,1165.58c13.7,34.24-55.91,138.94-86.9,134.61-142.55-74.44-271.63-296.63-271.63-296.63l42.22-58.98s146.41,107.99,316.31,220.99Z"/><path class="cls-16" d="m1451.91,1085.12c-84.24,71.31-401.9,223.76-440.86,215.08l24.32-147.85s293-200.73,345.75-232.71c91.22-55.59,208.54,49.32,70.79,165.48Z"/><path class="cls-16" d="m703.16,852.34c-8.49-8.06-61.24-23.29-74.72-20.2-15.69,3.51-59.38,30.81-68.65,36.56-9.27,5.75-2.32,14.44,12.75,15.27,19.54-.2,38.58-6.16,54.75-17.14,22.7,6.77,39.08,12.68,41.14,14.03,13.67,5.91,19.96,21.77,14.05,35.44-3.85,8.92-12.21,15.07-21.87,16.11l-2.29-.02c9.76,21.15,16.5,43.57,20.04,66.59,21.62,6.45,38.84,18.2,63.24,2.89l41.73-55.6c-7.19-17.05-66.37-81-80.17-93.94Z"/><path class="cls-10" d="m502,896.09l-7.66-1.33c-2.24-.39-3.83-2.39-3.71-4.66h0c.12-2.28,1.94-4.1,4.22-4.23l7.71-.45c2.62-.15,4.82,1.97,4.75,4.6l-.05,1.78c-.07,2.74-2.56,4.77-5.25,4.3Z"/><path class="cls-10" d="m865.29,898.97h30.13c1.29,0,2.33,1.05,2.33,2.33v12.83c0,1.29-1.05,2.33-2.33,2.33h-30.13c-1.29,0-2.33-1.05-2.33-2.33v-12.83c0-1.29,1.05-2.33,2.33-2.33Z" transform="translate(-1.47 1.43) rotate(-.09)"/><path class="cls-10" d="m879.79,896.74l-.37,11.81-.46,11.58c-.13,2.07-1.92,3.65-4,3.52l-276.41-12.78c-8.31-.43-98.72-9.36-97.98-14.55l.37-6.12.23-5.11c.15-3.99,90.49-5.61,98.87-5.34l275.71,13.06c2-.22,3.8,1.22,4.02,3.22.03.23.03.47,0,.7Z"/><path class="cls-16" d="m621.54,899.78c-8.83-4.81-22.78-8.96-32.6-6.77-31.95,8.67,2.03,26.58,11.6,38.01,9.8,11.72,29.44,69.13,119.9,78.21,3.97,4.13-28.97-82.86-49.42-79.98-20.11,2.84-40.93-24.56-49.48-29.46Z"/><path class="cls-4" d="m1638.48,772.95l-6.3,175.96s-91.62,65.45-162.47,21.85c10.9-54.5,25.74-144.14,25.74-144.14l143.03-53.67Z"/><path class="cls-8" d="m1468.55,889.94s-119.6,9.55-297.02,156.43c17.26,11.95,108.64,146.5,108.64,146.5l127.08-37.85,61.3-265.09Z"/><path class="cls-16" d="m1298.23,664.93c24.48,135.2,125.85,230.03,226.42,211.82,100.57-18.21,162.26-142.56,137.78-277.76-24.48-135.19-125.85-230.03-226.42-211.82-100.57,18.21-162.26,142.57-137.78,277.76Z"/><path class="cls-5" d="m1674.54,596.8c-102.85,5.35-206.46-33.75-272.36-96.58-18.78,90.78-103.96,164.71-103.96,164.71,0,0-100.81-148.89,13.44-259.74,109-105.75,415.34-102.44,362.87,191.61Z"/><path d="m1523,680.05c10.69-1.93,17.78-12.17,15.85-22.86-1.93-10.69-12.17-17.78-22.86-15.85-10.69,1.94-17.79,12.17-15.85,22.86,1.94,10.69,12.17,17.79,22.86,15.85Z"/><path d="m1380.93,703.95c10.69-1.94,17.78-12.17,15.85-22.86-1.93-10.69-12.17-17.78-22.86-15.85-10.69,1.94-17.79,12.17-15.85,22.86,1.94,10.69,12.17,17.79,22.86,15.85Z"/><path class="cls-4" d="m1442.04,687.04c-13.29,34.83-17.85,49.72-25.38,58.5,13.28,19.63,50.64,19.71,59.52,14.18-27.33-4.23-35.64-18.99-35.64-18.99l1.5-53.69Z"/><path class="cls-16" d="m1638.64,622.81c-16.08,30.21-10.97,64.35,11.41,76.28,22.39,11.92,53.57-2.9,69.66-33.11,16.08-30.21,10.97-64.36-11.41-76.28-22.39-11.92-53.57,2.9-69.66,33.11Z"/><path class="cls-4" d="m1667.29,676.59c.8-.15,1.59-.45,2.32-.92,2.91-1.9,3.73-5.8,1.83-8.72-6.32-9.67-7.95-18.09-4.83-25,4.81-10.67,19.68-16.39,30.93-18.04,3.44-.5,5.82-3.7,5.31-7.15-.5-3.44-3.7-5.82-7.15-5.32-15.1,2.22-33.69,10.04-40.58,25.33-3.43,7.62-5.22,20.23,5.77,37.06,1.43,2.18,3.98,3.19,6.4,2.75Z"/><path class="cls-5" d="m1324.42,651.96c.39-.63.86-1.23,1.41-1.79,23.87-24.14,47.34-28.31,48.33-28.48,5.45-.92,10.62,2.76,11.53,8.22.91,5.43-2.73,10.57-8.15,11.52-.49.09-18.59,3.73-37.47,22.82-3.89,3.93-10.22,3.97-14.16.08-3.38-3.34-3.88-8.49-1.49-12.37Z"/><path class="cls-5" d="m1500.08,598.36c.71-.24,1.45-.4,2.22-.48,33.79-3.35,54.51,8.42,55.38,8.92,4.78,2.78,6.41,8.9,3.63,13.68-2.76,4.76-8.85,6.39-13.63,3.66-.44-.24-16.69-9-43.41-6.35-5.5.54-10.4-3.47-10.95-8.98-.47-4.73,2.44-9.01,6.75-10.47Z"/><path class="cls-2" d="m1433.09,805.54c-3.28-3.28-1.83-9.21,2.35-9.55,10.65-.85,28.15-2.68,44.45-6.29,16.3-3.61,32.94-9.35,42.95-13.07,3.94-1.46,7.75,3.3,6.16,7.66-4.89,13.42-16.42,34.69-41.4,40.22-24.98,5.53-44.42-8.88-54.51-18.98Z"/><polygon class="cls-11" points="565.14 1253.99 526.56 1062.89 847.01 1216.26 617.92 1273.37 565.14 1253.99"/><polygon class="cls-19" points="576.92 1238.38 541.12 1069.59 557.99 1057.13 838.27 1194.19 576.92 1238.38"/><path class="cls-2" d="m571.74,1245.1c12.41-19.71,55.95-46.58,112.83-41.13,56.88,5.44,252.34-32.68,265.35-40.43,18.13,15.63,348.42,296.43,348.42,296.43l-13.72,24.89-712.87-239.76Z"/><polygon class="cls-11" points="1303.62 1489.93 1295.25 1504.84 948.41 1537.35 565.14 1253.99 573.51 1239.09 928.72 1191.67 1303.62 1489.93"/><polygon class="cls-14" points="1288.35 1500.27 933.15 1547.68 558.25 1249.42 913.45 1202 1288.35 1500.27"/><path class="cls-11" d="m798.58,1274.69c-4.5-42.39,51.11-30.13,64.81,7.08,11.83,32.11,9.72,56.3,7.68,73.36-155.98-20.35-132.64-112.66-72.49-80.45Z"/><path class="cls-11" d="m1012.27,1334.64c-1.76-16.56,19.96-11.77,25.31,2.77,4.62,12.54,3.8,21.99,3,28.65-60.92-7.95-51.8-44-28.31-31.42Z"/><path class="cls-11" d="m856.18,1402.53c-1.76-16.56,19.96-11.77,25.31,2.77,4.62,12.54,3.8,21.99,3,28.65-60.92-7.95-51.8-44-28.31-31.42Z"/><path class="cls-11" d="m762.74,1368.87c-1.76-16.55,19.96-11.77,25.31,2.77,4.62,12.54,3.8,21.99,3,28.65-60.92-7.95-51.8-44-28.32-31.42Z"/><path class="cls-11" d="m924.98,1313.71c-1.76-16.56,19.96-11.77,25.31,2.77,4.62,12.54,3.8,21.99,3,28.65-60.92-7.95-51.8-44-28.31-31.42Z"/><path class="cls-11" d="m1021.94,1413.35c-1.76-16.56,19.96-11.77,25.31,2.77,4.62,12.54,3.8,21.99,3,28.65-60.92-7.95-51.8-44-28.31-31.42Z"/><path class="cls-11" d="m1092.15,1402.53c-1.76-16.56,19.96-11.77,25.31,2.77,4.62,12.54,3.8,21.99,3,28.65-60.92-7.95-51.8-44-28.31-31.42Z"/><path class="cls-11" d="m1092.15,1470.57c-1.76-16.55,19.96-11.77,25.31,2.77,4.62,12.54,3.8,21.99,3,28.65-60.92-7.95-51.8-44.01-28.31-31.42Z"/><path class="cls-11" d="m1167.5,1470.57c-1.76-16.55,19.96-11.77,25.31,2.77,4.62,12.54,3.8,21.99,3,28.65-60.92-7.95-51.8-44.01-28.31-31.42Z"/><path class="cls-17" d="m1742.43,1517.49c-5.85-36.82-14.18-101.95-2.58-164.97,28.01-129.76,96.04-320.43,59.2-428.66-24.64-32.11-130.46-65.77-161.64-63.91-14.85,67.32-143.17,173.24-152.19,25.7-86.04,15.93-153.05,156.46-168.18,250.52-4.88,71.2,17.33,146.14,22.74,218.06,13.44,106.36-18.78,158.99-42.96,265.92l498.13-1.69c-29.02-66.46-50.09-93.13-52.52-100.99Z"/><path class="cls-16" d="m1501.21,1401.48c38.75,15.37,55.56,140.45,44.08,149.43-171.9,59.14-426.07-13.62-426.07-13.62l-7.97-75.57c50.3-2.77,165.16-8.64,389.96-60.24Z"/><path class="cls-16" d="m1836.02,1117.1c-43.01,113.81-248.54,421.33-290.73,433.81l-85.26-131.54s185.48-364.81,219.21-423.86c58.16-102.4,227.37-64.08,156.79,121.59Z"/><path class="cls-8" d="m1764.83,889.43c18.54.92,111.29-1.23,105.47,171.06,2.38,70.62-65.69,196.74-65.69,196.74,0,0-131.27-38.43-223.73-112.38,2.07-36.43,92.89-246.76,183.95-255.43Z"/><path class="cls-16" d="m956.78,1518.3c26.75,3.65,105.27,7.89,162.44,18.99l-7.97-75.57c-42.13,2.23-101.51-74.14-184.92-86.58-28.45-4.24-41.43-8.59-43.95-4.94-2.52,3.65-11.43,28.56,29.66,36.65,51.56,10.15,13.9,49.15-88.68,1.64-25.68-11.89-76.39-2.76-59.85,17.9,18.23,22.77,71.56,75.27,193.25,91.9Z"/><path class="cls-1" d="m53.24,1570.24h2460.86c22.06,0,39.97,17.91,39.97,39.97v1.32c0,22.06-17.91,39.97-39.97,39.97H53.24c-22.06,0-39.97-17.91-39.97-39.97v-1.32c0-22.06,17.91-39.97,39.97-39.97Z"/><path class="cls-22" d="m2316.14,1482.61h-397.23c-6.96,0-12.61,4.86-12.61,10.86v65.99c0,6,5.65,10.86,12.61,10.86h397.23v-87.71Z"/><path class="cls-8" d="m2329.79,1499.71v53.3c0,1.94,1.66,3.53,3.69,3.53h140.86c3.96,0,7.17,3.07,7.17,6.87h0c0,3.79-3.21,6.87-7.17,6.87h-155.92c-4.26,0-7.72-3.46-7.72-7.72v-72.39c0-4.26,3.46-7.72,7.72-7.72h155.92c3.96,0,7.17,3.08,7.17,6.87v.04c0,3.79-3.21,6.87-7.17,6.87h-140.89c-2.01,0-3.65,1.57-3.65,3.5Z"/><path class="cls-2" d="m2333.62,1496.2h134.21v60.34h-134.21c-3.86,0-6.99-3.13-6.99-6.99v-46.37c0-3.86,3.13-6.99,6.99-6.99Z"/><rect class="cls-21" x="2339.17" y="1506.51" width="104.35" height="5.43"/><rect class="cls-21" x="2396.65" y="1520.18" width="65.18" height="5.43"/><rect class="cls-21" x="2332.05" y="1546.14" width="84.28" height="5.43"/><rect class="cls-21" x="2350.72" y="1533.73" width="39.51" height="5.43"/><path class="cls-8" d="m1954.11,1501.52h301.41c5.61,0,10.16,4.55,10.16,10.16v29.57c0,5.61-4.55,10.16-10.16,10.16h-301.41c-5.61,0-10.16-4.55-10.16-10.16v-29.57c0-5.61,4.55-10.16,10.16-10.16Z"/><path class="cls-14" d="m2092.58,1319h408.64c6.65,0,12.03,5.39,12.03,12.03v61.56c0,6.65-5.39,12.03-12.03,12.03h-408.64v-85.63Z"/><path class="cls-11" d="m2079.25,1335.69v52.04c0,1.9-1.62,3.45-3.6,3.45h-137.51c-3.87,0-7,3-7,6.7h0c0,3.7,3.14,6.71,7,6.71h152.22c4.16,0,7.54-3.37,7.54-7.54v-70.68c0-4.16-3.37-7.54-7.54-7.54h-152.22c-3.87,0-7,3-7,6.71v.04c0,3.7,3.14,6.7,7,6.7h137.55c1.96,0,3.57,1.54,3.57,3.41Z"/><path class="cls-2" d="m1951.37,1332.27h133.33v58.91h-133.33c-3.8,0-6.88-3.08-6.88-6.88v-45.15c0-3.8,3.08-6.88,6.88-6.88Z" transform="translate(4029.19 2723.45) rotate(180)"/><path class="cls-11" d="m2190.8,1319s16.35,36.8.27,85.63c7.33,0,21.28-.05,21.28-.05,0,0,17.37-37.74,0-85.58h-21.55Z"/><path class="cls-11" d="m2154.52,1319s16.35,36.8.28,85.63c7.33,0,21.28-.05,21.28-.05,0,0,17.37-37.74,0-85.58h-21.56Z"/><rect class="cls-21" x="1996.9" y="1340.72" width="73.56" height="5.41"/><rect class="cls-21" x="1981.99" y="1377.69" width="73.56" height="5.42"/><rect class="cls-21" x="2008.49" y="1366.45" width="73.56" height="5.41"/><path class="cls-7" d="m2282.34,1231.34h-405.91c-6.96,0-12.61,4.86-12.61,10.86v65.99c0,6,5.65,10.86,12.61,10.86h405.91v-87.71Z"/><path class="cls-18" d="m2295.99,1248.44v53.3c0,1.94,1.66,3.53,3.69,3.53h140.86c3.96,0,7.18,3.08,7.18,6.87h0c0,3.79-3.21,6.87-7.18,6.87h-155.92c-4.26,0-7.72-3.46-7.72-7.72v-72.39c0-4.26,3.46-7.72,7.72-7.72h155.92c3.96,0,7.18,3.08,7.18,6.87v.03c0,3.8-3.21,6.87-7.18,6.87h-140.89c-2.01,0-3.65,1.57-3.65,3.5Z"/><path class="cls-2" d="m2299.82,1244.93h134.21v60.34h-134.21c-3.86,0-6.99-3.13-6.99-6.99v-46.37c0-3.86,3.13-6.99,6.99-6.99Z"/><path class="cls-18" d="m1948.43,1231.34s-16.35,37.69-.27,87.71c-7.33,0-21.28-.05-21.28-.05,0,0-17.37-38.65,0-87.67h21.55Z"/><path class="cls-18" d="m2199.53,1231.34s-16.35,37.69-.27,87.71c-7.33,0-21.28-.05-21.28-.05,0,0-17.37-38.65,0-87.67h21.55Z"/><rect class="cls-21" x="2305.37" y="1255.24" width="104.35" height="5.43"/><rect class="cls-21" x="2362.85" y="1268.91" width="65.18" height="5.43"/><rect class="cls-21" x="2298.25" y="1294.87" width="84.28" height="5.43"/><rect class="cls-21" x="2316.92" y="1282.47" width="39.51" height="5.42"/><polygon class="cls-17" points="2356.24 1331.04 2333.4 1320.45 2312.75 1331.04 2312.75 1275.19 2356.24 1275.19 2356.24 1331.04"/><path class="cls-6" d="m1872.42,1482.01l274.69,1.95.41-80.6-274.69-1.95c-6.25-.03-11.34,5.01-11.38,11.26l-.3,57.97c-.03,6.25,5.01,11.34,11.26,11.38Z"/><path class="cls-2" d="m2140.49,1469.56l299.64-.3-.11-50.02-296.04-2.75c-1.47,0-6.17,4.15-6.18,5.26h0l.13,45.6c0,1.1,1.09,2.21,2.56,2.22h0Z"/><path class="cls-9" d="m2447.39,1484.74c4.4.39,8.08-2.53,8.84-6.94.39-4.41-2.53-8.1-6.92-8.86-.73,0-1.1,0-1.83-.01l-297.08.32c-3.3-.02-6.6-.04-9.9-.42-1.08-3.31-1.8-7-1.41-10.67l-.22-27.95c.02-3.31.03-6.62.79-9.93,3.67-1.08,7.34-1.43,11.01-1.05l297.08-.32c4.4.39,8.08-2.53,8.84-6.94.39-4.41-2.52-8.1-6.92-8.86-.73,0-1.1,0-1.83,0l-319.45-.16c-4.77-.02-8.82,4-8.85,8.78l.04,63.62c-.03,4.78,3.99,8.85,8.76,8.87l319.08.53Z"/><rect class="cls-21" x="2156.01" y="1449.3" width="160.43" height="4.88"/><rect class="cls-21" x="2183.79" y="1435.51" width="160.43" height="4.88"/><rect class="cls-21" x="2163.16" y="1425.24" width="68.87" height="4.88"/><rect class="cls-21" x="2264.01" y="1458.28" width="160.43" height="4.88"/><path class="cls-11" d="m288.15,1296.23c0-9.18-47.25-16.62-105.54-16.62s-105.54,7.44-105.54,16.62,47.25,16.62,105.54,16.62,105.54-7.44,105.54-16.62Z"/><polygon class="cls-3" points="153.83 1522.66 210.06 1088.65 249.72 1093.83 193.48 1527.85 153.83 1522.66"/><path class="cls-17" d="m151.06,1543.81l2.77-21.15,39.65,5.19-2.77,21.15c-.98,7.46-7.82,12.72-15.28,11.75l-12.62-1.65c-7.47-.98-12.73-7.82-11.75-15.29Z"/><rect class="cls-15" x="165.23" y="1496.85" width="19.08" height="40.03" transform="translate(1701.49 1540.27) rotate(97.45)"/><path class="cls-20" d="m152.92,1522.44l.11-.84c.08-.65.68-1.11,1.33-1.02l39.38,5.15c.65.08,1.1.68,1.02,1.33l-.11.84c-.08.65-.68,1.11-1.33,1.02l-39.38-5.15c-.65-.09-1.11-.68-1.02-1.33Z"/><path class="cls-20" d="m153.99,1513.32l.11-.84c.09-.65.68-1.1,1.33-1.02l39.37,5.15c.65.09,1.11.68,1.02,1.33l-.11.84c-.08.65-.68,1.1-1.33,1.02l-39.38-5.15c-.65-.08-1.1-.68-1.02-1.33Z"/><path class="cls-20" d="m155.33,1503.81l.11-.84c.08-.65.68-1.11,1.33-1.02l39.38,5.15c.65.08,1.11.68,1.02,1.33l-.11.84c-.08.65-.68,1.11-1.33,1.02l-39.38-5.15c-.65-.08-1.1-.68-1.02-1.33Z"/><path class="cls-15" d="m229.19,1096.61c10.95,1.43,20.14.21,20.52-2.74,0-.01,0-.03,0-.04h0s0-.01,0-.01c.03-.29-.04-.59-.18-.89l-6.61-33.53-4.71-23.9c-.16-.81-1.25-.95-1.62-.22l-10.79,21.7-15.32,30.83c-.22.25-.35.53-.41.82v.03s0,0,0,0c0,.01,0,.03,0,.04-.39,2.95,8.18,6.49,19.13,7.92Z"/><path class="cls-17" d="m234.48,1059.41c-3.39-.44-6.43-1.33-8.67-2.43l10.79-21.7c.37-.74,1.46-.59,1.62.22l4.71,23.9c-2.36.39-5.31.43-8.45.01Z"/><polygon class="cls-7" points="166.45 1144.18 193.8 1487.59 153.95 1490.91 126.6 1147.5 166.45 1144.18"/><path class="cls-17" d="m164.68,1122.92l1.77,21.26-39.85,3.33-1.78-21.26c-.63-7.5,4.95-14.09,12.45-14.72l12.68-1.06c7.5-.63,14.09,4.95,14.72,12.45Z"/><rect class="cls-15" x="137.67" y="1134.25" width="19.08" height="40.03" transform="translate(-990.82 1396.95) rotate(-94.77)"/><path class="cls-20" d="m167.38,1144.2l.07.84c.05.65-.43,1.22-1.08,1.28l-39.57,3.3c-.65.05-1.22-.43-1.28-1.08l-.07-.84c-.05-.65.43-1.22,1.08-1.28l39.57-3.3c.65-.05,1.22.43,1.28,1.08Z"/><path class="cls-20" d="m168.27,1153.34l.07.84c.05.65-.43,1.22-1.08,1.28l-39.57,3.3c-.65.05-1.22-.43-1.28-1.08l-.07-.84c-.06-.65.43-1.22,1.08-1.28l39.57-3.3c.65-.05,1.22.43,1.28,1.08Z"/><path class="cls-20" d="m168.97,1162.91l.07.84c.05.65-.43,1.22-1.08,1.28l-39.57,3.3c-.65.05-1.22-.43-1.28-1.08l-.07-.85c-.05-.65.43-1.22,1.08-1.28l39.57-3.3c.65-.05,1.22.43,1.28,1.08Z"/><path class="cls-15" d="m173.42,1483.85c-11,.92-19.72,4.06-19.48,7.02,0,.01,0,.03,0,.04h0,0c.04.31.16.58.36.85l13.56,31.37,9.67,22.36c.33.76,1.43.67,1.63-.13l5.95-23.49,8.45-33.38c.16-.29.23-.59.22-.88v-.03s0,0,0,0c0-.01,0-.03,0-.04-.25-2.96-9.37-4.61-20.37-3.7Z"/><path class="cls-17" d="m176.13,1521.33c3.41-.29,6.56-.06,8.99.54l-5.95,23.49c-.2.8-1.3.89-1.63.13l-9.67-22.36c2.23-.88,5.1-1.54,8.25-1.8Z"/><polygon class="cls-18" points="171.56 1525.2 63.97 1157.54 102.01 1146.33 209.61 1513.99 171.56 1525.2"/><path class="cls-17" d="m177.54,1545.49l-5.98-20.3,38.05-11.21,5.98,20.3c2.11,7.16-1.99,14.68-9.15,16.79l-12.11,3.57c-7.16,2.11-14.68-1.99-16.79-9.15Z"/><rect class="cls-15" x="178.77" y="1491.68" width="18.92" height="39.7" transform="translate(1584.97 903.84) rotate(73.59)"/><path class="cls-20" d="m170.65,1525.36l-.24-.81c-.18-.62.17-1.28.79-1.46l37.78-11.13c.62-.18,1.28.17,1.46.79l.24.81c.18.62-.17,1.28-.79,1.46l-37.78,11.13c-.62.18-1.27-.17-1.46-.79Z"/><path class="cls-20" d="m167.96,1516.66l-.24-.81c-.18-.62.17-1.27.8-1.46l37.78-11.13c.62-.18,1.27.17,1.46.79l.24.81c.18.62-.17,1.28-.79,1.46l-37.78,11.13c-.62.18-1.28-.17-1.46-.79Z"/><path class="cls-20" d="m165.36,1507.5l-.24-.81c-.18-.62.17-1.27.79-1.46l37.78-11.13c.62-.18,1.28.17,1.46.8l.24.8c.18.62-.17,1.28-.79,1.46l-37.78,11.13c-.62.18-1.27-.17-1.46-.79Z"/><path class="cls-15" d="m84.51,1157.08c10.5-3.1,18.35-7.89,17.51-10.72,0-.01-.01-.02-.01-.04h0s0-.01,0-.01c-.09-.28-.27-.52-.52-.74l-19.45-27.76-13.86-19.78c-.47-.67-1.52-.36-1.56.45l-1.08,24.01-1.53,34.11c-.09.32-.11.62-.04.9v.03s0,0,0,0c0,.01,0,.03,0,.04.83,2.83,10.02,2.61,20.53-.49Z"/><path class="cls-7" d="m74.38,1121.22c-3.26.96-6.36,1.37-8.84,1.28l1.08-24.01c.04-.82,1.09-1.12,1.56-.45l13.86,19.78c-1.99,1.3-4.64,2.52-7.66,3.4Z"/><polygon class="cls-18" points="290.92 1181.53 231.02 1479.46 192.2 1471.33 252.1 1173.4 290.92 1181.53"/><path class="cls-17" d="m295.25,1160.81l-4.33,20.71-38.82-8.12,4.33-20.71c1.53-7.31,8.69-11.99,16-10.46l12.35,2.58c7.31,1.53,11.99,8.7,10.47,16Z"/><rect class="cls-15" x="260.31" y="1165.82" width="18.92" height="39.7" transform="translate(-946.02 1206.95) rotate(-78.18)"/><path class="cls-20" d="m270.87,1157.09h.84c.65,0,1.17.53,1.17,1.17v39.39c0,.65-.53,1.17-1.17,1.17h-.84c-.65,0-1.17-.53-1.17-1.17v-39.38c0-.65.53-1.18,1.18-1.18Z" transform="translate(-937.27 1201.87) rotate(-78.16)"/><path class="cls-20" d="m269.12,1166.02h.84c.65,0,1.18.53,1.18,1.18v39.38c0,.65-.53,1.17-1.17,1.17h-.84c-.65,0-1.17-.53-1.17-1.17v-39.39c0-.65.53-1.17,1.17-1.17Z" transform="translate(-947.38 1207.98) rotate(-78.2)"/><path class="cls-20" d="m288.01,1200.05l-.17.82c-.13.63-.75,1.04-1.39.91l-38.55-8.06c-.64-.13-1.04-.75-.91-1.39l.17-.82c.13-.63.75-1.04,1.39-.91l38.55,8.06c.63.13,1.04.76.91,1.39Z"/><path class="cls-15" d="m212.71,1470.14c-10.72-2.24-19.9-1.72-20.5,1.16,0,.01,0,.03,0,.04h0s0,.01,0,.01c-.05.29-.01.59.11.9l4.01,33.66,2.86,23.99c.1.81,1.17,1.04,1.58.34l12.31-20.65,17.48-29.33c.23-.24.39-.49.46-.78v-.02s0,0,0,0c0-.01,0-.02.01-.04.6-2.88-7.6-7.04-18.32-9.28Z"/><path class="cls-7" d="m204.67,1506.53c3.32.69,6.26,1.8,8.39,3.05l-12.31,20.65c-.42.7-1.49.47-1.58-.34l-2.86-23.99c2.37-.21,5.28-.02,8.35.62Z"/><path class="cls-14" d="m288.08,1296.82l-6.03,50.59-2.68,22.51h0s-16.83,141.31-16.83,141.31l-2.6,21.8-4.43,37.21H104.86l-3.81-37.51-2.21-21.74-14.26-140.58-2.25-22.19-5.23-51.51c1.64,8.95,48.24,16.13,105.5,16.13s103.49-7.12,105.47-16.02Z"/><path class="cls-12" d="m77.06,1296.23l.05.49c-.04-.16-.05-.32-.05-.49Z"/><path class="cls-12" d="m288.15,1296.23c0,.2-.02.4-.07.59l.07-.59Z"/><path class="cls-11" d="m262.53,1511.23l-2.6,21.8c-19.32,3.4-47.39,5.53-78.6,5.53s-60.92-2.26-80.27-5.83l-2.21-21.74c19.34,3.81,49.1,6.25,82.47,6.25s61.86-2.34,81.22-6.01Z"/><path class="cls-11" d="m282.05,1347.41l-2.68,22.51h0c-15.55,6.14-53.58,10.46-98.04,10.46s-80.45-4.1-96.74-9.97l-2.25-22.19c14.92,6.33,53.6,10.83,98.98,10.83s87.31-4.89,100.73-11.64Z"/><path class="cls-13" d="m2289.32,1186.12h-39.77c-6.34,0-11.48-5.14-11.48-11.48s5.14-11.48,11.48-11.48h28.29v-74.7h-28.29c-6.34,0-11.48-5.14-11.48-11.48s5.14-11.48,11.48-11.48h39.77c6.34,0,11.48,5.14,11.48,11.48v97.66c0,6.34-5.14,11.48-11.48,11.48Z"/><path class="cls-9" d="m2111.47,1020.26h126.85c6.19,0,11.22,5.03,11.22,11.22v188.63c0,6.19-5.03,11.22-11.22,11.22h-126.85c-6.19,0-11.22-5.03-11.22-11.22v-188.63c0-6.19,5.03-11.22,11.22-11.22Z"/><path class="cls-2" d="m2166.3,1000.17s-56.23-23.89-38.83-67.15c17.4-43.25,80.67-37.56,44.69-100.21,43.4,25.06,49.92,80.88,16.21,94.55-33.71,13.67-35.43,48.27-22.07,72.81Z"/><path class="cls-2" d="m2219.15,1000.17s-39.99-16.99-27.61-47.75c12.37-30.76,57.37-26.71,31.78-71.26,30.86,17.82,35.5,57.51,11.53,67.23-23.97,9.72-25.2,34.33-15.69,51.77Z"/><path class="cls-13" d="m2174.3,1108c20.91-24.23,40.16-1.44,35.65,15.61-3.6,19.03-35.68,44.41-36.26,41.92-68.56-50.6-18.15-86.19.61-57.54Z"/><path class="cls-13" d="m2249.54,1214.44v5.67c0,6.2-5.02,11.22-11.22,11.22h-126.85c-6.19,0-11.22-5.02-11.22-11.22v-5.67h149.29Z"/><path class="cls-2" d="m1966.44,513.09c-19.47,0-35.3-15.84-35.3-35.3s15.84-35.31,35.3-35.31,35.31,15.84,35.31,35.31-15.84,35.3-35.31,35.3Zm0-60.89c-14.11,0-25.58,11.48-25.58,25.58s11.48,25.58,25.58,25.58,25.58-11.48,25.58-25.58-11.48-25.58-25.58-25.58Z"/><path class="cls-2" d="m477.4,564.44c-19.47,0-35.31-15.84-35.31-35.31s15.84-35.31,35.31-35.31,35.31,15.84,35.31,35.31-15.84,35.31-35.31,35.31Zm0-60.89c-14.11,0-25.58,11.48-25.58,25.58s11.48,25.58,25.58,25.58,25.58-11.48,25.58-25.58-11.48-25.58-25.58-25.58Z"/><path class="cls-21" d="m939.75,715.67c-19.47,0-35.31-15.84-35.31-35.31s15.84-35.31,35.31-35.31,35.31,15.84,35.31,35.31-15.84,35.31-35.31,35.31Zm0-60.89c-14.1,0-25.58,11.48-25.58,25.58s11.48,25.58,25.58,25.58,25.58-11.47,25.58-25.58-11.48-25.58-25.58-25.58Z"/><path class="cls-2" d="m102.87,775.03c-13.09,0-23.73-10.65-23.73-23.73s10.65-23.73,23.73-23.73,23.73,10.65,23.73,23.73-10.65,23.73-23.73,23.73Zm0-40.93c-9.48,0-17.2,7.71-17.2,17.2s7.71,17.2,17.2,17.2,17.2-7.72,17.2-17.2-7.71-17.2-17.2-17.2Z"/><path class="cls-2" d="m1125.57,156.57c-19.36-2.06-33.43-19.49-31.37-38.84,2.06-19.36,19.49-33.43,38.84-31.37,19.36,2.06,33.43,19.49,31.37,38.84-2.06,19.36-19.49,33.43-38.84,31.37Zm6.45-60.54c-14.03-1.49-26.65,8.7-28.15,22.73-1.49,14.03,8.7,26.65,22.73,28.15,14.03,1.49,26.65-8.7,28.15-22.73,1.49-14.03-8.7-26.65-22.73-28.15Z"/><path class="cls-2" d="m2053.55,421.12c0,10.97-8.9,19.87-19.87,19.87s-19.87-8.9-19.87-19.87,8.9-19.87,19.87-19.87,19.87,8.9,19.87,19.87Z"/><path class="cls-2" d="m1082.84,190.83c-1.16,10.91-10.95,18.82-21.86,17.66-10.91-1.16-18.82-10.95-17.66-21.86,1.16-10.91,10.95-18.82,21.86-17.66,10.91,1.16,18.82,10.95,17.66,21.86Z"/><path class="cls-2" d="m1061.08,477.79c0,10.97-8.9,19.87-19.87,19.87s-19.87-8.9-19.87-19.87,8.9-19.87,19.87-19.87,19.87,8.9,19.87,19.87Z"/><path class="cls-21" d="m959.62,762.87c0,10.97-8.9,19.87-19.87,19.87s-19.87-8.9-19.87-19.87,8.9-19.87,19.87-19.87,19.87,8.9,19.87,19.87Z"/><path class="cls-2" d="m2417.1,1041.41c0,10.97-8.9,19.87-19.87,19.87s-19.87-8.9-19.87-19.87,8.9-19.87,19.87-19.87,19.87,8.9,19.87,19.87Z"/><path class="cls-2" d="m477.4,1247.94c0,10.97-8.9,19.87-19.87,19.87s-19.87-8.9-19.87-19.87,8.9-19.87,19.87-19.87,19.87,8.9,19.87,19.87Z"/><circle class="cls-2" cx="160.2" cy="631.96" r="49.7" transform="translate(-76.02 24.31) rotate(-7.02)"/></svg>