<svg xmlns="http://www.w3.org/2000/svg" xmlns:xlink="http://www.w3.org/1999/xlink" width="1150.393" height="297.769" viewBox="0 0 1150.393 297.769"><defs><linearGradient id="a" x1="1.053" y1="0.536" x2="0.082" y2="0.954" gradientUnits="objectBoundingBox"><stop offset="0" stop-color="#ff5353"/><stop offset="1" stop-color="#b5068d"/></linearGradient><linearGradient id="c" x1="1.763" y1="-0.212" x2="-0.081" y2="1.535" gradientUnits="objectBoundingBox"><stop offset="0" stop-color="#7356ea"/><stop offset="1" stop-color="#3a2b75"/></linearGradient></defs><g transform="translate(-256.607 -667.116)"><path d="M-1313.473,743.4q-4.265-4-4.264-11.6v-28.08h-8.112v-10.4h8.112v-14.56h13.728v14.56h12.065v10.4h-12.065v26a7.629,7.629,0,0,0,1.2,4.68q1.2,1.561,4.316,1.561a12.686,12.686,0,0,0,3.484-.52,10.928,10.928,0,0,0,3.068-1.352v11.44a14.768,14.768,0,0,1-4.42,1.456,28.21,28.21,0,0,1-4.732.416Q-1309.209,747.4-1313.473,743.4Zm751.192-3.276q-6.449-7.177-6.449-20.7,0-14.56,6.6-21.111t19.188-6.552q8.736,0,14.508,3.067a19.65,19.65,0,0,1,8.684,9.2q2.912,6.136,2.911,15.392,0,13.52-6.76,20.7t-19.24,7.176Q-555.832,747.3-562.28,740.12Zm11.96-35.776a10.435,10.435,0,0,0-4.056,5.616,30.364,30.364,0,0,0-1.248,9.464q0,8.216,2.964,12.636t9.724,4.42a12.338,12.338,0,0,0,7.436-2.08,11.99,11.99,0,0,0,4.212-5.927,27.308,27.308,0,0,0,1.352-9.049,27.971,27.971,0,0,0-1.4-9.671,10.56,10.56,0,0,0-4.263-5.513,13.758,13.758,0,0,0-7.332-1.768A13.093,13.093,0,0,0-550.32,704.344Zm-72.7,35.776q-6.448-7.177-6.448-20.7,0-14.56,6.6-21.111t19.188-6.552q8.737,0,14.508,3.067a19.65,19.65,0,0,1,8.684,9.2q2.912,6.136,2.912,15.392,0,13.52-6.76,20.7t-19.24,7.176Q-616.569,747.3-623.017,740.12Zm11.96-35.776a10.439,10.439,0,0,0-4.056,5.616,30.394,30.394,0,0,0-1.247,9.464q0,8.216,2.964,12.636t9.724,4.42a12.343,12.343,0,0,0,7.437-2.08,12,12,0,0,0,4.212-5.927,27.332,27.332,0,0,0,1.352-9.049,27.971,27.971,0,0,0-1.4-9.671,10.557,10.557,0,0,0-4.264-5.513,13.756,13.756,0,0,0-7.332-1.768A13.1,13.1,0,0,0-611.057,704.344ZM-873.137,746.1a60.279,60.279,0,0,1-7.592-2.859V731.28q2.392,1.559,5.045,2.964a27.622,27.622,0,0,0,5.719,2.236,25.553,25.553,0,0,0,6.709.833q4.055,0,6.084-1.56a4.79,4.79,0,0,0,2.028-3.953,3.905,3.905,0,0,0-1.56-3.276,13.854,13.854,0,0,0-4.056-2.028q-2.5-.832-5.3-1.664a39.8,39.8,0,0,1-5.252-1.664,18.182,18.182,0,0,1-4.836-2.808,12.661,12.661,0,0,1-3.484-4.523,15.643,15.643,0,0,1-1.3-6.709,15.515,15.515,0,0,1,1.872-7.9,15.593,15.593,0,0,1,4.94-5.252,21.154,21.154,0,0,1,6.656-2.912,25.963,25.963,0,0,1,7.02-.78,32.315,32.315,0,0,1,9.671,1.353,43.66,43.66,0,0,1,6.864,3.016v10.815q-3.64-1.975-7.02-3.587a18.05,18.05,0,0,0-7.852-1.612,11.833,11.833,0,0,0-6.292,1.4,4.377,4.377,0,0,0-2.237,3.9,4.61,4.61,0,0,0,1.352,3.484,9.715,9.715,0,0,0,3.588,2.08q2.236.78,4.836,1.508t5.356,1.612a21.116,21.116,0,0,1,5.2,2.5,11.933,11.933,0,0,1,3.952,4.42,15.345,15.345,0,0,1,1.508,7.28q-.1,6.136-3.276,9.828a18.023,18.023,0,0,1-8.164,5.356,33.32,33.32,0,0,1-10.608,1.664A33.337,33.337,0,0,1-873.137,746.1ZM-998.3,744.071a22.233,22.233,0,0,1-9.1-9.308,31.072,31.072,0,0,1-3.225-14.716q0-13.728,6.6-21.009t18.668-7.279q8.529,0,13.832,3.744a20.992,20.992,0,0,1,7.7,10.712,49.413,49.413,0,0,1,2.288,16.536h-35.7a15.913,15.913,0,0,0,3.619,9.048q3.8,4.265,11.7,4.264a29.973,29.973,0,0,0,6.188-.624,35.389,35.389,0,0,0,5.513-1.612q2.547-.988,4.42-1.82v11.751a47.823,47.823,0,0,1-8.32,2.548,50.085,50.085,0,0,1-10.5.988A27.981,27.981,0,0,1-998.3,744.071Zm23.515-30.264q-.609-5.349-2.611-8.06-2.653-3.588-8.476-3.588a11.407,11.407,0,0,0-6.136,1.612,10.234,10.234,0,0,0-4,5.356,21.085,21.085,0,0,0-1.084,4.68Zm-169.271,32.656a21.31,21.31,0,0,1-7.072-2.808,14.16,14.16,0,0,1-4.94-5.356,17.5,17.5,0,0,1-1.82-8.373,17.6,17.6,0,0,1,2.184-9.1,13.915,13.915,0,0,1,6.4-5.616,24.848,24.848,0,0,1,10.348-1.923,33.927,33.927,0,0,1,6.968.676,27.292,27.292,0,0,1,5.824,1.872q1.19.547,2.184,1.127v-4.2q0-5.1-3.224-7.436t-9.049-2.34a29.751,29.751,0,0,0-9.152,1.508,22.96,22.96,0,0,0-7.592,3.9V696.44a26.278,26.278,0,0,1,8.424-3.172,53.406,53.406,0,0,1,12.064-1.3,37.329,37.329,0,0,1,5.72.468,25.857,25.857,0,0,1,5.824,1.612,17.131,17.131,0,0,1,5.1,3.224,15.055,15.055,0,0,1,3.641,5.148,18.4,18.4,0,0,1,1.352,7.436l-.1,24.856a9.624,9.624,0,0,1-3.067,7.54,18.159,18.159,0,0,1-8.633,3.9,64.9,64.9,0,0,1-12.947,1.144A40.854,40.854,0,0,1-1144.057,746.464Zm1.975-22.153a6.117,6.117,0,0,0-2.7,5.513,6.489,6.489,0,0,0,1.456,4.264,8.515,8.515,0,0,0,3.744,2.6,13.89,13.89,0,0,0,4.783.832,31.125,31.125,0,0,0,8.268-.78,3.252,3.252,0,0,0,2.548-3.38v-9.12a23.853,23.853,0,0,0-2.548-.812,28.906,28.906,0,0,0-7.332-.884Q-1139.377,722.543-1142.081,724.311Zm355.109,22.153a39.542,39.542,0,0,1-7.54-1.664,48.526,48.526,0,0,1-6.864-2.912V728.159a33.349,33.349,0,0,0,10.3,5.564,36.737,36.737,0,0,0,11.96,2.029q5.616,0,8.476-2.237a7.639,7.639,0,0,0,2.86-6.4,6.472,6.472,0,0,0-2.34-5.2,21.142,21.142,0,0,0-6.188-3.433q-3.847-1.455-8.424-3.016-3.224-1.143-6.292-2.548a21.878,21.878,0,0,1-5.512-3.588,15.814,15.814,0,0,1-3.9-5.459,19.835,19.835,0,0,1-1.455-8.06,20.8,20.8,0,0,1,1.455-7.592,19.5,19.5,0,0,1,4.472-6.76,21.192,21.192,0,0,1,7.852-4.784,33.15,33.15,0,0,1,11.388-1.768,46.565,46.565,0,0,1,7.436.519,33.437,33.437,0,0,1,6.032,1.561,64.98,64.98,0,0,1,6.084,2.6V693.32q-2.495-1.769-5.3-3.38a31.991,31.991,0,0,0-5.98-2.651,24.252,24.252,0,0,0-6.917-1.144,18.217,18.217,0,0,0-6.448.832,8.7,8.7,0,0,0-4.16,2.808,7.065,7.065,0,0,0-1.456,4.472,7.184,7.184,0,0,0,1.82,5.148,13.548,13.548,0,0,0,5.044,3.172q3.225,1.249,7.28,2.5a76.784,76.784,0,0,1,7.7,2.808,26.87,26.87,0,0,1,6.4,3.8,15.561,15.561,0,0,1,4.316,5.565,19.026,19.026,0,0,1,1.56,8.112,22.393,22.393,0,0,1-2.652,10.764,19.474,19.474,0,0,1-8.059,7.9q-5.408,2.965-13.624,2.965A74.764,74.764,0,0,1-786.973,746.464Zm-580.112,0a39.539,39.539,0,0,1-7.54-1.664,48.524,48.524,0,0,1-6.864-2.912V728.159a33.35,33.35,0,0,0,10.3,5.564,36.741,36.741,0,0,0,11.96,2.029q5.616,0,8.476-2.237a7.639,7.639,0,0,0,2.86-6.4,6.472,6.472,0,0,0-2.34-5.2,21.13,21.13,0,0,0-6.188-3.433q-3.847-1.455-8.424-3.016-3.224-1.143-6.292-2.548a21.876,21.876,0,0,1-5.512-3.588,15.813,15.813,0,0,1-3.9-5.459,19.835,19.835,0,0,1-1.455-8.06,20.8,20.8,0,0,1,1.455-7.592,19.5,19.5,0,0,1,4.472-6.76,21.2,21.2,0,0,1,7.853-4.784,33.15,33.15,0,0,1,11.388-1.768,46.557,46.557,0,0,1,7.436.519,33.439,33.439,0,0,1,6.032,1.561,64.98,64.98,0,0,1,6.084,2.6V693.32q-2.495-1.769-5.3-3.38a31.991,31.991,0,0,0-5.98-2.651,24.252,24.252,0,0,0-6.917-1.144,18.217,18.217,0,0,0-6.448.832,8.7,8.7,0,0,0-4.16,2.808,7.065,7.065,0,0,0-1.456,4.472,7.184,7.184,0,0,0,1.82,5.148,13.544,13.544,0,0,0,5.044,3.172q3.224,1.249,7.279,2.5a76.781,76.781,0,0,1,7.7,2.808,26.869,26.869,0,0,1,6.4,3.8A15.561,15.561,0,0,1-1335,717.24a19.027,19.027,0,0,1,1.56,8.112,22.392,22.392,0,0,1-2.652,10.764,19.474,19.474,0,0,1-8.059,7.9q-5.408,2.965-13.624,2.965A74.763,74.763,0,0,1-1367.085,746.464Zm639.859-1.093a24.39,24.39,0,0,1-8.528-4.68,21.869,21.869,0,0,1-5.928-8.32,31.457,31.457,0,0,1-2.183-12.324,35.4,35.4,0,0,1,2.08-12.9,23.161,23.161,0,0,1,5.72-8.684,22.409,22.409,0,0,1,8.476-4.94,33.151,33.151,0,0,1,10.244-1.56,45.265,45.265,0,0,1,8.581.832,36.5,36.5,0,0,1,7.852,2.392v11.544a58.854,58.854,0,0,0-7.124-2.549,26.386,26.386,0,0,0-7.228-.987q-7.383,0-11.44,3.64T-730.76,718.7q0,8.633,3.744,12.74t12.271,4.108a24.307,24.307,0,0,0,7.436-1.144,45.222,45.222,0,0,0,6.5-2.6V743.24a36.7,36.7,0,0,1-7.592,2.7,38.439,38.439,0,0,1-8.84.936A32.991,32.991,0,0,1-727.225,745.371Zm222.041.365v-72.28h13.1v72.28Zm-149.241,0v-31.2q0-5.72-2.756-8.58t-8.164-2.86a19.661,19.661,0,0,0-5.616.832,21.137,21.137,0,0,0-4.888,2.08l-.208,39.728h-13.1V671.9h13.312v24.141A38.032,38.032,0,0,1-671.377,694a29.523,29.523,0,0,1,10.607-2.028,24.247,24.247,0,0,1,10.3,2.028,14.752,14.752,0,0,1,6.812,6.448q2.445,4.421,2.444,11.8v33.488Zm-295.359,0v-47.32a27.826,27.826,0,0,1,5.148-2.548,61.306,61.306,0,0,1,8.58-2.7,41.421,41.421,0,0,1,9.88-1.2,25.064,25.064,0,0,1,5.98.572,13.136,13.136,0,0,1,3.588,1.4v9.985q-2.08-.313-4.732-.52t-5.408-.157q-2.755.053-5.3.26t-4.524.52v41.7Zm-86.112,0v-51.9h13.208l.1,51.9Zm-45.656,0L-1103.5,693.32h14.248L-1074,731.266l13.867-37.946h13.832l-22.048,52.416Zm-99.841,0-16.508-23.989-15.212,23.989h-15.6l23.379-34.791-23.795-34.577h17.473l16.35,23.759,14.849-23.759h15.912l-23.165,34.8,23.79,34.571Zm-98.8,0V732.319h13.728v13.416Zm376.48-49.4-1.872-20.9h10.815l-1.768,20.9Zm-132.5-10.816V674.6h13.832v10.92Z" transform="translate(1898.009 98.1)" fill="#130646" stroke="rgba(0,0,0,0)" stroke-width="1"/><text transform="translate(516 890)" fill="#5d5679" font-size="29" font-family="Inter-Bold, Inter" font-weight="700" letter-spacing="0.013em"><tspan x="0" y="0" xml:space="preserve">Affiliated to C.B.S.E,   (10+2) Senior Secondary</tspan></text><text transform="translate(516 927)" fill="#5d5679" font-size="25" font-family="Inter-Bold, Inter" font-weight="700" letter-spacing="0.013em"><tspan x="0" y="0">Affiliated no: 2131272</tspan></text><text transform="translate(944 927)" fill="#5d5679" font-size="25" font-family="Inter-Bold, Inter" font-weight="700" letter-spacing="0.013em"><tspan x="0" y="0">School Code: 70521</tspan></text><g transform="translate(256.609 667.116)"><g transform="translate(-0.002)"><path d="M229.649,138.039c-16.614-5.178-27.776-18.559-27.776-33.376a30.609,30.609,0,0,1,4.542-15.978l4.4-7.279L117.48,47.64,24.151,81.408l4.394,7.279a30.609,30.609,0,0,1,4.542,15.978c0,14.794-11.162,28.227-27.776,33.376L0,139.682a.643.643,0,0,0,0,.081l.4,5.459C1.19,155.9,11.021,250.9,114.084,308.283l3.4,1.886,3.4-1.886c45.255-25.15,72.536-57.623,88.964-87,20.985-37.533,24.277-70.05,24.714-76.02l.407-5.54ZM117.48,294.117c-83.365-48.17-99.609-124.1-102.538-144.723,19.432-8.137,32.118-25.512,32.118-44.73a44.257,44.257,0,0,0-2.885-15.645L117.48,62.5l73.3,26.518a44.257,44.257,0,0,0-2.885,15.645c0,19.232,12.686,36.593,32.118,44.73-2.929,20.623-19.173,96.554-102.538,144.716Z" transform="translate(0.002 -12.4)" fill="url(#a)"/><path d="M206.334,264a194.541,194.541,0,0,1-19.6,29.388c-41.046,13.736-49.864,38.465-53.717,46.6-3.832-8.137-12.656-32.858-53.7-46.6h0A192.862,192.862,0,0,1,59.71,264c21.784,6.613,53.185,22.761,73.3,62.224C153.127,286.739,184.558,270.591,206.334,264Z" transform="translate(-15.541 -68.718)" fill="url(#a)"/><path d="M199.919,102.624,135.868,80.3h0L71.794,102.617a1.849,1.849,0,0,0-1.184,2.042h0a1.849,1.849,0,0,0,1.147,1.42l2.219.888L105.2,119.282a34.293,34.293,0,1,0,32-18.863c.5-.044,1-.044,1.479-.044a37.17,37.17,0,0,1,31.5,17.427l27.487-10.822,2.286-.9a1.857,1.857,0,0,0,0-3.469Z" transform="translate(-18.372 -20.902)" fill="url(#c)"/><path d="M95.705,169.882l6.073,4.594L99.84,148.142a5.918,5.918,0,0,0,1.938-4.438,6.058,6.058,0,0,0-3.617-5.555v-7.331l-4.926-1.938v9.32a6.043,6.043,0,0,0-3.595,5.563,5.918,5.918,0,0,0,1.938,4.438L89.64,174.535Z" transform="translate(-23.331 -33.547)" fill="url(#c)"/><path d="M214.929,222.815c-1.613,4.786-3.551,9.927-5.918,15.319a22.5,22.5,0,0,1-13.729,12.375c-50.426,16.414-66.966,57.7-66.966,57.7s-16.525-41.283-66.943-57.7a22.5,22.5,0,0,1-13.736-12.383c-2.352-5.4-4.29-10.541-5.918-15.327a140.473,140.473,0,0,1,86.546,71.626A140.928,140.928,0,0,1,214.929,222.815Z" transform="translate(-10.858 -57.994)" fill="url(#c)"/><path d="M153.25,0l4.889,9.912,10.94,1.59-7.915,7.715,1.871,10.9-9.786-5.141-9.786,5.141,1.871-10.9L137.42,11.5l10.94-1.59Z" transform="translate(-35.768)" fill="url(#c)"/><path d="M208.577,25.55l3.011,6.11,6.746.976-4.882,4.756,1.154,6.717-6.029-3.173-6.029,3.173,1.147-6.717-4.875-4.756,6.739-.976Z" transform="translate(-51.75 -6.651)" fill="url(#c)"/><path d="M102.2,25.55l3.018,6.11,6.739.976-4.875,4.756,1.147,6.717L102.2,40.936l-6.029,3.173,1.154-6.717L92.44,32.636l6.746-.976Z" transform="translate(-24.06 -6.651)" fill="url(#c)"/><path d="M145.027,207.505l-5.792,5.792-5.784-5.792a1.479,1.479,0,0,0-1.154-.436A94.231,94.231,0,0,0,83.58,224.822a144.42,144.42,0,0,1,55.648,53.207,144.6,144.6,0,0,1,55.67-53.177A94.446,94.446,0,0,0,146.181,207.1,1.48,1.48,0,0,0,145.027,207.505Z" transform="translate(-21.754 -53.898)" fill="#7356ea"/></g></g><text transform="translate(1241 752)" fill="#5d5679" stroke="rgba(0,0,0,0)" stroke-width="1" font-size="31" font-family="Inter-Bold, Inter" font-weight="700" letter-spacing="0.013em"><tspan x="0" y="0">Gorakhpur</tspan></text></g></svg>