<svg xmlns="http://www.w3.org/2000/svg" xmlns:xlink="http://www.w3.org/1999/xlink" width="1092" height="320" viewBox="0 0 1092 320"><defs><linearGradient id="a" x1="0.018" y1="1.325" x2="0.701" y2="-0.295" gradientUnits="objectBoundingBox"><stop offset="0" stop-color="#b5068d"/><stop offset="1" stop-color="#ff5353"/></linearGradient><linearGradient id="b" x1="1.053" y1="0.536" x2="0.082" y2="0.954" gradientUnits="objectBoundingBox"><stop offset="0" stop-color="#ff5353"/><stop offset="1" stop-color="#b5068d"/></linearGradient><linearGradient id="d" x1="1.763" y1="-0.212" x2="-0.081" y2="1.535" gradientUnits="objectBoundingBox"><stop offset="0" stop-color="#7356ea"/><stop offset="1" stop-color="#3a2b75"/></linearGradient></defs><g transform="translate(-218 -656)"><rect width="1092" height="320" transform="translate(218 656)" fill="#fff"/><path d="M-1325.335,731.369q-3.526-3.312-3.526-9.59v-23.22h-6.708v-8.6h6.708V677.92h11.352v12.04h9.977v8.6h-9.977v21.5a6.307,6.307,0,0,0,.989,3.87q.99,1.291,3.569,1.29a10.5,10.5,0,0,0,2.881-.429,9.035,9.035,0,0,0,2.537-1.119v9.461a12.164,12.164,0,0,1-3.656,1.2,23.285,23.285,0,0,1-3.912.345Q-1321.809,734.68-1325.335,731.369Zm621.177-2.709q-5.331-5.935-5.332-17.114,0-12.039,5.461-17.458t15.867-5.418a25.387,25.387,0,0,1,12,2.537,16.254,16.254,0,0,1,7.181,7.611,29.662,29.662,0,0,1,2.407,12.728q0,11.181-5.59,17.114t-15.91,5.934Q-698.825,734.594-704.157,728.66Zm9.89-29.584a8.626,8.626,0,0,0-3.353,4.644,25.1,25.1,0,0,0-1.032,7.826q0,6.795,2.451,10.449t8.042,3.655a10.207,10.207,0,0,0,6.149-1.72,9.921,9.921,0,0,0,3.483-4.9,22.589,22.589,0,0,0,1.118-7.482,23.138,23.138,0,0,0-1.161-8,8.731,8.731,0,0,0-3.526-4.558,11.368,11.368,0,0,0-6.062-1.462A10.83,10.83,0,0,0-694.267,699.076Zm-60.114,29.584q-5.332-5.935-5.332-17.114,0-12.039,5.46-17.458t15.867-5.418a25.384,25.384,0,0,1,12,2.537,16.245,16.245,0,0,1,7.181,7.611,29.648,29.648,0,0,1,2.408,12.728q0,11.181-5.59,17.114t-15.91,5.934Q-749.049,734.594-754.381,728.66Zm9.89-29.584a8.633,8.633,0,0,0-3.354,4.644,25.133,25.133,0,0,0-1.031,7.826q0,6.795,2.451,10.449t8.041,3.655a10.209,10.209,0,0,0,6.15-1.72,9.932,9.932,0,0,0,3.483-4.9,22.591,22.591,0,0,0,1.118-7.482,23.139,23.139,0,0,0-1.161-8,8.731,8.731,0,0,0-3.526-4.558,11.371,11.371,0,0,0-6.063-1.462A10.827,10.827,0,0,0-744.491,699.076ZM-961.211,733.6a49.542,49.542,0,0,1-6.278-2.365v-9.89q1.979,1.291,4.171,2.452a22.818,22.818,0,0,0,4.73,1.849,21.139,21.139,0,0,0,5.548.689,8.182,8.182,0,0,0,5.031-1.291,3.959,3.959,0,0,0,1.677-3.268,3.229,3.229,0,0,0-1.29-2.709,11.466,11.466,0,0,0-3.354-1.677q-2.064-.688-4.386-1.376a32.967,32.967,0,0,1-4.343-1.376,15.049,15.049,0,0,1-4-2.322,10.464,10.464,0,0,1-2.881-3.741,12.922,12.922,0,0,1-1.076-5.547,12.829,12.829,0,0,1,1.548-6.536,12.9,12.9,0,0,1,4.085-4.343,17.49,17.49,0,0,1,5.5-2.408,21.438,21.438,0,0,1,5.8-.645,26.757,26.757,0,0,1,8,1.118,36.3,36.3,0,0,1,5.676,2.494v8.944q-3.011-1.633-5.8-2.966a14.916,14.916,0,0,0-6.493-1.334,9.79,9.79,0,0,0-5.2,1.161,3.622,3.622,0,0,0-1.849,3.226,3.81,3.81,0,0,0,1.118,2.881,8.03,8.03,0,0,0,2.967,1.72q1.849.645,4,1.247t4.429,1.333a17.451,17.451,0,0,1,4.3,2.064,9.864,9.864,0,0,1,3.268,3.655,12.685,12.685,0,0,1,1.247,6.02,12.38,12.38,0,0,1-2.709,8.127,14.909,14.909,0,0,1-6.751,4.429,27.57,27.57,0,0,1-8.772,1.376A27.56,27.56,0,0,1-961.211,733.6Zm-103.5-1.677a18.38,18.38,0,0,1-7.525-7.7,25.692,25.692,0,0,1-2.667-12.17q0-11.351,5.461-17.372t15.437-6.02q7.052,0,11.438,3.1a17.359,17.359,0,0,1,6.364,8.859,40.834,40.834,0,0,1,1.893,13.674h-29.523a13.162,13.162,0,0,0,2.992,7.482q3.139,3.526,9.675,3.526a24.787,24.787,0,0,0,5.117-.516,29.375,29.375,0,0,0,4.558-1.333q2.106-.818,3.655-1.506v9.718a39.576,39.576,0,0,1-6.88,2.107,41.432,41.432,0,0,1-8.686.817A23.136,23.136,0,0,1-1064.712,731.928Zm19.445-25.026a13.879,13.879,0,0,0-2.16-6.664q-2.193-2.967-7.008-2.967a9.438,9.438,0,0,0-5.074,1.333,8.461,8.461,0,0,0-3.311,4.429,17.432,17.432,0,0,0-.9,3.87Zm-139.974,27a17.616,17.616,0,0,1-5.848-2.322,11.709,11.709,0,0,1-4.085-4.43,14.457,14.457,0,0,1-1.5-6.923,14.562,14.562,0,0,1,1.805-7.525,11.51,11.51,0,0,1,5.289-4.644,20.549,20.549,0,0,1,8.557-1.591,28.08,28.08,0,0,1,5.762.559,22.665,22.665,0,0,1,4.816,1.548q.984.453,1.806.933v-3.469q0-4.215-2.666-6.15t-7.483-1.935a24.6,24.6,0,0,0-7.568,1.247,18.986,18.986,0,0,0-6.277,3.225v-9.89a21.741,21.741,0,0,1,6.966-2.623,44.178,44.178,0,0,1,9.976-1.076,30.97,30.97,0,0,1,4.73.387,21.44,21.44,0,0,1,4.816,1.334,14.155,14.155,0,0,1,4.214,2.666,12.453,12.453,0,0,1,3.01,4.257,15.2,15.2,0,0,1,1.118,6.149l-.086,20.554a7.957,7.957,0,0,1-2.537,6.235,15.015,15.015,0,0,1-7.138,3.225,53.629,53.629,0,0,1-10.706.946A33.8,33.8,0,0,1-1185.241,733.906Zm1.633-18.319a5.058,5.058,0,0,0-2.236,4.558,5.365,5.365,0,0,0,1.2,3.525,7.025,7.025,0,0,0,3.1,2.15,11.473,11.473,0,0,0,3.955.688,25.735,25.735,0,0,0,6.837-.645,2.69,2.69,0,0,0,2.107-2.794v-7.542a19.8,19.8,0,0,0-2.107-.672,23.934,23.934,0,0,0-6.063-.731Q-1181.371,714.126-1183.607,715.587Zm293.648,18.319a32.766,32.766,0,0,1-6.235-1.376,40.092,40.092,0,0,1-5.676-2.408V718.77a27.572,27.572,0,0,0,8.514,4.6,30.377,30.377,0,0,0,9.89,1.677q4.644,0,7.009-1.849a6.319,6.319,0,0,0,2.365-5.289,5.355,5.355,0,0,0-1.935-4.3,17.5,17.5,0,0,0-5.117-2.838q-3.182-1.2-6.966-2.494-2.666-.946-5.2-2.107a18.088,18.088,0,0,1-4.558-2.967,13.089,13.089,0,0,1-3.226-4.514,16.4,16.4,0,0,1-1.2-6.665,17.2,17.2,0,0,1,1.2-6.278,16.139,16.139,0,0,1,3.7-5.59,17.54,17.54,0,0,1,6.494-3.956,27.418,27.418,0,0,1,9.417-1.462,38.536,38.536,0,0,1,6.149.43,27.691,27.691,0,0,1,4.988,1.29,54.235,54.235,0,0,1,5.031,2.15V689.96q-2.064-1.462-4.386-2.8a26.477,26.477,0,0,0-4.945-2.193,20.086,20.086,0,0,0-5.719-.946,15.055,15.055,0,0,0-5.332.689,7.2,7.2,0,0,0-3.441,2.322,5.846,5.846,0,0,0-1.2,3.7,5.942,5.942,0,0,0,1.5,4.257,11.213,11.213,0,0,0,4.171,2.623q2.666,1.033,6.02,2.064A63.844,63.844,0,0,1-872.287,702,22.265,22.265,0,0,1-867,705.138a12.879,12.879,0,0,1,3.569,4.6,15.739,15.739,0,0,1,1.29,6.709,18.518,18.518,0,0,1-2.193,8.9A16.109,16.109,0,0,1-871,731.885a23.241,23.241,0,0,1-11.266,2.451A61.9,61.9,0,0,1-889.96,733.906Zm-479.708,0a32.768,32.768,0,0,1-6.235-1.376,40.1,40.1,0,0,1-5.676-2.408V718.77a27.572,27.572,0,0,0,8.514,4.6,30.377,30.377,0,0,0,9.89,1.677q4.644,0,7.009-1.849a6.319,6.319,0,0,0,2.365-5.289,5.355,5.355,0,0,0-1.935-4.3,17.5,17.5,0,0,0-5.117-2.838q-3.182-1.2-6.966-2.494-2.666-.946-5.2-2.107a18.087,18.087,0,0,1-4.558-2.967,13.088,13.088,0,0,1-3.226-4.514,16.4,16.4,0,0,1-1.2-6.665,17.193,17.193,0,0,1,1.2-6.278,16.139,16.139,0,0,1,3.7-5.59,17.54,17.54,0,0,1,6.494-3.956,27.419,27.419,0,0,1,9.417-1.462,38.538,38.538,0,0,1,6.149.43,27.674,27.674,0,0,1,4.988,1.29,54.235,54.235,0,0,1,5.031,2.15V689.96q-2.063-1.462-4.386-2.8a26.476,26.476,0,0,0-4.945-2.193,20.081,20.081,0,0,0-5.719-.946,15.055,15.055,0,0,0-5.332.689,7.19,7.19,0,0,0-3.44,2.322,5.842,5.842,0,0,0-1.2,3.7,5.942,5.942,0,0,0,1.5,4.257,11.214,11.214,0,0,0,4.171,2.623q2.666,1.033,6.02,2.064A63.839,63.839,0,0,1-1352,702a22.263,22.263,0,0,1,5.289,3.139,12.88,12.88,0,0,1,3.569,4.6,15.739,15.739,0,0,1,1.29,6.709,18.517,18.517,0,0,1-2.193,8.9,16.109,16.109,0,0,1-6.664,6.536,23.239,23.239,0,0,1-11.266,2.451A61.9,61.9,0,0,1-1369.668,733.906Zm529.115-.9a20.16,20.16,0,0,1-7.052-3.87,18.08,18.08,0,0,1-4.9-6.88,26.016,26.016,0,0,1-1.806-10.192,29.268,29.268,0,0,1,1.721-10.663,19.158,19.158,0,0,1,4.729-7.181,18.515,18.515,0,0,1,7.009-4.085,27.413,27.413,0,0,1,8.471-1.291,37.375,37.375,0,0,1,7.095.688,30.217,30.217,0,0,1,6.494,1.978v9.545a48.818,48.818,0,0,0-5.891-2.107,21.8,21.8,0,0,0-5.977-.817q-6.106,0-9.46,3.01t-3.354,9.8q0,7.139,3.1,10.535t10.148,3.4a20.113,20.113,0,0,0,6.149-.946,37.454,37.454,0,0,0,5.375-2.15v9.46a30.33,30.33,0,0,1-6.278,2.237,31.8,31.8,0,0,1-7.31.774A27.293,27.293,0,0,1-840.553,733Zm183.61.3v-59.77h10.836V733.3Zm-123.41,0V707.5q0-4.73-2.279-7.095t-6.751-2.365a16.3,16.3,0,0,0-4.644.688,17.53,17.53,0,0,0-4.042,1.72l-.172,32.853h-10.836V672.243h11.008v19.963a31.443,31.443,0,0,1,3.7-1.688,24.412,24.412,0,0,1,8.771-1.678,20.053,20.053,0,0,1,8.514,1.678,12.2,12.2,0,0,1,5.633,5.332q2.021,3.656,2.021,9.761V733.3Zm-244.24,0v-39.13a23,23,0,0,1,4.257-2.107,50.866,50.866,0,0,1,7.1-2.237,34.281,34.281,0,0,1,8.17-.989,20.714,20.714,0,0,1,4.945.473,10.816,10.816,0,0,1,2.967,1.161v8.256q-1.72-.258-3.913-.429t-4.472-.13q-2.279.043-4.386.215t-3.741.43V733.3Zm-71.208,0V690.389h10.922l.086,42.915Zm-37.753,0L-1151.7,689.96h11.782l12.614,31.379,11.467-31.379h11.438l-18.232,43.344Zm-82.561,0-13.651-19.837-12.579,19.837h-12.9l19.332-28.769-19.676-28.593h14.449l13.52,19.647,12.28-19.647h13.158l-19.156,28.775,19.672,28.588Zm-81.7,0V722.21h11.353V733.3Zm311.321-40.85-1.548-17.286h8.943l-1.462,17.286Zm-109.564-8.944v-9.03h11.438v9.03Z" transform="translate(1901.346 76)" stroke="rgba(0,0,0,0)" stroke-miterlimit="10" stroke-width="1" fill="url(#a)"/><text transform="translate(516 868)" fill="#130646" font-size="32" font-family="Inter-Bold, Inter" font-weight="700" letter-spacing="0.013em"><tspan x="0" y="0" xml:space="preserve">Affiliated to C.B.S.E,   (10+2) Senior Secondary</tspan></text><text transform="translate(516 914)" fill="#130646" font-size="32" font-family="Inter-Bold, Inter" font-weight="700" letter-spacing="0.013em"><tspan x="0" y="0">Affiliated no: 2131272</tspan></text><text transform="translate(943 914)" fill="#130646" font-size="32" font-family="Inter-Bold, Inter" font-weight="700" letter-spacing="0.013em"><tspan x="0" y="0">School Code: 70521</tspan></text><g transform="translate(256.609 667.116)"><g transform="translate(-0.002)"><path d="M229.649,138.039c-16.614-5.178-27.776-18.559-27.776-33.376a30.609,30.609,0,0,1,4.542-15.978l4.4-7.279L117.48,47.64,24.151,81.408l4.394,7.279a30.609,30.609,0,0,1,4.542,15.978c0,14.794-11.162,28.227-27.776,33.376L0,139.682a.643.643,0,0,0,0,.081l.4,5.459C1.19,155.9,11.021,250.9,114.084,308.283l3.4,1.886,3.4-1.886c45.255-25.15,72.536-57.623,88.964-87,20.985-37.533,24.277-70.05,24.714-76.02l.407-5.54ZM117.48,294.117c-83.365-48.17-99.609-124.1-102.538-144.723,19.432-8.137,32.118-25.512,32.118-44.73a44.257,44.257,0,0,0-2.885-15.645L117.48,62.5l73.3,26.518a44.257,44.257,0,0,0-2.885,15.645c0,19.232,12.686,36.593,32.118,44.73-2.929,20.623-19.173,96.554-102.538,144.716Z" transform="translate(0.002 -12.4)" fill="url(#b)"/><path d="M206.334,264a194.541,194.541,0,0,1-19.6,29.388c-41.046,13.736-49.864,38.465-53.717,46.6-3.832-8.137-12.656-32.858-53.7-46.6h0A192.862,192.862,0,0,1,59.71,264c21.784,6.613,53.185,22.761,73.3,62.224C153.127,286.739,184.558,270.591,206.334,264Z" transform="translate(-15.541 -68.718)" fill="url(#b)"/><path d="M199.919,102.624,135.868,80.3h0L71.794,102.617a1.849,1.849,0,0,0-1.184,2.042h0a1.849,1.849,0,0,0,1.147,1.42l2.219.888L105.2,119.282a34.293,34.293,0,1,0,32-18.863c.5-.044,1-.044,1.479-.044a37.17,37.17,0,0,1,31.5,17.427l27.487-10.822,2.286-.9a1.857,1.857,0,0,0,0-3.469Z" transform="translate(-18.372 -20.902)" fill="url(#d)"/><path d="M95.705,169.882l6.073,4.594L99.84,148.142a5.918,5.918,0,0,0,1.938-4.438,6.058,6.058,0,0,0-3.617-5.555v-7.331l-4.926-1.938v9.32a6.043,6.043,0,0,0-3.595,5.563,5.918,5.918,0,0,0,1.938,4.438L89.64,174.535Z" transform="translate(-23.331 -33.547)" fill="url(#d)"/><path d="M214.929,222.815c-1.613,4.786-3.551,9.927-5.918,15.319a22.5,22.5,0,0,1-13.729,12.375c-50.426,16.414-66.966,57.7-66.966,57.7s-16.525-41.283-66.943-57.7a22.5,22.5,0,0,1-13.736-12.383c-2.352-5.4-4.29-10.541-5.918-15.327a140.473,140.473,0,0,1,86.546,71.626A140.928,140.928,0,0,1,214.929,222.815Z" transform="translate(-10.858 -57.994)" fill="url(#d)"/><path d="M153.25,0l4.889,9.912,10.94,1.59-7.915,7.715,1.871,10.9-9.786-5.141-9.786,5.141,1.871-10.9L137.42,11.5l10.94-1.59Z" transform="translate(-35.768)" fill="url(#d)"/><path d="M208.577,25.55l3.011,6.11,6.746.976-4.882,4.756,1.154,6.717-6.029-3.173-6.029,3.173,1.147-6.717-4.875-4.756,6.739-.976Z" transform="translate(-51.75 -6.651)" fill="url(#d)"/><path d="M102.2,25.55l3.018,6.11,6.739.976-4.875,4.756,1.147,6.717L102.2,40.936l-6.029,3.173,1.154-6.717L92.44,32.636l6.746-.976Z" transform="translate(-24.06 -6.651)" fill="url(#d)"/><path d="M145.027,207.505l-5.792,5.792-5.784-5.792a1.479,1.479,0,0,0-1.154-.436A94.231,94.231,0,0,0,83.58,224.822a144.42,144.42,0,0,1,55.648,53.207,144.6,144.6,0,0,1,55.67-53.177A94.446,94.446,0,0,0,146.181,207.1,1.48,1.48,0,0,0,145.027,207.505Z" transform="translate(-21.754 -53.898)" fill="#7356ea"/></g></g><text transform="translate(1106 739)" fill="#130646" stroke="rgba(0,0,0,0)" stroke-width="1" font-size="28" font-family="Inter-Bold, Inter" font-weight="700" letter-spacing="0.013em"><tspan x="0" y="0">Gorakhpur</tspan></text></g></svg>