<svg xmlns="http://www.w3.org/2000/svg" xmlns:xlink="http://www.w3.org/1999/xlink" width="1226" height="320" viewBox="0 0 1226 320">
  <defs>
    <linearGradient id="linear-gradient" x1="1.053" y1="0.536" x2="0.082" y2="0.954" gradientUnits="objectBoundingBox">
      <stop offset="0" stop-color="#ff5353"/>
      <stop offset="1" stop-color="#b5068d"/>
    </linearGradient>
    <linearGradient id="linear-gradient-3" x1="1.763" y1="-0.212" x2="-0.081" y2="1.535" gradientUnits="objectBoundingBox">
      <stop offset="0" stop-color="#7356ea"/>
      <stop offset="1" stop-color="#3a2b75"/>
    </linearGradient>
  </defs>
  <g id="long_logo" transform="translate(-218 -656)">
    <rect id="Rectangle_9" data-name="Rectangle 9" width="1226" height="320" transform="translate(218 656)" fill="#fff"/>
    <path id="Path_18" data-name="Path 18" d="M-1313.473,743.4q-4.265-4-4.264-11.6v-28.08h-8.112v-10.4h8.112v-14.56h13.728v14.56h12.065v10.4h-12.065v26a7.629,7.629,0,0,0,1.2,4.68q1.2,1.561,4.316,1.561a12.686,12.686,0,0,0,3.484-.52,10.928,10.928,0,0,0,3.068-1.352v11.44a14.768,14.768,0,0,1-4.42,1.456,28.21,28.21,0,0,1-4.732.416Q-1309.209,747.4-1313.473,743.4Zm751.192-3.276q-6.449-7.177-6.449-20.7,0-14.56,6.6-21.111t19.188-6.552q8.736,0,14.508,3.067a19.65,19.65,0,0,1,8.684,9.2q2.912,6.136,2.911,15.392,0,13.52-6.76,20.7t-19.24,7.176Q-555.832,747.3-562.28,740.12Zm11.96-35.776a10.435,10.435,0,0,0-4.056,5.616,30.364,30.364,0,0,0-1.248,9.464q0,8.216,2.964,12.636t9.724,4.42a12.338,12.338,0,0,0,7.436-2.08,11.99,11.99,0,0,0,4.212-5.927,27.308,27.308,0,0,0,1.352-9.049,27.971,27.971,0,0,0-1.4-9.671,10.56,10.56,0,0,0-4.263-5.513,13.758,13.758,0,0,0-7.332-1.768A13.093,13.093,0,0,0-550.32,704.344Zm-72.7,35.776q-6.448-7.177-6.448-20.7,0-14.56,6.6-21.111t19.188-6.552q8.737,0,14.508,3.067a19.65,19.65,0,0,1,8.684,9.2q2.912,6.136,2.912,15.392,0,13.52-6.76,20.7t-19.24,7.176Q-616.569,747.3-623.017,740.12Zm11.96-35.776a10.439,10.439,0,0,0-4.056,5.616,30.394,30.394,0,0,0-1.247,9.464q0,8.216,2.964,12.636t9.724,4.42a12.343,12.343,0,0,0,7.437-2.08,12,12,0,0,0,4.212-5.927,27.332,27.332,0,0,0,1.352-9.049,27.971,27.971,0,0,0-1.4-9.671,10.557,10.557,0,0,0-4.264-5.513,13.756,13.756,0,0,0-7.332-1.768A13.1,13.1,0,0,0-611.057,704.344ZM-873.137,746.1a60.279,60.279,0,0,1-7.592-2.859V731.28q2.392,1.559,5.045,2.964a27.622,27.622,0,0,0,5.719,2.236,25.553,25.553,0,0,0,6.709.833q4.055,0,6.084-1.56a4.79,4.79,0,0,0,2.028-3.953,3.905,3.905,0,0,0-1.56-3.276,13.854,13.854,0,0,0-4.056-2.028q-2.5-.832-5.3-1.664a39.8,39.8,0,0,1-5.252-1.664,18.182,18.182,0,0,1-4.836-2.808,12.661,12.661,0,0,1-3.484-4.523,15.643,15.643,0,0,1-1.3-6.709,15.515,15.515,0,0,1,1.872-7.9,15.593,15.593,0,0,1,4.94-5.252,21.154,21.154,0,0,1,6.656-2.912,25.963,25.963,0,0,1,7.02-.78,32.315,32.315,0,0,1,9.671,1.353,43.66,43.66,0,0,1,6.864,3.016v10.815q-3.64-1.975-7.02-3.587a18.05,18.05,0,0,0-7.852-1.612,11.833,11.833,0,0,0-6.292,1.4,4.377,4.377,0,0,0-2.237,3.9,4.61,4.61,0,0,0,1.352,3.484,9.715,9.715,0,0,0,3.588,2.08q2.236.78,4.836,1.508t5.356,1.612a21.116,21.116,0,0,1,5.2,2.5,11.933,11.933,0,0,1,3.952,4.42,15.345,15.345,0,0,1,1.508,7.28q-.1,6.136-3.276,9.828a18.023,18.023,0,0,1-8.164,5.356,33.32,33.32,0,0,1-10.608,1.664A33.337,33.337,0,0,1-873.137,746.1ZM-998.3,744.071a22.233,22.233,0,0,1-9.1-9.308,31.072,31.072,0,0,1-3.225-14.716q0-13.728,6.6-21.009t18.668-7.279q8.529,0,13.832,3.744a20.992,20.992,0,0,1,7.7,10.712,49.413,49.413,0,0,1,2.288,16.536h-35.7a15.913,15.913,0,0,0,3.619,9.048q3.8,4.265,11.7,4.264a29.973,29.973,0,0,0,6.188-.624,35.389,35.389,0,0,0,5.513-1.612q2.547-.988,4.42-1.82v11.751a47.823,47.823,0,0,1-8.32,2.548,50.085,50.085,0,0,1-10.5.988A27.981,27.981,0,0,1-998.3,744.071Zm23.515-30.264q-.609-5.349-2.611-8.06-2.653-3.588-8.476-3.588a11.407,11.407,0,0,0-6.136,1.612,10.234,10.234,0,0,0-4,5.356,21.085,21.085,0,0,0-1.084,4.68Zm-169.271,32.656a21.31,21.31,0,0,1-7.072-2.808,14.16,14.16,0,0,1-4.94-5.356,17.5,17.5,0,0,1-1.82-8.373,17.6,17.6,0,0,1,2.184-9.1,13.915,13.915,0,0,1,6.4-5.616,24.848,24.848,0,0,1,10.348-1.923,33.927,33.927,0,0,1,6.968.676,27.292,27.292,0,0,1,5.824,1.872q1.19.547,2.184,1.127v-4.2q0-5.1-3.224-7.436t-9.049-2.34a29.751,29.751,0,0,0-9.152,1.508,22.96,22.96,0,0,0-7.592,3.9V696.44a26.278,26.278,0,0,1,8.424-3.172,53.406,53.406,0,0,1,12.064-1.3,37.329,37.329,0,0,1,5.72.468,25.857,25.857,0,0,1,5.824,1.612,17.131,17.131,0,0,1,5.1,3.224,15.055,15.055,0,0,1,3.641,5.148,18.4,18.4,0,0,1,1.352,7.436l-.1,24.856a9.624,9.624,0,0,1-3.067,7.54,18.159,18.159,0,0,1-8.633,3.9,64.9,64.9,0,0,1-12.947,1.144A40.854,40.854,0,0,1-1144.057,746.464Zm1.975-22.153a6.117,6.117,0,0,0-2.7,5.513,6.489,6.489,0,0,0,1.456,4.264,8.515,8.515,0,0,0,3.744,2.6,13.89,13.89,0,0,0,4.783.832,31.125,31.125,0,0,0,8.268-.78,3.252,3.252,0,0,0,2.548-3.38v-9.12a23.853,23.853,0,0,0-2.548-.812,28.906,28.906,0,0,0-7.332-.884Q-1139.377,722.543-1142.081,724.311Zm355.109,22.153a39.542,39.542,0,0,1-7.54-1.664,48.526,48.526,0,0,1-6.864-2.912V728.159a33.349,33.349,0,0,0,10.3,5.564,36.737,36.737,0,0,0,11.96,2.029q5.616,0,8.476-2.237a7.639,7.639,0,0,0,2.86-6.4,6.472,6.472,0,0,0-2.34-5.2,21.142,21.142,0,0,0-6.188-3.433q-3.847-1.455-8.424-3.016-3.224-1.143-6.292-2.548a21.878,21.878,0,0,1-5.512-3.588,15.814,15.814,0,0,1-3.9-5.459,19.835,19.835,0,0,1-1.455-8.06,20.8,20.8,0,0,1,1.455-7.592,19.5,19.5,0,0,1,4.472-6.76,21.192,21.192,0,0,1,7.852-4.784,33.15,33.15,0,0,1,11.388-1.768,46.565,46.565,0,0,1,7.436.519,33.437,33.437,0,0,1,6.032,1.561,64.98,64.98,0,0,1,6.084,2.6V693.32q-2.495-1.769-5.3-3.38a31.991,31.991,0,0,0-5.98-2.651,24.252,24.252,0,0,0-6.917-1.144,18.217,18.217,0,0,0-6.448.832,8.7,8.7,0,0,0-4.16,2.808,7.065,7.065,0,0,0-1.456,4.472,7.184,7.184,0,0,0,1.82,5.148,13.548,13.548,0,0,0,5.044,3.172q3.225,1.249,7.28,2.5a76.784,76.784,0,0,1,7.7,2.808,26.87,26.87,0,0,1,6.4,3.8,15.561,15.561,0,0,1,4.316,5.565,19.026,19.026,0,0,1,1.56,8.112,22.393,22.393,0,0,1-2.652,10.764,19.474,19.474,0,0,1-8.059,7.9q-5.408,2.965-13.624,2.965A74.764,74.764,0,0,1-786.973,746.464Zm-580.112,0a39.539,39.539,0,0,1-7.54-1.664,48.524,48.524,0,0,1-6.864-2.912V728.159a33.35,33.35,0,0,0,10.3,5.564,36.741,36.741,0,0,0,11.96,2.029q5.616,0,8.476-2.237a7.639,7.639,0,0,0,2.86-6.4,6.472,6.472,0,0,0-2.34-5.2,21.13,21.13,0,0,0-6.188-3.433q-3.847-1.455-8.424-3.016-3.224-1.143-6.292-2.548a21.876,21.876,0,0,1-5.512-3.588,15.813,15.813,0,0,1-3.9-5.459,19.835,19.835,0,0,1-1.455-8.06,20.8,20.8,0,0,1,1.455-7.592,19.5,19.5,0,0,1,4.472-6.76,21.2,21.2,0,0,1,7.853-4.784,33.15,33.15,0,0,1,11.388-1.768,46.557,46.557,0,0,1,7.436.519,33.439,33.439,0,0,1,6.032,1.561,64.98,64.98,0,0,1,6.084,2.6V693.32q-2.495-1.769-5.3-3.38a31.991,31.991,0,0,0-5.98-2.651,24.252,24.252,0,0,0-6.917-1.144,18.217,18.217,0,0,0-6.448.832,8.7,8.7,0,0,0-4.16,2.808,7.065,7.065,0,0,0-1.456,4.472,7.184,7.184,0,0,0,1.82,5.148,13.544,13.544,0,0,0,5.044,3.172q3.224,1.249,7.279,2.5a76.781,76.781,0,0,1,7.7,2.808,26.869,26.869,0,0,1,6.4,3.8A15.561,15.561,0,0,1-1335,717.24a19.027,19.027,0,0,1,1.56,8.112,22.392,22.392,0,0,1-2.652,10.764,19.474,19.474,0,0,1-8.059,7.9q-5.408,2.965-13.624,2.965A74.763,74.763,0,0,1-1367.085,746.464Zm639.859-1.093a24.39,24.39,0,0,1-8.528-4.68,21.869,21.869,0,0,1-5.928-8.32,31.457,31.457,0,0,1-2.183-12.324,35.4,35.4,0,0,1,2.08-12.9,23.161,23.161,0,0,1,5.72-8.684,22.409,22.409,0,0,1,8.476-4.94,33.151,33.151,0,0,1,10.244-1.56,45.265,45.265,0,0,1,8.581.832,36.5,36.5,0,0,1,7.852,2.392v11.544a58.854,58.854,0,0,0-7.124-2.549,26.386,26.386,0,0,0-7.228-.987q-7.383,0-11.44,3.64T-730.76,718.7q0,8.633,3.744,12.74t12.271,4.108a24.307,24.307,0,0,0,7.436-1.144,45.222,45.222,0,0,0,6.5-2.6V743.24a36.7,36.7,0,0,1-7.592,2.7,38.439,38.439,0,0,1-8.84.936A32.991,32.991,0,0,1-727.225,745.371Zm222.041.365v-72.28h13.1v72.28Zm-149.241,0v-31.2q0-5.72-2.756-8.58t-8.164-2.86a19.661,19.661,0,0,0-5.616.832,21.137,21.137,0,0,0-4.888,2.08l-.208,39.728h-13.1V671.9h13.312v24.141A38.032,38.032,0,0,1-671.377,694a29.523,29.523,0,0,1,10.607-2.028,24.247,24.247,0,0,1,10.3,2.028,14.752,14.752,0,0,1,6.812,6.448q2.445,4.421,2.444,11.8v33.488Zm-295.359,0v-47.32a27.826,27.826,0,0,1,5.148-2.548,61.306,61.306,0,0,1,8.58-2.7,41.421,41.421,0,0,1,9.88-1.2,25.064,25.064,0,0,1,5.98.572,13.136,13.136,0,0,1,3.588,1.4v9.985q-2.08-.313-4.732-.52t-5.408-.157q-2.755.053-5.3.26t-4.524.52v41.7Zm-86.112,0v-51.9h13.208l.1,51.9Zm-45.656,0L-1103.5,693.32h14.248L-1074,731.266l13.867-37.946h13.832l-22.048,52.416Zm-99.841,0-16.508-23.989-15.212,23.989h-15.6l23.379-34.791-23.795-34.577h17.473l16.35,23.759,14.849-23.759h15.912l-23.165,34.8,23.79,34.571Zm-98.8,0V732.319h13.728v13.416Zm376.48-49.4-1.872-20.9h10.815l-1.768,20.9Zm-132.5-10.816V674.6h13.832v10.92Z" transform="translate(1898.009 98.1)" fill="#160752" stroke="rgba(0,0,0,0)" stroke-width="1"/>
    <path id="Path_19" data-name="Path 19" d="M6.173,3.477H.69l8.355-24.2h6.594l8.343,24.2H18.5L12.436-15.194h-.189ZM5.83-6.036H18.782v3.994H5.83Zm30.814-8.638v3.781h-11.2v-3.781ZM28.007,3.477V-15.986a6.312,6.312,0,0,1,.774-3.273,4.9,4.9,0,0,1,2.121-1.95,6.957,6.957,0,0,1,3.061-.65,11.748,11.748,0,0,1,2.121.177,14.668,14.668,0,0,1,1.436.319l-.9,3.781a6.363,6.363,0,0,0-.727-.177,4.664,4.664,0,0,0-.88-.083,1.951,1.951,0,0,0-1.548.514,2.149,2.149,0,0,0-.437,1.436V3.477Zm21.9-18.151v3.781h-11.2v-3.781ZM41.273,3.477V-15.986a6.312,6.312,0,0,1,.774-3.273,4.9,4.9,0,0,1,2.121-1.95,6.957,6.957,0,0,1,3.061-.65,11.748,11.748,0,0,1,2.121.177,14.668,14.668,0,0,1,1.436.319l-.9,3.781a6.363,6.363,0,0,0-.727-.177,4.664,4.664,0,0,0-.88-.083,1.951,1.951,0,0,0-1.548.514,2.149,2.149,0,0,0-.437,1.436V3.477Zm12.143,0V-14.675H58.45V3.477Zm2.529-20.491a2.7,2.7,0,0,1-1.92-.75,2.387,2.387,0,0,1-.8-1.8,2.374,2.374,0,0,1,.8-1.79,2.7,2.7,0,0,1,1.92-.75,2.7,2.7,0,0,1,1.92.75,2.374,2.374,0,0,1,.8,1.79,2.387,2.387,0,0,1-.8,1.8A2.7,2.7,0,0,1,55.945-17.014Zm11.99-3.711v24.2H62.9v-24.2Zm4.45,24.2V-14.675h5.034V3.477Zm2.529-20.491a2.7,2.7,0,0,1-1.92-.75,2.387,2.387,0,0,1-.8-1.8,2.374,2.374,0,0,1,.8-1.79,2.7,2.7,0,0,1,1.92-.75,2.7,2.7,0,0,1,1.92.75,2.375,2.375,0,0,1,.8,1.79,2.387,2.387,0,0,1-.8,1.8A2.7,2.7,0,0,1,74.914-17.014ZM87.045,3.819a7.5,7.5,0,0,1-3.1-.609A4.894,4.894,0,0,1,81.8,1.4a5.356,5.356,0,0,1-.786-3,5.292,5.292,0,0,1,.555-2.541,4.5,4.5,0,0,1,1.513-1.654,7.328,7.328,0,0,1,2.18-.945,16.416,16.416,0,0,1,2.57-.449q1.583-.165,2.552-.313A3.565,3.565,0,0,0,91.8-7.939a.987.987,0,0,0,.437-.874v-.071a2.184,2.184,0,0,0-.7-1.737,2.931,2.931,0,0,0-1.991-.614,3.547,3.547,0,0,0-2.163.6,2.8,2.8,0,0,0-1.064,1.495l-4.656-.378a6.368,6.368,0,0,1,1.394-2.866,6.764,6.764,0,0,1,2.688-1.867,10.294,10.294,0,0,1,3.823-.656,11.683,11.683,0,0,1,2.9.355,7.65,7.65,0,0,1,2.47,1.1,5.377,5.377,0,0,1,1.708,1.908,5.8,5.8,0,0,1,.626,2.783V3.477H92.493V.96h-.142a5.048,5.048,0,0,1-1.17,1.495,5.276,5.276,0,0,1-1.761,1A7.169,7.169,0,0,1,87.045,3.819ZM88.487.345A4.186,4.186,0,0,0,90.449-.1a3.43,3.43,0,0,0,1.335-1.2,3.108,3.108,0,0,0,.484-1.713V-4.937a2.574,2.574,0,0,1-.644.278q-.408.124-.916.225t-1.016.177q-.508.077-.922.136a6.227,6.227,0,0,0-1.548.414,2.5,2.5,0,0,0-1.028.762,1.9,1.9,0,0,0-.366,1.188,1.806,1.806,0,0,0,.75,1.566A3.2,3.2,0,0,0,88.487.345Zm22.779-15.02v3.781H100.335v-3.781Zm-8.449-4.349h5.034V-2.1a2.258,2.258,0,0,0,.213,1.081,1.164,1.164,0,0,0,.6.538,2.391,2.391,0,0,0,.892.154,3.924,3.924,0,0,0,.709-.065l.544-.1.792,3.746q-.378.118-1.064.278a8.888,8.888,0,0,1-1.666.195,7.609,7.609,0,0,1-3.185-.485,4.449,4.449,0,0,1-2.121-1.725,5.275,5.275,0,0,1-.744-2.954ZM123.055,3.831a9.624,9.624,0,0,1-4.815-1.14,7.714,7.714,0,0,1-3.1-3.238,10.666,10.666,0,0,1-1.087-4.969,10.611,10.611,0,0,1,1.087-4.916,8.024,8.024,0,0,1,3.067-3.3,8.9,8.9,0,0,1,4.65-1.182,9.607,9.607,0,0,1,3.35.573,7.551,7.551,0,0,1,2.718,1.719,7.832,7.832,0,0,1,1.814,2.877,11.494,11.494,0,0,1,.65,4.047v1.383H116.059v-3.12h10.588a3.857,3.857,0,0,0-.473-1.926,3.439,3.439,0,0,0-1.306-1.318,3.81,3.81,0,0,0-1.932-.479,3.875,3.875,0,0,0-2.027.526,3.772,3.772,0,0,0-1.377,1.406,4.005,4.005,0,0,0-.508,1.956V-4.3a5.049,5.049,0,0,0,.5,2.328,3.6,3.6,0,0,0,1.424,1.513,4.3,4.3,0,0,0,2.186.532,4.761,4.761,0,0,0,1.536-.236,3.188,3.188,0,0,0,1.194-.709,3.083,3.083,0,0,0,.756-1.158l4.656.307A6.347,6.347,0,0,1,129.832,1.2a7.273,7.273,0,0,1-2.812,1.938A10.57,10.57,0,0,1,123.055,3.831Zm18.737-.059a6.8,6.8,0,0,1-3.74-1.069A7.28,7.28,0,0,1,135.4-.453a12.054,12.054,0,0,1-.975-5.123,11.885,11.885,0,0,1,1-5.194,7.237,7.237,0,0,1,2.677-3.108,6.842,6.842,0,0,1,3.669-1.034,5.639,5.639,0,0,1,2.547.514,5.07,5.07,0,0,1,1.654,1.276,6.674,6.674,0,0,1,.963,1.495h.154v-9.1h5.022v24.2h-4.963V.57h-.213a6.468,6.468,0,0,1-1,1.495,5.031,5.031,0,0,1-1.666,1.223A5.776,5.776,0,0,1,141.792,3.772Zm1.6-4.006A3.223,3.223,0,0,0,145.449-.9a4.215,4.215,0,0,0,1.3-1.873A7.984,7.984,0,0,0,147.2-5.6a7.98,7.98,0,0,0-.449-2.812,4.037,4.037,0,0,0-1.3-1.843,3.306,3.306,0,0,0-2.068-.65,3.265,3.265,0,0,0-2.092.674,4.119,4.119,0,0,0-1.288,1.867A8.02,8.02,0,0,0,139.57-5.6a8.112,8.112,0,0,0,.443,2.795A4.215,4.215,0,0,0,141.3-.913,3.222,3.222,0,0,0,143.387-.234Zm31.093-14.441v3.781H163.55v-3.781Zm-8.449-4.349h5.034V-2.1a2.258,2.258,0,0,0,.213,1.081,1.164,1.164,0,0,0,.6.538,2.391,2.391,0,0,0,.892.154,3.924,3.924,0,0,0,.709-.065l.544-.1.792,3.746q-.378.118-1.064.278a8.888,8.888,0,0,1-1.666.195A7.609,7.609,0,0,1,168.9,3.24a4.449,4.449,0,0,1-2.121-1.725,5.275,5.275,0,0,1-.744-2.954ZM186.2,3.831a9.23,9.23,0,0,1-4.756-1.176,7.946,7.946,0,0,1-3.09-3.285,10.547,10.547,0,0,1-1.087-4.9,10.6,10.6,0,0,1,1.087-4.922,7.946,7.946,0,0,1,3.09-3.285,9.23,9.23,0,0,1,4.756-1.176,9.23,9.23,0,0,1,4.756,1.176,7.947,7.947,0,0,1,3.09,3.285,10.6,10.6,0,0,1,1.087,4.922,10.547,10.547,0,0,1-1.087,4.9,7.947,7.947,0,0,1-3.09,3.285A9.23,9.23,0,0,1,186.2,3.831Zm.024-3.9a3.113,3.113,0,0,0,2.092-.715,4.4,4.4,0,0,0,1.27-1.956,8.577,8.577,0,0,0,.431-2.824,8.577,8.577,0,0,0-.431-2.824,4.44,4.44,0,0,0-1.27-1.962,3.1,3.1,0,0,0-2.092-.721,3.182,3.182,0,0,0-2.121.721,4.368,4.368,0,0,0-1.288,1.962,8.577,8.577,0,0,0-.431,2.824,8.577,8.577,0,0,0,.431,2.824A4.327,4.327,0,0,0,184.1-.783,3.2,3.2,0,0,0,186.222-.069Zm42.225-12.183h-5.176a5.12,5.12,0,0,0-.579-1.79,4.565,4.565,0,0,0-1.123-1.341,4.952,4.952,0,0,0-1.578-.851,6.112,6.112,0,0,0-1.932-.3,5.771,5.771,0,0,0-3.273.928,6.006,6.006,0,0,0-2.163,2.694,10.72,10.72,0,0,0-.768,4.284,10.807,10.807,0,0,0,.774,4.349A5.856,5.856,0,0,0,214.8-1.617a5.826,5.826,0,0,0,3.226.9,6.441,6.441,0,0,0,1.908-.272,4.941,4.941,0,0,0,1.566-.8,4.566,4.566,0,0,0,1.14-1.282,5.093,5.093,0,0,0,.632-1.725l5.176.024a9.38,9.38,0,0,1-1,3.208A9.691,9.691,0,0,1,225.31,1.19,10.011,10.011,0,0,1,222.119,3.1a11.687,11.687,0,0,1-4.177.7,11.387,11.387,0,0,1-5.784-1.465A10.351,10.351,0,0,1,208.14-1.9a14.2,14.2,0,0,1-1.471-6.724,14.088,14.088,0,0,1,1.489-6.736A10.415,10.415,0,0,1,212.2-19.6a11.362,11.362,0,0,1,5.743-1.459,12.467,12.467,0,0,1,3.906.591,9.963,9.963,0,0,1,3.2,1.719,9.018,9.018,0,0,1,2.275,2.759A10.337,10.337,0,0,1,228.447-12.252ZM235.4,3.784a2.731,2.731,0,0,1-2-.833,2.731,2.731,0,0,1-.833-2,2.7,2.7,0,0,1,.833-1.985,2.741,2.741,0,0,1,2-.827,2.759,2.759,0,0,1,1.985.827,2.671,2.671,0,0,1,.851,1.985,2.666,2.666,0,0,1-.4,1.424A3.038,3.038,0,0,1,236.809,3.4,2.676,2.676,0,0,1,235.4,3.784Zm7.487-.307v-24.2h9.69a11,11,0,0,1,4.455.792,5.932,5.932,0,0,1,2.682,2.192,5.834,5.834,0,0,1,.9,3.22,5.232,5.232,0,0,1-.567,2.488,4.851,4.851,0,0,1-1.554,1.749,6.392,6.392,0,0,1-2.251.963v.236a5.456,5.456,0,0,1,2.594.78,5.552,5.552,0,0,1,1.968,2.015,6,6,0,0,1,.756,3.078A6.293,6.293,0,0,1,260.61.221,6.473,6.473,0,0,1,257.8,2.6a10.689,10.689,0,0,1-4.573.874Zm5.117-4.183h4.171a4.824,4.824,0,0,0,3.12-.821,2.714,2.714,0,0,0,.981-2.192,3.252,3.252,0,0,0-.484-1.773A3.3,3.3,0,0,0,254.418-6.7a4.774,4.774,0,0,0-2.121-.437h-4.29Zm0-9.891H251.8a4.491,4.491,0,0,0,1.873-.372,3.114,3.114,0,0,0,1.3-1.058,2.8,2.8,0,0,0,.479-1.643,2.662,2.662,0,0,0-.928-2.115,3.894,3.894,0,0,0-2.629-.8h-3.888ZM268.163,3.784a2.731,2.731,0,0,1-2-.833,2.731,2.731,0,0,1-.833-2,2.7,2.7,0,0,1,.833-1.985,2.741,2.741,0,0,1,2-.827,2.759,2.759,0,0,1,1.985.827A2.671,2.671,0,0,1,271,.948a2.666,2.666,0,0,1-.4,1.424A3.038,3.038,0,0,1,269.569,3.4,2.676,2.676,0,0,1,268.163,3.784Zm20.616-17.548a2.991,2.991,0,0,0-1.217-2.222,4.824,4.824,0,0,0-2.919-.792,5.659,5.659,0,0,0-2.115.349,2.975,2.975,0,0,0-1.318.963,2.284,2.284,0,0,0-.455,1.394,1.963,1.963,0,0,0,.278,1.134,2.71,2.71,0,0,0,.833.833,5.95,5.95,0,0,0,1.229.6,12.01,12.01,0,0,0,1.489.431l2.174.52a15.337,15.337,0,0,1,2.907.945,8.831,8.831,0,0,1,2.293,1.454,6.111,6.111,0,0,1,1.507,2.033,6.482,6.482,0,0,1,.549,2.682A6.688,6.688,0,0,1,292.885.41a7.19,7.19,0,0,1-3.214,2.517,12.877,12.877,0,0,1-5.052.892,13.268,13.268,0,0,1-5.1-.9,7.421,7.421,0,0,1-3.38-2.665,7.889,7.889,0,0,1-1.27-4.378h4.951a3.658,3.658,0,0,0,.7,2.027,3.77,3.77,0,0,0,1.666,1.217,6.483,6.483,0,0,0,2.369.408,6.175,6.175,0,0,0,2.263-.378A3.463,3.463,0,0,0,288.318-1.9a2.429,2.429,0,0,0,.532-1.548,2.026,2.026,0,0,0-.479-1.371,3.736,3.736,0,0,0-1.394-.945,14.4,14.4,0,0,0-2.239-.709L282.1-7.135a11.05,11.05,0,0,1-4.833-2.328,5.4,5.4,0,0,1-1.761-4.266,6.321,6.321,0,0,1,1.176-3.841,7.849,7.849,0,0,1,3.267-2.564,11.554,11.554,0,0,1,4.727-.922,11.224,11.224,0,0,1,4.709.922,7.446,7.446,0,0,1,3.137,2.564,6.785,6.785,0,0,1,1.158,3.805ZM300.721,3.784a2.731,2.731,0,0,1-2-.833,2.731,2.731,0,0,1-.833-2,2.7,2.7,0,0,1,.833-1.985,2.741,2.741,0,0,1,2-.827,2.759,2.759,0,0,1,1.985.827,2.671,2.671,0,0,1,.851,1.985,2.666,2.666,0,0,1-.4,1.424A3.038,3.038,0,0,1,302.128,3.4,2.676,2.676,0,0,1,300.721,3.784Zm7.487-.307v-24.2h16.308v4.219H313.326v5.767h10.352v4.219H313.326V-.742h11.238V3.477ZM334.4.168l-.13,1.3a18.351,18.351,0,0,1-.585,3.114q-.431,1.554-.9,2.818t-.75,1.985h-3.262q.177-.7.484-1.944t.579-2.795a24.454,24.454,0,0,0,.343-3.155l.059-1.324Zm29.465-8.792a26.6,26.6,0,0,1,1.176-8.095,22.256,22.256,0,0,1,3.6-6.854h4.81a14.733,14.733,0,0,0-1.714,2.854,25.749,25.749,0,0,0-1.383,3.693,31.986,31.986,0,0,0-.922,4.154,27.831,27.831,0,0,0-.331,4.248,28.66,28.66,0,0,0,.573,5.654,29.861,29.861,0,0,0,1.56,5.3,16.344,16.344,0,0,0,2.216,4.006h-4.81a22.256,22.256,0,0,1-3.6-6.854A26.643,26.643,0,0,1,363.868-8.624Zm23.417-12.1v24.2h-5.117V-15.868h-.142l-5.542,3.474v-4.538l5.991-3.793ZM402.962,4.008a9.168,9.168,0,0,1-5.241-1.5,9.416,9.416,0,0,1-3.368-4.313A17.511,17.511,0,0,1,393.189-8.6a17.346,17.346,0,0,1,1.176-6.748,9.249,9.249,0,0,1,3.368-4.248,9.216,9.216,0,0,1,5.229-1.459,9.189,9.189,0,0,1,5.229,1.465,9.325,9.325,0,0,1,3.374,4.248,17.091,17.091,0,0,1,1.17,6.742,17.686,17.686,0,0,1-1.176,6.807A9.432,9.432,0,0,1,408.2,2.519,9.074,9.074,0,0,1,402.962,4.008Zm0-4.242a3.743,3.743,0,0,0,3.321-2.092A12.492,12.492,0,0,0,407.511-8.6a15.9,15.9,0,0,0-.561-4.585,5.975,5.975,0,0,0-1.584-2.753,3.474,3.474,0,0,0-2.4-.922,3.739,3.739,0,0,0-3.309,2.068A12.344,12.344,0,0,0,398.4-8.6a16.359,16.359,0,0,0,.561,4.65,6,6,0,0,0,1.589,2.789A3.483,3.483,0,0,0,402.962-.234Zm21.077.024V-16.943h4.23V-.21Zm-6.251-6.251v-4.231H434.52v4.231Zm21.384,9.938V-.21l8.615-7.977q1.1-1.064,1.849-1.914a7.3,7.3,0,0,0,1.14-1.672,4.093,4.093,0,0,0,.39-1.778,3.392,3.392,0,0,0-.485-1.838,3.234,3.234,0,0,0-1.324-1.194,4.2,4.2,0,0,0-1.9-.42,4,4,0,0,0-1.938.449,3.1,3.1,0,0,0-1.276,1.288,4.176,4.176,0,0,0-.449,2h-4.857a7.716,7.716,0,0,1,1.075-4.124,7.182,7.182,0,0,1,3.013-2.706,9.962,9.962,0,0,1,4.467-.957,10.48,10.48,0,0,1,4.532.916,7.229,7.229,0,0,1,3.007,2.535,6.551,6.551,0,0,1,1.075,3.711,7.19,7.19,0,0,1-.538,2.706,11.375,11.375,0,0,1-1.908,2.96A43.327,43.327,0,0,1,449.8-4.335L446.262-.872v.165h10.163V3.477ZM469.1-8.624a26.643,26.643,0,0,1-1.176,8.107,22.257,22.257,0,0,1-3.6,6.854h-4.81a14.673,14.673,0,0,0,1.713-2.86,26.109,26.109,0,0,0,1.383-3.693,31.7,31.7,0,0,0,.922-4.154,27.946,27.946,0,0,0,.331-4.254,28.662,28.662,0,0,0-.573-5.654,29.7,29.7,0,0,0-1.56-5.294,16.372,16.372,0,0,0-2.216-4h4.81a22.257,22.257,0,0,1,3.6,6.854A26.6,26.6,0,0,1,469.1-8.624Zm26.934-5.14a2.991,2.991,0,0,0-1.217-2.222,4.824,4.824,0,0,0-2.919-.792,5.659,5.659,0,0,0-2.115.349,2.974,2.974,0,0,0-1.318.963,2.284,2.284,0,0,0-.455,1.394,1.963,1.963,0,0,0,.278,1.134,2.71,2.71,0,0,0,.833.833,5.95,5.95,0,0,0,1.229.6,12.011,12.011,0,0,0,1.489.431l2.174.52a15.337,15.337,0,0,1,2.907.945,8.83,8.83,0,0,1,2.293,1.454,6.112,6.112,0,0,1,1.507,2.033,6.482,6.482,0,0,1,.549,2.682A6.688,6.688,0,0,1,500.14.41a7.19,7.19,0,0,1-3.214,2.517,12.877,12.877,0,0,1-5.052.892,13.268,13.268,0,0,1-5.1-.9A7.421,7.421,0,0,1,483.4.256a7.89,7.89,0,0,1-1.27-4.378h4.951a3.658,3.658,0,0,0,.7,2.027,3.769,3.769,0,0,0,1.666,1.217,6.483,6.483,0,0,0,2.369.408,6.175,6.175,0,0,0,2.263-.378A3.463,3.463,0,0,0,495.573-1.9a2.429,2.429,0,0,0,.532-1.548,2.027,2.027,0,0,0-.479-1.371,3.737,3.737,0,0,0-1.394-.945,14.4,14.4,0,0,0-2.239-.709l-2.635-.662a11.05,11.05,0,0,1-4.833-2.328,5.4,5.4,0,0,1-1.761-4.266,6.321,6.321,0,0,1,1.176-3.841,7.849,7.849,0,0,1,3.267-2.564,11.554,11.554,0,0,1,4.727-.922,11.224,11.224,0,0,1,4.709.922,7.447,7.447,0,0,1,3.137,2.564,6.785,6.785,0,0,1,1.158,3.805Zm17.272,17.6a9.624,9.624,0,0,1-4.815-1.14,7.714,7.714,0,0,1-3.1-3.238A10.666,10.666,0,0,1,504.3-5.516a10.611,10.611,0,0,1,1.087-4.916,8.024,8.024,0,0,1,3.067-3.3,8.9,8.9,0,0,1,4.65-1.182,9.606,9.606,0,0,1,3.35.573,7.551,7.551,0,0,1,2.718,1.719,7.832,7.832,0,0,1,1.814,2.877,11.494,11.494,0,0,1,.65,4.047v1.383H506.31v-3.12H516.9a3.856,3.856,0,0,0-.473-1.926,3.44,3.44,0,0,0-1.306-1.318,3.81,3.81,0,0,0-1.932-.479,3.876,3.876,0,0,0-2.027.526,3.772,3.772,0,0,0-1.377,1.406,4.005,4.005,0,0,0-.508,1.956V-4.3a5.049,5.049,0,0,0,.5,2.328A3.6,3.6,0,0,0,511.2-.459a4.3,4.3,0,0,0,2.186.532,4.761,4.761,0,0,0,1.536-.236,3.189,3.189,0,0,0,1.194-.709,3.083,3.083,0,0,0,.756-1.158l4.656.307A6.347,6.347,0,0,1,520.083,1.2,7.273,7.273,0,0,1,517.27,3.14,10.569,10.569,0,0,1,513.306,3.831ZM530.389-7.017V3.477h-5.034V-14.675h4.8v3.2h.213a5.1,5.1,0,0,1,2.021-2.511,6.144,6.144,0,0,1,3.439-.928,6.383,6.383,0,0,1,3.3.827,5.63,5.63,0,0,1,2.186,2.358,7.94,7.94,0,0,1,.78,3.646V3.477h-5.034V-7.182a3.667,3.667,0,0,0-.851-2.606,3.064,3.064,0,0,0-2.375-.939,3.577,3.577,0,0,0-1.79.437,3.008,3.008,0,0,0-1.205,1.27A4.408,4.408,0,0,0,530.389-7.017Zm16.09,10.494V-14.675h5.034V3.477Zm2.529-20.491a2.7,2.7,0,0,1-1.92-.75,2.387,2.387,0,0,1-.8-1.8,2.375,2.375,0,0,1,.8-1.79,2.7,2.7,0,0,1,1.92-.75,2.7,2.7,0,0,1,1.92.75,2.374,2.374,0,0,1,.8,1.79,2.387,2.387,0,0,1-.8,1.8A2.7,2.7,0,0,1,549.008-17.014ZM564.165,3.831a9.23,9.23,0,0,1-4.756-1.176,7.946,7.946,0,0,1-3.09-3.285,10.547,10.547,0,0,1-1.087-4.9,10.6,10.6,0,0,1,1.087-4.922,7.946,7.946,0,0,1,3.09-3.285,9.23,9.23,0,0,1,4.756-1.176,9.23,9.23,0,0,1,4.756,1.176,7.946,7.946,0,0,1,3.09,3.285A10.6,10.6,0,0,1,573.1-5.528a10.547,10.547,0,0,1-1.087,4.9,7.946,7.946,0,0,1-3.09,3.285A9.23,9.23,0,0,1,564.165,3.831Zm.024-3.9a3.113,3.113,0,0,0,2.092-.715,4.4,4.4,0,0,0,1.27-1.956,8.575,8.575,0,0,0,.431-2.824,8.575,8.575,0,0,0-.431-2.824,4.44,4.44,0,0,0-1.27-1.962,3.1,3.1,0,0,0-2.092-.721,3.182,3.182,0,0,0-2.121.721,4.368,4.368,0,0,0-1.288,1.962,8.577,8.577,0,0,0-.431,2.824,8.577,8.577,0,0,0,.431,2.824,4.327,4.327,0,0,0,1.288,1.956A3.2,3.2,0,0,0,564.188-.069Zm12.628,3.545V-14.675h4.88v3.167h.189a4.718,4.718,0,0,1,1.666-2.558,4.4,4.4,0,0,1,2.694-.869,7.614,7.614,0,0,1,.815.047,5.738,5.738,0,0,1,.768.13v4.467a6.579,6.579,0,0,0-.981-.189,8.811,8.811,0,0,0-1.146-.083,4.033,4.033,0,0,0-1.979.479,3.556,3.556,0,0,0-1.371,1.329,3.786,3.786,0,0,0-.5,1.962V3.477Zm35.407-17.241a2.99,2.99,0,0,0-1.217-2.222,4.824,4.824,0,0,0-2.919-.792,5.659,5.659,0,0,0-2.115.349,2.975,2.975,0,0,0-1.318.963,2.283,2.283,0,0,0-.455,1.394,1.963,1.963,0,0,0,.278,1.134,2.709,2.709,0,0,0,.833.833,5.949,5.949,0,0,0,1.229.6,12.015,12.015,0,0,0,1.489.431l2.174.52a15.336,15.336,0,0,1,2.907.945A8.831,8.831,0,0,1,615.4-8.151a6.111,6.111,0,0,1,1.507,2.033,6.483,6.483,0,0,1,.549,2.682A6.689,6.689,0,0,1,616.329.41a7.19,7.19,0,0,1-3.214,2.517,12.877,12.877,0,0,1-5.052.892,13.268,13.268,0,0,1-5.1-.9,7.421,7.421,0,0,1-3.38-2.665,7.89,7.89,0,0,1-1.27-4.378h4.951a3.658,3.658,0,0,0,.7,2.027,3.77,3.77,0,0,0,1.666,1.217A6.483,6.483,0,0,0,608-.47a6.175,6.175,0,0,0,2.263-.378A3.464,3.464,0,0,0,611.762-1.9a2.429,2.429,0,0,0,.532-1.548,2.027,2.027,0,0,0-.479-1.371,3.737,3.737,0,0,0-1.394-.945,14.4,14.4,0,0,0-2.239-.709l-2.635-.662a11.05,11.05,0,0,1-4.833-2.328,5.4,5.4,0,0,1-1.761-4.266,6.32,6.32,0,0,1,1.176-3.841,7.849,7.849,0,0,1,3.267-2.564,11.554,11.554,0,0,1,4.727-.922,11.224,11.224,0,0,1,4.709.922,7.446,7.446,0,0,1,3.137,2.564,6.785,6.785,0,0,1,1.158,3.805Zm17.272,17.6a9.625,9.625,0,0,1-4.816-1.14,7.713,7.713,0,0,1-3.1-3.238,10.666,10.666,0,0,1-1.087-4.969,10.611,10.611,0,0,1,1.087-4.916,8.025,8.025,0,0,1,3.067-3.3,8.9,8.9,0,0,1,4.65-1.182,9.607,9.607,0,0,1,3.35.573,7.551,7.551,0,0,1,2.718,1.719,7.832,7.832,0,0,1,1.814,2.877,11.492,11.492,0,0,1,.65,4.047v1.383H622.5v-3.12h10.588a3.856,3.856,0,0,0-.473-1.926,3.439,3.439,0,0,0-1.306-1.318,3.81,3.81,0,0,0-1.932-.479,3.875,3.875,0,0,0-2.027.526,3.772,3.772,0,0,0-1.377,1.406,4,4,0,0,0-.508,1.956V-4.3a5.047,5.047,0,0,0,.5,2.328,3.6,3.6,0,0,0,1.424,1.513,4.3,4.3,0,0,0,2.186.532,4.761,4.761,0,0,0,1.536-.236,3.189,3.189,0,0,0,1.194-.709,3.083,3.083,0,0,0,.756-1.158l4.656.307A6.347,6.347,0,0,1,636.272,1.2a7.273,7.273,0,0,1-2.812,1.938A10.57,10.57,0,0,1,629.495,3.831Zm20.25,0a9.23,9.23,0,0,1-4.792-1.188,7.9,7.9,0,0,1-3.072-3.3,10.648,10.648,0,0,1-1.069-4.869,10.6,10.6,0,0,1,1.081-4.9,8,8,0,0,1,3.078-3.3,9.125,9.125,0,0,1,4.75-1.188,9.454,9.454,0,0,1,4.16.863,6.953,6.953,0,0,1,2.824,2.423,7.119,7.119,0,0,1,1.146,3.663H653.1a3.713,3.713,0,0,0-1.058-2.192,3.076,3.076,0,0,0-2.239-.833,3.371,3.371,0,0,0-2.038.632,4.082,4.082,0,0,0-1.353,1.838,7.831,7.831,0,0,0-.484,2.919,8.087,8.087,0,0,0,.479,2.954,4.06,4.06,0,0,0,1.353,1.855,3.375,3.375,0,0,0,2.044.638,3.356,3.356,0,0,0,1.554-.355A3.031,3.031,0,0,0,652.5-1.54a3.938,3.938,0,0,0,.6-1.637h4.75A7.44,7.44,0,0,1,656.723.481a6.879,6.879,0,0,1-2.783,2.464A9.279,9.279,0,0,1,649.745,3.831Zm19.978,0a9.229,9.229,0,0,1-4.756-1.176,7.947,7.947,0,0,1-3.09-3.285,10.548,10.548,0,0,1-1.087-4.9,10.6,10.6,0,0,1,1.087-4.922,7.947,7.947,0,0,1,3.09-3.285,9.229,9.229,0,0,1,4.756-1.176,9.23,9.23,0,0,1,4.756,1.176,7.947,7.947,0,0,1,3.09,3.285,10.6,10.6,0,0,1,1.087,4.922,10.547,10.547,0,0,1-1.087,4.9,7.947,7.947,0,0,1-3.09,3.285A9.23,9.23,0,0,1,669.723,3.831Zm.024-3.9a3.113,3.113,0,0,0,2.092-.715,4.4,4.4,0,0,0,1.27-1.956,8.577,8.577,0,0,0,.431-2.824,8.577,8.577,0,0,0-.431-2.824,4.44,4.44,0,0,0-1.27-1.962,3.1,3.1,0,0,0-2.092-.721,3.182,3.182,0,0,0-2.121.721,4.369,4.369,0,0,0-1.288,1.962,8.577,8.577,0,0,0-.431,2.824,8.577,8.577,0,0,0,.431,2.824,4.327,4.327,0,0,0,1.288,1.956A3.2,3.2,0,0,0,669.747-.069Zm17.662-6.948V3.477h-5.034V-14.675h4.8v3.2h.213a5.1,5.1,0,0,1,2.021-2.511,6.144,6.144,0,0,1,3.439-.928,6.384,6.384,0,0,1,3.3.827,5.631,5.631,0,0,1,2.186,2.358,7.94,7.94,0,0,1,.78,3.646V3.477h-5.034V-7.182a3.668,3.668,0,0,0-.851-2.606,3.064,3.064,0,0,0-2.375-.939,3.577,3.577,0,0,0-1.79.437,3.007,3.007,0,0,0-1.205,1.27A4.409,4.409,0,0,0,687.408-7.017ZM710.187,3.772a6.8,6.8,0,0,1-3.74-1.069A7.28,7.28,0,0,1,703.8-.453a12.054,12.054,0,0,1-.975-5.123,11.886,11.886,0,0,1,1-5.194,7.237,7.237,0,0,1,2.677-3.108,6.842,6.842,0,0,1,3.669-1.034,5.639,5.639,0,0,1,2.547.514,5.069,5.069,0,0,1,1.654,1.276,6.67,6.67,0,0,1,.963,1.495h.154v-9.1h5.022v24.2h-4.963V.57h-.213a6.465,6.465,0,0,1-1,1.495,5.032,5.032,0,0,1-1.666,1.223A5.776,5.776,0,0,1,710.187,3.772Zm1.6-4.006A3.223,3.223,0,0,0,713.845-.9a4.214,4.214,0,0,0,1.3-1.873A7.984,7.984,0,0,0,715.6-5.6a7.98,7.98,0,0,0-.449-2.812,4.037,4.037,0,0,0-1.3-1.843,3.307,3.307,0,0,0-2.068-.65,3.265,3.265,0,0,0-2.092.674A4.12,4.12,0,0,0,708.4-8.364a8.022,8.022,0,0,0-.437,2.765,8.111,8.111,0,0,0,.443,2.795A4.214,4.214,0,0,0,709.7-.913,3.222,3.222,0,0,0,711.783-.234Zm18.466,4.053a7.5,7.5,0,0,1-3.1-.609A4.893,4.893,0,0,1,725.007,1.4a5.356,5.356,0,0,1-.786-3,5.291,5.291,0,0,1,.555-2.541,4.5,4.5,0,0,1,1.513-1.654,7.327,7.327,0,0,1,2.18-.945,16.417,16.417,0,0,1,2.57-.449q1.583-.165,2.552-.313A3.565,3.565,0,0,0,735-7.939a.987.987,0,0,0,.437-.874v-.071a2.184,2.184,0,0,0-.7-1.737,2.931,2.931,0,0,0-1.991-.614,3.547,3.547,0,0,0-2.162.6,2.8,2.8,0,0,0-1.064,1.495l-4.656-.378a6.367,6.367,0,0,1,1.394-2.866,6.764,6.764,0,0,1,2.688-1.867,10.294,10.294,0,0,1,3.823-.656,11.683,11.683,0,0,1,2.9.355,7.65,7.65,0,0,1,2.47,1.1,5.377,5.377,0,0,1,1.708,1.908,5.8,5.8,0,0,1,.626,2.783V3.477H735.7V.96h-.142a5.048,5.048,0,0,1-1.17,1.495,5.275,5.275,0,0,1-1.761,1A7.169,7.169,0,0,1,730.248,3.819ZM731.69.345A4.186,4.186,0,0,0,733.651-.1a3.43,3.43,0,0,0,1.335-1.2,3.107,3.107,0,0,0,.485-1.713V-4.937a2.574,2.574,0,0,1-.644.278q-.408.124-.916.225t-1.016.177q-.508.077-.922.136a6.228,6.228,0,0,0-1.548.414,2.5,2.5,0,0,0-1.028.762,1.9,1.9,0,0,0-.366,1.188,1.805,1.805,0,0,0,.75,1.566A3.2,3.2,0,0,0,731.69.345Zm13.124,3.132V-14.675h4.88v3.167h.189a4.717,4.717,0,0,1,1.666-2.558,4.4,4.4,0,0,1,2.694-.869,7.615,7.615,0,0,1,.815.047,5.741,5.741,0,0,1,.768.13v4.467a6.576,6.576,0,0,0-.981-.189,8.81,8.81,0,0,0-1.146-.083,4.033,4.033,0,0,0-1.979.479,3.556,3.556,0,0,0-1.371,1.329,3.786,3.786,0,0,0-.5,1.962V3.477Zm17.709,6.807a10.259,10.259,0,0,1-1.79-.148,6.753,6.753,0,0,1-1.377-.372l1.134-3.758a6.225,6.225,0,0,0,1.6.3,2.041,2.041,0,0,0,1.241-.331,2.482,2.482,0,0,0,.857-1.205l.3-.768-6.511-18.671h5.294l3.758,13.33h.189l3.793-13.33h5.33L769.283,5.438A8.6,8.6,0,0,1,767.906,8a5.792,5.792,0,0,1-2.192,1.69A7.727,7.727,0,0,1,762.523,10.283Z" transform="translate(516 890)" fill="rgba(37,23,90,0.63)"/>
    <g id="Layer_2" data-name="Layer 2" transform="translate(256.609 667.116)">
      <g id="Layer_1" data-name="Layer 1" transform="translate(-0.002)">
        <g id="Group_19" data-name="Group 19">
          <path id="Path_9" data-name="Path 9" d="M229.649,138.039c-16.614-5.178-27.776-18.559-27.776-33.376a30.609,30.609,0,0,1,4.542-15.978l4.4-7.279L117.48,47.64,24.151,81.408l4.394,7.279a30.609,30.609,0,0,1,4.542,15.978c0,14.794-11.162,28.227-27.776,33.376L0,139.682a.643.643,0,0,0,0,.081l.4,5.459C1.19,155.9,11.021,250.9,114.084,308.283l3.4,1.886,3.4-1.886c45.255-25.15,72.536-57.623,88.964-87,20.985-37.533,24.277-70.05,24.714-76.02l.407-5.54ZM117.48,294.117c-83.365-48.17-99.609-124.1-102.538-144.723,19.432-8.137,32.118-25.512,32.118-44.73a44.257,44.257,0,0,0-2.885-15.645L117.48,62.5l73.3,26.518a44.257,44.257,0,0,0-2.885,15.645c0,19.232,12.686,36.593,32.118,44.73-2.929,20.623-19.173,96.554-102.538,144.716Z" transform="translate(0.002 -12.4)" fill="url(#linear-gradient)"/>
          <path id="Path_13" data-name="Path 13" d="M206.334,264a194.541,194.541,0,0,1-19.6,29.388c-41.046,13.736-49.864,38.465-53.717,46.6-3.832-8.137-12.656-32.858-53.7-46.6h0A192.862,192.862,0,0,1,59.71,264c21.784,6.613,53.185,22.761,73.3,62.224C153.127,286.739,184.558,270.591,206.334,264Z" transform="translate(-15.541 -68.718)" fill="url(#linear-gradient)"/>
        </g>
        <g id="Group_17" data-name="Group 17">
          <path id="Path_10" data-name="Path 10" d="M199.919,102.624,135.868,80.3h0L71.794,102.617a1.849,1.849,0,0,0-1.184,2.042h0a1.849,1.849,0,0,0,1.147,1.42l2.219.888L105.2,119.282a34.293,34.293,0,1,0,32-18.863c.5-.044,1-.044,1.479-.044a37.17,37.17,0,0,1,31.5,17.427l27.487-10.822,2.286-.9a1.857,1.857,0,0,0,0-3.469Z" transform="translate(-18.372 -20.902)" fill="url(#linear-gradient-3)"/>
          <path id="Path_11" data-name="Path 11" d="M95.705,169.882l6.073,4.594L99.84,148.142a5.918,5.918,0,0,0,1.938-4.438,6.058,6.058,0,0,0-3.617-5.555v-7.331l-4.926-1.938v9.32a6.043,6.043,0,0,0-3.595,5.563,5.918,5.918,0,0,0,1.938,4.438L89.64,174.535Z" transform="translate(-23.331 -33.547)" fill="url(#linear-gradient-3)"/>
          <path id="Path_12" data-name="Path 12" d="M214.929,222.815c-1.613,4.786-3.551,9.927-5.918,15.319a22.5,22.5,0,0,1-13.729,12.375c-50.426,16.414-66.966,57.7-66.966,57.7s-16.525-41.283-66.943-57.7a22.5,22.5,0,0,1-13.736-12.383c-2.352-5.4-4.29-10.541-5.918-15.327a140.473,140.473,0,0,1,86.546,71.626A140.928,140.928,0,0,1,214.929,222.815Z" transform="translate(-10.858 -57.994)" fill="url(#linear-gradient-3)"/>
          <path id="Path_14" data-name="Path 14" d="M153.25,0l4.889,9.912,10.94,1.59-7.915,7.715,1.871,10.9-9.786-5.141-9.786,5.141,1.871-10.9L137.42,11.5l10.94-1.59Z" transform="translate(-35.768)" fill="url(#linear-gradient-3)"/>
          <path id="Path_15" data-name="Path 15" d="M208.577,25.55l3.011,6.11,6.746.976-4.882,4.756,1.154,6.717-6.029-3.173-6.029,3.173,1.147-6.717-4.875-4.756,6.739-.976Z" transform="translate(-51.75 -6.651)" fill="url(#linear-gradient-3)"/>
          <path id="Path_16" data-name="Path 16" d="M102.2,25.55l3.018,6.11,6.739.976-4.875,4.756,1.147,6.717L102.2,40.936l-6.029,3.173,1.154-6.717L92.44,32.636l6.746-.976Z" transform="translate(-24.06 -6.651)" fill="url(#linear-gradient-3)"/>
        </g>
        <path id="Path_17" data-name="Path 17" d="M145.027,207.505l-5.792,5.792-5.784-5.792a1.479,1.479,0,0,0-1.154-.436A94.231,94.231,0,0,0,83.58,224.822a144.42,144.42,0,0,1,55.648,53.207,144.6,144.6,0,0,1,55.67-53.177A94.446,94.446,0,0,0,146.181,207.1,1.48,1.48,0,0,0,145.027,207.505Z" transform="translate(-21.754 -53.898)" fill="#7356ea"/>
      </g>
    </g>
    <path id="Path_20" data-name="Path 20" d="M16.909-15.258a5.023,5.023,0,0,0-.65-1.426,4.164,4.164,0,0,0-1.018-1.057,4.546,4.546,0,0,0-1.365-.666,5.825,5.825,0,0,0-1.69-.231,5.389,5.389,0,0,0-3.033.859,5.622,5.622,0,0,0-2.031,2.493A9.8,9.8,0,0,0,6.4-11.295a10.058,10.058,0,0,0,.716,4.007A5.564,5.564,0,0,0,9.137-4.772a5.488,5.488,0,0,0,3.093.864A6.109,6.109,0,0,0,15-4.486,4.111,4.111,0,0,0,16.76-6.121a4.907,4.907,0,0,0,.611-2.5l.969.143H12.528v-3.589h9.434v2.84a9.878,9.878,0,0,1-1.255,5.1A8.505,8.505,0,0,1,17.25-.842,10.728,10.728,0,0,1,12.208.308a10.83,10.83,0,0,1-5.57-1.4,9.623,9.623,0,0,1-3.737-4,13.274,13.274,0,0,1-1.338-6.159,14.009,14.009,0,0,1,.8-4.893A10.388,10.388,0,0,1,4.6-19.793a9.7,9.7,0,0,1,3.358-2.279,10.88,10.88,0,0,1,4.15-.782,11.111,11.111,0,0,1,3.567.556,9.664,9.664,0,0,1,2.934,1.569,8.53,8.53,0,0,1,2.1,2.405,8.241,8.241,0,0,1,1.046,3.066ZM33.495.33a8.6,8.6,0,0,1-4.431-1.1,7.4,7.4,0,0,1-2.879-3.06,9.826,9.826,0,0,1-1.013-4.563,9.876,9.876,0,0,1,1.013-4.585,7.4,7.4,0,0,1,2.879-3.06,8.6,8.6,0,0,1,4.431-1.1,8.6,8.6,0,0,1,4.431,1.1,7.4,7.4,0,0,1,2.879,3.06,9.876,9.876,0,0,1,1.013,4.585A9.826,9.826,0,0,1,40.8-3.825a7.4,7.4,0,0,1-2.879,3.06A8.6,8.6,0,0,1,33.495.33ZM33.517-3.3a2.9,2.9,0,0,0,1.949-.666A4.1,4.1,0,0,0,36.649-5.79a7.99,7.99,0,0,0,.4-2.631,7.99,7.99,0,0,0-.4-2.631,4.136,4.136,0,0,0-1.183-1.827,2.885,2.885,0,0,0-1.949-.672,2.965,2.965,0,0,0-1.976.672,4.069,4.069,0,0,0-1.2,1.827,7.99,7.99,0,0,0-.4,2.631,7.99,7.99,0,0,0,.4,2.631,4.031,4.031,0,0,0,1.2,1.822A2.98,2.98,0,0,0,33.517-3.3ZM45.28,0V-16.909h4.547v2.95H50a4.394,4.394,0,0,1,1.552-2.383,4.1,4.1,0,0,1,2.51-.809,7.094,7.094,0,0,1,.76.044,5.349,5.349,0,0,1,.716.121v4.161A6.127,6.127,0,0,0,54.627-13a8.209,8.209,0,0,0-1.068-.077,3.757,3.757,0,0,0-1.844.446,3.313,3.313,0,0,0-1.277,1.238,3.527,3.527,0,0,0-.468,1.827V0ZM62.7.319a6.988,6.988,0,0,1-2.884-.567,4.559,4.559,0,0,1-2-1.684,4.99,4.99,0,0,1-.732-2.791,4.929,4.929,0,0,1,.517-2.367,4.189,4.189,0,0,1,1.409-1.541,6.826,6.826,0,0,1,2.031-.881A15.293,15.293,0,0,1,63.44-9.93q1.475-.154,2.378-.292a3.321,3.321,0,0,0,1.31-.413.919.919,0,0,0,.407-.815v-.066a2.035,2.035,0,0,0-.655-1.618,2.731,2.731,0,0,0-1.855-.572,3.3,3.3,0,0,0-2.015.556,2.609,2.609,0,0,0-.991,1.393l-4.337-.352a5.932,5.932,0,0,1,1.3-2.67,6.3,6.3,0,0,1,2.5-1.739,9.59,9.59,0,0,1,3.561-.611,10.884,10.884,0,0,1,2.7.33,7.126,7.126,0,0,1,2.3,1.024A5.009,5.009,0,0,1,71.642-14a5.4,5.4,0,0,1,.583,2.593V0H67.778V-2.345h-.132a4.7,4.7,0,0,1-1.09,1.393,4.915,4.915,0,0,1-1.64.936A6.679,6.679,0,0,1,62.7.319Zm1.343-3.237a3.9,3.9,0,0,0,1.827-.413,3.2,3.2,0,0,0,1.244-1.117,2.9,2.9,0,0,0,.451-1.6V-7.838a2.4,2.4,0,0,1-.6.259q-.38.116-.853.209t-.947.165q-.473.072-.859.127a5.8,5.8,0,0,0-1.442.385,2.328,2.328,0,0,0-.958.71,1.767,1.767,0,0,0-.341,1.106,1.682,1.682,0,0,0,.7,1.459A2.978,2.978,0,0,0,64.046-2.917ZM80.521-4.866l.011-5.625h.683l5.416-6.418h5.383l-7.277,8.5H83.625ZM76.272,0V-22.545h4.69V0ZM86.84,0,81.864-7.365l3.126-3.314L92.333,0ZM99.4-9.776V0h-4.69V-22.545h4.558v8.62h.2a4.816,4.816,0,0,1,1.849-2.35,5.646,5.646,0,0,1,3.2-.853,6.01,6.01,0,0,1,3.077.765,5.234,5.234,0,0,1,2.048,2.191,7.285,7.285,0,0,1,.721,3.407V0h-4.69V-9.93a3.428,3.428,0,0,0-.787-2.433,2.874,2.874,0,0,0-2.229-.87,3.418,3.418,0,0,0-1.69.407,2.85,2.85,0,0,0-1.145,1.183A4.014,4.014,0,0,0,99.4-9.776ZM114.463,6.341v-23.25h4.624v2.84h.209a6.217,6.217,0,0,1,.9-1.393,4.722,4.722,0,0,1,1.541-1.189,5.253,5.253,0,0,1,2.372-.479,6.383,6.383,0,0,1,3.413.963,6.728,6.728,0,0,1,2.5,2.9,11.072,11.072,0,0,1,.936,4.838,11.229,11.229,0,0,1-.908,4.772,6.782,6.782,0,0,1-2.466,2.939,6.33,6.33,0,0,1-3.484,1,5.381,5.381,0,0,1-2.317-.451,4.749,4.749,0,0,1-1.558-1.139,5.664,5.664,0,0,1-.925-1.393h-.143V6.341Zm4.591-14.8a7.526,7.526,0,0,0,.418,2.631,3.869,3.869,0,0,0,1.211,1.745,3.025,3.025,0,0,0,1.926.622,3.007,3.007,0,0,0,1.938-.633,3.906,3.906,0,0,0,1.205-1.761,7.557,7.557,0,0,0,.413-2.6,7.472,7.472,0,0,0-.407-2.576,3.837,3.837,0,0,0-1.2-1.739,3.041,3.041,0,0,0-1.949-.627,3.074,3.074,0,0,0-1.932.605,3.779,3.779,0,0,0-1.205,1.717A7.433,7.433,0,0,0,119.053-8.455ZM145.315-7.2v-9.71H150V0h-4.5V-3.071h-.176a5,5,0,0,1-1.9,2.389,5.607,5.607,0,0,1-3.231.9,5.7,5.7,0,0,1-2.983-.771A5.262,5.262,0,0,1,135.2-2.741a7.53,7.53,0,0,1-.732-3.4V-16.909h4.69v9.93a3.42,3.42,0,0,0,.8,2.367,2.734,2.734,0,0,0,2.125.87,3.335,3.335,0,0,0,1.585-.391A3.023,3.023,0,0,0,144.869-5.3,3.607,3.607,0,0,0,145.315-7.2ZM154.151,0V-16.909H158.7v2.95h.176a4.395,4.395,0,0,1,1.552-2.383,4.1,4.1,0,0,1,2.51-.809,7.094,7.094,0,0,1,.76.044,5.349,5.349,0,0,1,.716.121v4.161A6.127,6.127,0,0,0,163.5-13a8.208,8.208,0,0,0-1.068-.077,3.757,3.757,0,0,0-1.844.446,3.313,3.313,0,0,0-1.277,1.238,3.527,3.527,0,0,0-.468,1.827V0Z" transform="translate(1241 752)" fill="rgba(37,23,90,0.63)" stroke="rgba(0,0,0,0)" stroke-width="1"/>
  </g>
</svg>
