<svg width="662" height="275" viewBox="0 0 662 275" fill="none" xmlns="http://www.w3.org/2000/svg">
<g clip-path="url(#clip0_180_114)">
<rect width="662" height="275" rx="11.126" fill="#673CCB"/>
<circle cx="662" cy="285.522" r="238.067" fill="#FDD504"/>
<path d="M45.6797 113.875V148H39.2109L24.7031 124.328V148H18.2578V113.875H24.7031L39.2578 137.57V113.875H45.6797ZM79.875 130.07V131.828C79.875 134.406 79.5312 136.727 78.8438 138.789C78.1562 140.836 77.1797 142.578 75.9141 144.016C74.6484 145.453 73.1406 146.555 71.3906 147.32C69.6406 148.086 67.6953 148.469 65.5547 148.469C63.4453 148.469 61.5078 148.086 59.7422 147.32C57.9922 146.555 56.4766 145.453 55.1953 144.016C53.9141 142.578 52.9219 140.836 52.2188 138.789C51.5156 136.727 51.1641 134.406 51.1641 131.828V130.07C51.1641 127.477 51.5156 125.156 52.2188 123.109C52.9219 121.062 53.9062 119.32 55.1719 117.883C56.4375 116.43 57.9453 115.32 59.6953 114.555C61.4609 113.789 63.3984 113.406 65.5078 113.406C67.6484 113.406 69.5938 113.789 71.3438 114.555C73.0938 115.32 74.6016 116.43 75.8672 117.883C77.1484 119.32 78.1328 121.062 78.8203 123.109C79.5234 125.156 79.875 127.477 79.875 130.07ZM73.3594 131.828V130.023C73.3594 128.164 73.1875 126.531 72.8438 125.125C72.5 123.703 71.9922 122.508 71.3203 121.539C70.6484 120.57 69.8203 119.844 68.8359 119.359C67.8516 118.859 66.7422 118.609 65.5078 118.609C64.2578 118.609 63.1484 118.859 62.1797 119.359C61.2266 119.844 60.4141 120.57 59.7422 121.539C59.0703 122.508 58.5547 123.703 58.1953 125.125C57.8516 126.531 57.6797 128.164 57.6797 130.023V131.828C57.6797 133.672 57.8516 135.305 58.1953 136.727C58.5547 138.148 59.0703 139.352 59.7422 140.336C60.4297 141.305 61.2578 142.039 62.2266 142.539C63.1953 143.039 64.3047 143.289 65.5547 143.289C66.8047 143.289 67.9141 143.039 68.8828 142.539C69.8516 142.039 70.6641 141.305 71.3203 140.336C71.9922 139.352 72.5 138.148 72.8438 136.727C73.1875 135.305 73.3594 133.672 73.3594 131.828ZM96.8203 141.32L105.328 113.875H112.477L100.43 148H95.6719L96.8203 141.32ZM88.9688 113.875L97.4297 141.32L98.6484 148H93.8438L81.8438 113.875H88.9688ZM138.609 142.938V148H120.469V142.938H138.609ZM122.438 113.875V148H115.992V113.875H122.438ZM136.242 127.961V132.906H120.469V127.961H136.242ZM138.539 113.875V118.961H120.469V113.875H138.539ZM164.742 142.938V148H147.586V142.938H164.742ZM149.531 113.875V148H143.086V113.875H149.531ZM26.6484 193.461L33.4453 165.875H37.125L37.3594 171.688L30.0938 200H26.2031L26.6484 193.461ZM22.3594 165.875L27.9375 193.367V200H23.6953L15.9609 165.875H22.3594ZM44.4141 193.25L49.8984 165.875H56.3203L48.5859 200H44.3438L44.4141 193.25ZM38.8828 165.875L45.6797 193.555L46.0781 200H42.1875L34.9453 171.664L35.2266 165.875H38.8828ZM60.3984 165.875H72.7969C75.3906 165.875 77.6172 166.266 79.4766 167.047C81.3359 167.828 82.7656 168.984 83.7656 170.516C84.7656 172.047 85.2656 173.93 85.2656 176.164C85.2656 177.93 84.9531 179.461 84.3281 180.758C83.7031 182.055 82.8203 183.141 81.6797 184.016C80.5547 184.891 79.2266 185.578 77.6953 186.078L75.6797 187.109H64.7344L64.6875 182.023H72.8672C74.1953 182.023 75.2969 181.789 76.1719 181.32C77.0469 180.852 77.7031 180.203 78.1406 179.375C78.5938 178.547 78.8203 177.602 78.8203 176.539C78.8203 175.398 78.6016 174.414 78.1641 173.586C77.7266 172.742 77.0625 172.094 76.1719 171.641C75.2812 171.188 74.1562 170.961 72.7969 170.961H66.8438V200H60.3984V165.875ZM79.6641 200L71.7656 184.719L78.5859 184.695L86.5781 199.672V200H79.6641ZM97.7812 165.875V200H91.3359V165.875H97.7812ZM118.688 165.875V200H112.266V165.875H118.688ZM129.281 165.875V170.961H101.789V165.875H129.281ZM140.438 165.875V200H133.992V165.875H140.438ZM174.82 165.875V200H168.352L153.844 176.328V200H147.398V165.875H153.844L168.398 189.57V165.875H174.82ZM208.008 182.352V195.641C207.508 196.281 206.719 196.977 205.641 197.727C204.578 198.477 203.188 199.125 201.469 199.672C199.75 200.203 197.641 200.469 195.141 200.469C192.969 200.469 190.984 200.109 189.188 199.391C187.391 198.656 185.844 197.586 184.547 196.18C183.25 194.773 182.25 193.055 181.547 191.023C180.844 188.992 180.492 186.672 180.492 184.062V181.812C180.492 179.203 180.82 176.883 181.477 174.852C182.148 172.82 183.102 171.102 184.336 169.695C185.586 168.289 187.078 167.219 188.812 166.484C190.562 165.75 192.516 165.383 194.672 165.383C197.562 165.383 199.938 165.859 201.797 166.812C203.672 167.766 205.109 169.078 206.109 170.75C207.109 172.406 207.734 174.312 207.984 176.469H201.703C201.531 175.281 201.188 174.242 200.672 173.352C200.156 172.445 199.422 171.742 198.469 171.242C197.531 170.727 196.312 170.469 194.812 170.469C193.547 170.469 192.43 170.719 191.461 171.219C190.492 171.719 189.68 172.445 189.023 173.398C188.367 174.352 187.867 175.531 187.523 176.938C187.195 178.344 187.031 179.953 187.031 181.766V184.062C187.031 185.891 187.219 187.516 187.594 188.938C187.969 190.344 188.508 191.531 189.211 192.5C189.93 193.453 190.812 194.18 191.859 194.68C192.922 195.164 194.125 195.406 195.469 195.406C196.688 195.406 197.695 195.305 198.492 195.102C199.305 194.883 199.953 194.625 200.438 194.328C200.922 194.031 201.297 193.742 201.562 193.461V187.062H194.789V182.352H208.008ZM38.2266 240.773H44.6719C44.5 243.055 43.8672 245.078 42.7734 246.844C41.6797 248.594 40.1562 249.969 38.2031 250.969C36.25 251.969 33.8828 252.469 31.1016 252.469C28.9609 252.469 27.0312 252.094 25.3125 251.344C23.6094 250.578 22.1484 249.492 20.9297 248.086C19.7266 246.664 18.8047 244.961 18.1641 242.977C17.5234 240.977 17.2031 238.734 17.2031 236.25V233.648C17.2031 231.164 17.5312 228.922 18.1875 226.922C18.8438 224.922 19.7812 223.219 21 221.812C22.2344 220.391 23.7109 219.297 25.4297 218.531C27.1641 217.766 29.1016 217.383 31.2422 217.383C34.0234 217.383 36.375 217.898 38.2969 218.93C40.2188 219.945 41.7109 221.344 42.7734 223.125C43.8359 224.906 44.4766 226.953 44.6953 229.266H38.25C38.125 227.828 37.8125 226.609 37.3125 225.609C36.8281 224.609 36.0938 223.852 35.1094 223.336C34.1406 222.805 32.8516 222.539 31.2422 222.539C29.9922 222.539 28.8906 222.773 27.9375 223.242C27 223.711 26.2188 224.414 25.5938 225.352C24.9688 226.273 24.5 227.43 24.1875 228.82C23.875 230.195 23.7188 231.789 23.7188 233.602V236.25C23.7188 237.984 23.8594 239.539 24.1406 240.914C24.4219 242.289 24.8594 243.453 25.4531 244.406C26.0469 245.359 26.8125 246.086 27.75 246.586C28.6875 247.086 29.8047 247.336 31.1016 247.336C32.6797 247.336 33.9609 247.086 34.9453 246.586C35.9453 246.086 36.7031 245.352 37.2188 244.383C37.75 243.414 38.0859 242.211 38.2266 240.773ZM77.2969 234.07V235.828C77.2969 238.406 76.9531 240.727 76.2656 242.789C75.5781 244.836 74.6016 246.578 73.3359 248.016C72.0703 249.453 70.5625 250.555 68.8125 251.32C67.0625 252.086 65.1172 252.469 62.9766 252.469C60.8672 252.469 58.9297 252.086 57.1641 251.32C55.4141 250.555 53.8984 249.453 52.6172 248.016C51.3359 246.578 50.3438 244.836 49.6406 242.789C48.9375 240.727 48.5859 238.406 48.5859 235.828V234.07C48.5859 231.477 48.9375 229.156 49.6406 227.109C50.3438 225.062 51.3281 223.32 52.5938 221.883C53.8594 220.43 55.3672 219.32 57.1172 218.555C58.8828 217.789 60.8203 217.406 62.9297 217.406C65.0703 217.406 67.0156 217.789 68.7656 218.555C70.5156 219.32 72.0234 220.43 73.2891 221.883C74.5703 223.32 75.5547 225.062 76.2422 227.109C76.9453 229.156 77.2969 231.477 77.2969 234.07ZM70.7812 235.828V234.023C70.7812 232.164 70.6094 230.531 70.2656 229.125C69.9219 227.703 69.4141 226.508 68.7422 225.539C68.0703 224.57 67.2422 223.844 66.2578 223.359C65.2734 222.859 64.1641 222.609 62.9297 222.609C61.6797 222.609 60.5703 222.859 59.6016 223.359C58.6484 223.844 57.8359 224.57 57.1641 225.539C56.4922 226.508 55.9766 227.703 55.6172 229.125C55.2734 230.531 55.1016 232.164 55.1016 234.023V235.828C55.1016 237.672 55.2734 239.305 55.6172 240.727C55.9766 242.148 56.4922 243.352 57.1641 244.336C57.8516 245.305 58.6797 246.039 59.6484 246.539C60.6172 247.039 61.7266 247.289 62.9766 247.289C64.2266 247.289 65.3359 247.039 66.3047 246.539C67.2734 246.039 68.0859 245.305 68.7422 244.336C69.4141 243.352 69.9219 242.148 70.2656 240.727C70.6094 239.305 70.7812 237.672 70.7812 235.828ZM85.5703 217.875H91.1484L100.477 243.562L109.781 217.875H115.383L102.703 252H98.2266L85.5703 217.875ZM82.7578 217.875H88.2188L89.2031 241.477V252H82.7578V217.875ZM112.711 217.875H118.195V252H111.75V241.477L112.711 217.875ZM137.883 239.555H129.094V234.492H137.883C139.32 234.492 140.484 234.258 141.375 233.789C142.281 233.305 142.945 232.648 143.367 231.82C143.789 230.977 144 230.016 144 228.938C144 227.891 143.789 226.914 143.367 226.008C142.945 225.102 142.281 224.367 141.375 223.805C140.484 223.242 139.32 222.961 137.883 222.961H131.203V252H124.758V217.875H137.883C140.539 217.875 142.805 218.352 144.68 219.305C146.57 220.242 148.008 221.547 148.992 223.219C149.992 224.875 150.492 226.766 150.492 228.891C150.492 231.094 149.992 232.992 148.992 234.586C148.008 236.18 146.57 237.406 144.68 238.266C142.805 239.125 140.539 239.555 137.883 239.555ZM178.172 246.938V252H160.031V246.938H178.172ZM162 217.875V252H155.555V217.875H162ZM175.805 231.961V236.906H160.031V231.961H175.805ZM178.102 217.875V222.961H160.031V217.875H178.102ZM197.766 217.875V252H191.344V217.875H197.766ZM208.359 217.875V222.961H180.867V217.875H208.359ZM219.516 217.875V252H213.07V217.875H219.516ZM240.422 217.875V252H234V217.875H240.422ZM251.016 217.875V222.961H223.523V217.875H251.016ZM262.172 217.875V252H255.727V217.875H262.172ZM296.766 234.07V235.828C296.766 238.406 296.422 240.727 295.734 242.789C295.047 244.836 294.07 246.578 292.805 248.016C291.539 249.453 290.031 250.555 288.281 251.32C286.531 252.086 284.586 252.469 282.445 252.469C280.336 252.469 278.398 252.086 276.633 251.32C274.883 250.555 273.367 249.453 272.086 248.016C270.805 246.578 269.812 244.836 269.109 242.789C268.406 240.727 268.055 238.406 268.055 235.828V234.07C268.055 231.477 268.406 229.156 269.109 227.109C269.812 225.062 270.797 223.32 272.062 221.883C273.328 220.43 274.836 219.32 276.586 218.555C278.352 217.789 280.289 217.406 282.398 217.406C284.539 217.406 286.484 217.789 288.234 218.555C289.984 219.32 291.492 220.43 292.758 221.883C294.039 223.32 295.023 225.062 295.711 227.109C296.414 229.156 296.766 231.477 296.766 234.07ZM290.25 235.828V234.023C290.25 232.164 290.078 230.531 289.734 229.125C289.391 227.703 288.883 226.508 288.211 225.539C287.539 224.57 286.711 223.844 285.727 223.359C284.742 222.859 283.633 222.609 282.398 222.609C281.148 222.609 280.039 222.859 279.07 223.359C278.117 223.844 277.305 224.57 276.633 225.539C275.961 226.508 275.445 227.703 275.086 229.125C274.742 230.531 274.57 232.164 274.57 234.023V235.828C274.57 237.672 274.742 239.305 275.086 240.727C275.445 242.148 275.961 243.352 276.633 244.336C277.32 245.305 278.148 246.039 279.117 246.539C280.086 247.039 281.195 247.289 282.445 247.289C283.695 247.289 284.805 247.039 285.773 246.539C286.742 246.039 287.555 245.305 288.211 244.336C288.883 243.352 289.391 242.148 289.734 240.727C290.078 239.305 290.25 237.672 290.25 235.828ZM329.648 217.875V252H323.18L308.672 228.328V252H302.227V217.875H308.672L323.227 241.57V217.875H329.648Z" fill="white"/>
<path d="M599.575 256.83H383.538C383.134 256.83 382.805 256.501 382.805 256.095V135.029L600.308 135.029V256.095C600.308 256.501 599.98 256.83 599.575 256.83Z" fill="#D6DCF2" stroke="black" stroke-width="1.26547" stroke-linecap="round" stroke-linejoin="round"/>
<path d="M382.805 124.747H600.308V245.813C600.308 246.219 599.98 246.548 599.575 246.548H383.538C383.134 246.548 382.805 246.219 382.805 245.813L382.805 124.747Z" fill="white"/>
<mask id="mask0_180_114" style="mask-type:luminance" maskUnits="userSpaceOnUse" x="382" y="124" width="219" height="123">
<path fill-rule="evenodd" clip-rule="evenodd" d="M382.873 124.764H600.165V245.623C600.165 246.029 599.837 246.357 599.433 246.357H383.605C383.201 246.357 382.873 246.029 382.873 245.623L382.873 124.764Z" fill="white"/>
</mask>
<g mask="url(#mask0_180_114)">
<path d="M499.466 129.639C524.158 139.481 397.001 118.203 382.873 154.561C368.745 190.918 360.03 104.687 360.03 104.687L420.44 108.425" fill="#D6DCF2"/>
</g>
<path fill-rule="evenodd" clip-rule="evenodd" d="M382.805 124.747H600.308V245.813C600.308 246.219 599.98 246.548 599.575 246.548H383.538C383.134 246.548 382.805 246.219 382.805 245.813L382.805 124.747Z" stroke="black" stroke-width="1.26547" stroke-linecap="round" stroke-linejoin="round"/>
<path d="M382.805 212.539H412.496C418.813 212.539 423.933 216.676 423.933 221.779V247.34L382.805 212.539Z" fill="white" stroke="black" stroke-width="1.26547" stroke-linecap="round" stroke-linejoin="round"/>
<path d="M383.458 78.8738H599.656C600.016 78.8738 600.308 79.1663 600.308 79.5271V131.074H382.805V79.5271C382.805 79.3538 382.874 79.1876 382.997 79.0651C383.119 78.9426 383.285 78.8738 383.458 78.8738Z" fill="#1B80FD" stroke="black" stroke-width="1.26547" stroke-linecap="round" stroke-linejoin="round"/>
<path d="M600.308 124.747H382.805V73.1999C382.805 72.8391 383.098 72.5466 383.458 72.5466H599.656C600.016 72.5466 600.308 72.8391 600.308 73.1999V124.747Z" fill="#FDD504"/>
<mask id="mask1_180_114" style="mask-type:luminance" maskUnits="userSpaceOnUse" x="382" y="73" width="219" height="53">
<path fill-rule="evenodd" clip-rule="evenodd" d="M600.165 125.314H382.873V74.0134C382.873 73.6544 383.165 73.3633 383.525 73.3633H599.513C599.873 73.3633 600.165 73.6544 600.165 74.0134V125.314Z" fill="white"/>
</mask>
<g mask="url(#mask1_180_114)">
<path d="M498.014 61.3081C453.472 85.0543 594.889 58.505 605.761 102.915C616.632 147.325 614.594 75.9459 614.594 75.9459L574.51 49.0024" fill="#FBB006"/>
</g>
<path fill-rule="evenodd" clip-rule="evenodd" d="M600.308 124.747H382.805V73.1999C382.805 72.8391 383.098 72.5466 383.458 72.5466H599.656C600.016 72.5466 600.308 72.8391 600.308 73.1999V124.747Z" stroke="black" stroke-width="1.26547" stroke-linecap="round" stroke-linejoin="round"/>
<ellipse cx="435.006" cy="86.7828" rx="11.8638" ry="9.49104" fill="#E43334" stroke="black" stroke-width="1.26547" stroke-linecap="round" stroke-linejoin="round"/>
<rect x="427.097" y="48.8191" width="15.0275" height="43.5006" rx="0.313402" fill="#1A80FD"/>
<mask id="mask2_180_114" style="mask-type:luminance" maskUnits="userSpaceOnUse" x="427" y="48" width="16" height="44">
<rect x="427.179" y="48.8201" width="15.3409" height="43.1624" rx="0.313402" fill="white"/>
</mask>
<g mask="url(#mask2_180_114)">
<path d="M425.409 76.9792C430.374 95.1696 451.626 79.5937 451.626 79.5937L445.4 95.8628L423.683 98.686" fill="#1D62FC"/>
</g>
<rect x="427.097" y="48.8191" width="15.0275" height="43.5006" rx="0.313402" stroke="black" stroke-width="1.26547" stroke-linecap="round" stroke-linejoin="round"/>
<ellipse cx="548.898" cy="86.7828" rx="11.8638" ry="9.49104" fill="#E43334" stroke="black" stroke-width="1.26547" stroke-linecap="round" stroke-linejoin="round"/>
<rect x="540.989" y="48.8191" width="15.0275" height="43.5006" rx="0.313402" fill="#1A80FD"/>
<mask id="mask3_180_114" style="mask-type:luminance" maskUnits="userSpaceOnUse" x="540" y="48" width="17" height="44">
<rect x="540.997" y="48.8201" width="15.3409" height="43.1624" rx="0.313402" fill="white"/>
</mask>
<g mask="url(#mask3_180_114)">
<path d="M535.576 72.9536C548.667 95.8628 565.725 76.9793 565.725 76.9793C565.725 76.9793 559.076 105.702 556.338 104.762C553.6 103.822 528.366 95.8628 528.366 95.8628" fill="#1D62FC"/>
</g>
<rect x="540.989" y="48.8191" width="15.0275" height="43.5006" rx="0.313402" stroke="black" stroke-width="1.26547" stroke-linecap="round" stroke-linejoin="round"/>
<rect x="435.797" y="105.765" width="111.52" height="9.49104" rx="0.206343" fill="#FDD504"/>
<path d="M565.508 200.675L561.553 206.212" stroke="black" stroke-width="1.26547" stroke-linecap="round" stroke-linejoin="round"/>
<path d="M434.215 166.666C430.435 170.837 426.189 174.553 421.56 177.739" stroke="black" stroke-width="1.26547" stroke-linecap="round" stroke-linejoin="round"/>
<path d="M505.398 87.5737L501.443 90.7374" stroke="black" stroke-width="1.26547" stroke-linecap="round" stroke-linejoin="round"/>
<path d="M660.392 256.146L616.407 121.153C616.317 120.879 616.022 120.729 615.747 120.818L480.45 164.705C480.249 164.77 480.107 164.95 480.09 165.16C480.073 165.371 480.186 165.571 480.374 165.667L659.657 256.773C659.846 256.869 660.074 256.842 660.235 256.705C660.396 256.568 660.458 256.347 660.392 256.146Z" fill="#FBD164"/>
<path d="M616.157 205.364L547.602 170.309C547.414 170.212 547.302 170.011 547.318 169.8C547.335 169.588 547.477 169.407 547.678 169.341L599.413 152.455C599.688 152.365 599.983 152.516 600.072 152.792L616.892 204.733C616.957 204.935 616.895 205.157 616.734 205.295C616.574 205.433 616.346 205.46 616.157 205.364Z" fill="#FBD164"/>
<path fill-rule="evenodd" clip-rule="evenodd" d="M660.392 256.146L616.407 121.153C616.317 120.879 616.022 120.729 615.747 120.818L480.45 164.705C480.249 164.77 480.107 164.95 480.09 165.16C480.073 165.371 480.186 165.571 480.374 165.667L659.657 256.773C659.846 256.869 660.074 256.842 660.235 256.705C660.396 256.568 660.458 256.347 660.392 256.146Z" stroke="#190000" stroke-width="1.26547" stroke-linecap="round" stroke-linejoin="round"/>
<path fill-rule="evenodd" clip-rule="evenodd" d="M616.157 205.364L547.602 170.309C547.414 170.212 547.302 170.011 547.318 169.8C547.335 169.588 547.477 169.407 547.678 169.341L599.413 152.455C599.688 152.365 599.983 152.516 600.072 152.792L616.892 204.733C616.957 204.935 616.895 205.157 616.734 205.295C616.574 205.433 616.346 205.46 616.157 205.364V205.364Z" stroke="#190000" stroke-width="1.26547" stroke-linecap="round" stroke-linejoin="round"/>
<path d="M616.127 134.238L612.172 135.82L616.127 134.238Z" fill="#D3575E"/>
<path d="M616.127 134.238L612.172 135.82" stroke="#190000" stroke-width="1.26547" stroke-linecap="round" stroke-linejoin="round"/>
<path d="M619.29 143.729L615.336 145.311L619.29 143.729Z" fill="#D3575E"/>
<path d="M619.29 143.729L615.336 145.311" stroke="#190000" stroke-width="1.26547" stroke-linecap="round" stroke-linejoin="round"/>
<path d="M629.572 173.784L625.618 175.366L629.572 173.784Z" fill="#D3575E"/>
<path d="M629.572 173.784L625.618 175.366" stroke="#190000" stroke-width="1.26547" stroke-linecap="round" stroke-linejoin="round"/>
<path d="M632.736 183.275L628.781 184.857L632.736 183.275Z" fill="#D3575E"/>
<path d="M632.736 183.275L628.781 184.857" stroke="#190000" stroke-width="1.26547" stroke-linecap="round" stroke-linejoin="round"/>
<path d="M623.245 154.011L619.29 155.593L623.245 154.011Z" fill="#D3575E"/>
<path d="M623.245 154.011L619.29 155.593" stroke="#190000" stroke-width="1.26547" stroke-linecap="round" stroke-linejoin="round"/>
<path d="M626.409 163.502L622.454 165.084L626.409 163.502Z" fill="#D3575E"/>
<path d="M626.409 163.502L622.454 165.084" stroke="#190000" stroke-width="1.26547" stroke-linecap="round" stroke-linejoin="round"/>
<path d="M639.063 203.048L635.109 204.63L639.063 203.048Z" fill="#D3575E"/>
<path d="M639.063 203.048L635.109 204.63" stroke="#190000" stroke-width="1.26547" stroke-linecap="round" stroke-linejoin="round"/>
<path d="M645.391 222.821L641.436 224.403L645.391 222.821Z" fill="#D3575E"/>
<path d="M645.391 222.821L641.436 224.403" stroke="#190000" stroke-width="1.26547" stroke-linecap="round" stroke-linejoin="round"/>
<path d="M635.9 193.557L631.945 195.138L635.9 193.557Z" fill="#D3575E"/>
<path d="M635.9 193.557L631.945 195.138" stroke="#190000" stroke-width="1.26547" stroke-linecap="round" stroke-linejoin="round"/>
<path d="M642.227 213.33L638.272 214.912L642.227 213.33Z" fill="#D3575E"/>
<path d="M642.227 213.33L638.272 214.912" stroke="#190000" stroke-width="1.26547" stroke-linecap="round" stroke-linejoin="round"/>
<path d="M648.554 233.103L644.6 234.685L648.554 233.103Z" fill="#D3575E"/>
<path d="M648.554 233.103L644.6 234.685" stroke="#190000" stroke-width="1.26547" stroke-linecap="round" stroke-linejoin="round"/>
<path d="M651.718 242.594L647.763 244.176L651.718 242.594Z" fill="#D3575E"/>
<path d="M651.718 242.594L647.763 244.176" stroke="#190000" stroke-width="1.26547" stroke-linecap="round" stroke-linejoin="round"/>
<path d="M495.116 163.502L496.698 167.457L495.116 163.502Z" fill="#D3575E"/>
<path d="M495.116 163.502L496.698 167.457" stroke="#190000" stroke-width="1.26547" stroke-linecap="round" stroke-linejoin="round"/>
<path d="M505.398 159.547L506.98 163.502L505.398 159.547Z" fill="#D3575E"/>
<path d="M505.398 159.547L506.98 163.502" stroke="#190000" stroke-width="1.26547" stroke-linecap="round" stroke-linejoin="round"/>
<path d="M534.662 150.847L536.244 154.802L534.662 150.847Z" fill="#D3575E"/>
<path d="M534.662 150.847L536.244 154.802" stroke="#190000" stroke-width="1.26547" stroke-linecap="round" stroke-linejoin="round"/>
<path d="M544.944 147.683L546.526 151.638L544.944 147.683Z" fill="#D3575E"/>
<path d="M544.944 147.683L546.526 151.638" stroke="#190000" stroke-width="1.26547" stroke-linecap="round" stroke-linejoin="round"/>
<path d="M514.889 156.383L516.471 160.338L514.889 156.383Z" fill="#D3575E"/>
<path d="M514.889 156.383L516.471 160.338" stroke="#190000" stroke-width="1.26547" stroke-linecap="round" stroke-linejoin="round"/>
<path d="M525.171 153.22L526.753 157.175L525.171 153.22Z" fill="#D3575E"/>
<path d="M525.171 153.22L526.753 157.175" stroke="#190000" stroke-width="1.26547" stroke-linecap="round" stroke-linejoin="round"/>
<path d="M564.717 140.565L566.299 144.52L564.717 140.565Z" fill="#D3575E"/>
<path d="M564.717 140.565L566.299 144.52" stroke="#190000" stroke-width="1.26547" stroke-linecap="round" stroke-linejoin="round"/>
<path d="M584.49 134.238L586.072 138.192L584.49 134.238Z" fill="#D3575E"/>
<path d="M584.49 134.238L586.072 138.192" stroke="#190000" stroke-width="1.26547" stroke-linecap="round" stroke-linejoin="round"/>
<path d="M554.435 143.729L556.017 147.684L554.435 143.729Z" fill="#D3575E"/>
<path d="M554.435 143.729L556.017 147.684" stroke="#190000" stroke-width="1.26547" stroke-linecap="round" stroke-linejoin="round"/>
<path d="M574.208 137.402L575.79 141.356L574.208 137.402Z" fill="#D3575E"/>
<path d="M574.208 137.402L575.79 141.356" stroke="#190000" stroke-width="1.26547" stroke-linecap="round" stroke-linejoin="round"/>
<path d="M593.981 131.074L595.563 135.029L593.981 131.074Z" fill="#D3575E"/>
<path d="M593.981 131.074L595.563 135.029" stroke="#190000" stroke-width="1.26547" stroke-linecap="round" stroke-linejoin="round"/>
<path d="M604.263 127.911L605.845 131.865L604.263 127.911Z" fill="#D3575E"/>
<path d="M604.263 127.911L605.845 131.865" stroke="#190000" stroke-width="1.26547" stroke-linecap="round" stroke-linejoin="round"/>
<path d="M626.408 216.494C623.798 219.355 619.636 220.41 616.126 219.101" stroke="#190000" stroke-width="1.26547" stroke-linecap="round" stroke-linejoin="round"/>
<path d="M371.35 172.993C352.659 180.188 366.175 197.512 366.175 197.512C387.638 188.042 371.35 172.993 371.35 172.993Z" fill="#409159" stroke="#190000" stroke-width="1.26547" stroke-linecap="round" stroke-linejoin="round"/>
<path d="M374.105 206.174C360.555 191.755 349.587 210.25 349.587 210.25C366.259 226.375 374.105 206.174 374.105 206.174Z" fill="#409159" stroke="#190000" stroke-width="1.26547" stroke-linecap="round" stroke-linejoin="round"/>
<path d="M385.969 224.366C372.419 209.947 361.45 228.441 361.45 228.441C378.123 244.566 385.969 224.366 385.969 224.366Z" fill="#FBD164" stroke="#190000" stroke-width="1.26547" stroke-linecap="round" stroke-linejoin="round"/>
<path d="M395.46 246.885C381.814 232.162 368.569 249.761 368.569 249.761C384.547 272.571 395.46 246.885 395.46 246.885Z" fill="#FBD164" stroke="#190000" stroke-width="1.26547" stroke-linecap="round" stroke-linejoin="round"/>
<path d="M396.318 195.574C376.402 191.805 378.957 213.777 378.957 213.777C402.461 217.073 396.318 195.574 396.318 195.574Z" fill="#409159" stroke="#190000" stroke-width="1.26547" stroke-linecap="round" stroke-linejoin="round"/>
<path d="M409.763 217.719C389.848 213.951 392.403 235.923 392.403 235.923C415.907 239.219 409.763 217.719 409.763 217.719Z" fill="#409159" stroke="#190000" stroke-width="1.26547" stroke-linecap="round" stroke-linejoin="round"/>
<path d="M423.933 242.212C406.18 227.421 398.624 254.978 398.624 254.978C419.981 265.265 423.933 242.212 423.933 242.212Z" fill="#FBD164" stroke="#190000" stroke-width="1.26547" stroke-linecap="round" stroke-linejoin="round"/>
<path d="M348.005 183.275C388 202.978 400.996 264.74 400.996 264.74" stroke="#190000" stroke-width="1.26547" stroke-linecap="round" stroke-linejoin="round"/>
<path d="M331.396 182.111C340.828 198.854 357.496 189.214 357.496 189.214C350.821 166.661 331.396 182.111 331.396 182.111Z" fill="#409159" stroke="#190000" stroke-width="1.26547" stroke-linecap="round" stroke-linejoin="round"/>
<path d="M422.214 253.954C422.214 253.954 436.251 251.633 450.642 249.244C445.38 237.189 436.281 227.186 424.742 220.772L417.751 228.365C417.751 228.365 418.888 224.273 420.465 218.618C413.778 215.571 406.582 213.779 399.239 213.33L395.46 241.587C395.46 241.587 392.357 227.767 389.203 213.523C373.419 215.146 359.458 222.847 349.704 234.223L367.89 250.273C367.89 250.273 355.83 245.097 345.033 240.447C338.701 250.117 335.336 261.411 335.35 272.949C335.35 273.644 335.379 274.332 335.403 275.022H455.517C455.541 274.332 455.57 273.644 455.57 272.949C455.573 267.04 454.694 261.162 452.961 255.509L422.214 253.954Z" fill="#FBD164"/>
<mask id="mask4_180_114" style="mask-type:luminance" maskUnits="userSpaceOnUse" x="335" y="213" width="121" height="63">
<path fill-rule="evenodd" clip-rule="evenodd" d="M422.202 254.096C422.202 254.096 436.235 251.77 450.622 249.377C445.362 237.3 436.265 227.278 424.73 220.852L417.741 228.459C417.741 228.459 418.877 224.359 420.454 218.694C413.768 215.641 406.574 213.845 399.234 213.396L395.456 241.706C395.456 241.706 392.354 227.859 389.201 213.589C373.422 215.215 359.465 222.931 349.714 234.328L367.895 250.408C367.895 250.408 355.838 245.222 345.044 240.564C338.714 250.252 335.35 261.567 335.364 273.127C335.364 273.823 335.393 274.513 335.417 275.203H455.496C455.519 274.513 455.548 273.823 455.548 273.127C455.551 267.206 454.672 261.318 452.94 255.654L422.202 254.096Z" fill="white"/>
</mask>
<g mask="url(#mask4_180_114)">
<path d="M395.654 280.715C404.13 261.159 415.507 254.969 415.507 254.969L430.179 261.3L418.662 250.227C418.662 250.227 440.221 236.276 447.471 237.999C454.722 239.721 451.359 239.35 451.359 239.35L447.471 237.999L452.315 257.758V271.472L404.64 280.715L391.127 282.239" fill="#F9B964"/>
<path d="M326.598 253.885L367.895 250.408L339.691 233.731L344.347 222.112L388.618 208.15L371.01 216.292L395.456 241.706V210.111L404.512 206.873L418.853 212.397L417.741 228.458L427.649 208.15L422.677 202.492L357.448 198.302L346.575 202.111" fill="#F9B964"/>
</g>
<path fill-rule="evenodd" clip-rule="evenodd" d="M422.214 253.954C422.214 253.954 436.251 251.633 450.642 249.244C445.38 237.189 436.281 227.186 424.742 220.772L417.751 228.365C417.751 228.365 418.888 224.273 420.465 218.618C413.778 215.571 406.582 213.779 399.239 213.33L395.46 241.587C395.46 241.587 392.357 227.767 389.203 213.523C373.419 215.146 359.458 222.847 349.704 234.223L367.89 250.273C367.89 250.273 355.83 245.097 345.033 240.447C338.701 250.117 335.336 261.411 335.35 272.949C335.35 273.644 335.379 274.332 335.403 275.022H455.517C455.541 274.332 455.57 273.644 455.57 272.949C455.573 267.04 454.694 261.162 452.961 255.509L422.214 253.954Z" stroke="#190000" stroke-width="1.26547" stroke-linecap="round" stroke-linejoin="round"/>
<path d="M337.723 271.067C334.559 271.054 331.542 272.434 329.439 274.856C327.336 277.279 326.35 280.511 326.73 283.73C329.853 285.22 333.639 286.094 337.723 286.094C341.807 286.094 345.593 285.22 348.716 283.73C349.096 280.511 348.109 277.279 346.006 274.856C343.903 272.434 340.886 271.054 337.723 271.067Z" fill="white"/>
<mask id="mask5_180_114" style="mask-type:luminance" maskUnits="userSpaceOnUse" x="326" y="271" width="23" height="15">
<path fill-rule="evenodd" clip-rule="evenodd" d="M337.729 271.101C334.572 271.088 331.561 272.444 329.463 274.823C327.364 277.202 326.379 280.376 326.759 283.537C329.875 285 333.654 285.86 337.729 285.86C341.805 285.86 345.584 285 348.7 283.537C349.08 280.376 348.095 277.202 345.996 274.823C343.897 272.444 340.887 271.088 337.729 271.101Z" fill="white"/>
</mask>
<g mask="url(#mask5_180_114)">
<path d="M323.552 271.101C355.343 274.839 339.447 296.652 339.447 296.652L364.427 290.544L349.477 264.928L326.679 255.04" fill="#D6DCF2"/>
</g>
<path fill-rule="evenodd" clip-rule="evenodd" d="M337.723 271.067C334.559 271.054 331.542 272.434 329.439 274.856C327.336 277.279 326.35 280.511 326.73 283.73C329.853 285.22 333.639 286.094 337.723 286.094C341.807 286.094 345.593 285.22 348.716 283.73C349.096 280.511 348.109 277.279 346.006 274.856C343.903 272.434 340.886 271.054 337.723 271.067Z" stroke="#190000" stroke-width="1.26547" stroke-linecap="round" stroke-linejoin="round"/>
<path d="M463.063 266.012C463.063 266.012 471.559 264.583 480.27 263.113C477.085 255.695 471.577 249.539 464.593 245.592L460.362 250.264C460.362 250.264 461.05 247.746 462.004 244.267C457.957 242.392 453.601 241.288 449.157 241.012L446.87 258.401C446.87 258.401 444.992 249.896 443.083 241.131C433.788 242.109 425.225 246.672 419.175 253.87L430.183 263.746C430.183 263.746 422.883 260.561 416.348 257.7C412.515 263.651 410.479 270.6 410.488 277.701C410.488 278.129 410.505 278.552 410.519 278.976H483.22C483.235 278.552 483.252 278.129 483.252 277.701C483.254 274.064 482.722 270.448 481.673 266.969L463.063 266.012Z" fill="#409159"/>
<mask id="mask6_180_114" style="mask-type:luminance" maskUnits="userSpaceOnUse" x="410" y="241" width="74" height="38">
<path fill-rule="evenodd" clip-rule="evenodd" d="M463.518 265.97C463.518 265.97 472.078 264.549 480.853 263.086C477.645 255.704 472.096 249.578 465.06 245.65L460.797 250.3C460.797 250.3 461.49 247.794 462.452 244.331C458.374 242.465 453.986 241.367 449.509 241.092L447.204 258.397C447.204 258.397 445.312 249.933 443.389 241.21C434.025 242.184 425.398 246.725 419.303 253.887L430.393 263.716C430.393 263.716 423.039 260.546 416.455 257.699C412.593 263.621 410.542 270.537 410.55 277.603C410.55 278.029 410.568 278.45 410.582 278.872H483.826C483.841 278.45 483.858 278.029 483.858 277.603C483.86 273.984 483.324 270.385 482.267 266.923L463.518 265.97Z" fill="white"/>
</mask>
<g mask="url(#mask6_180_114)">
<path d="M410.55 258.413L430.393 263.716L413.19 253.522L416.029 246.42L443.033 237.887L440.74 240.249L447.204 258.397V239.085L452.728 237.106L461.475 240.482L460.797 250.3L466.84 237.887L463.808 234.428L424.021 231.867L417.388 234.195" fill="#357C49"/>
<path d="M391.254 273.593L473.13 278.872C473.13 278.872 399.185 286.167 398.019 286.167C396.853 286.167 387.522 278.872 387.522 278.872" fill="#357C49"/>
<path d="M490.159 268.141L463.518 265.97L487.36 257.991L488.059 266.141" fill="#357C49"/>
</g>
<path fill-rule="evenodd" clip-rule="evenodd" d="M463.063 266.012C463.063 266.012 471.559 264.583 480.27 263.113C477.085 255.695 471.577 249.539 464.593 245.592L460.362 250.264C460.362 250.264 461.05 247.746 462.004 244.267C457.957 242.392 453.601 241.288 449.157 241.012L446.87 258.401C446.87 258.401 444.992 249.896 443.083 241.131C433.788 242.109 425.225 246.672 419.175 253.87L430.183 263.746C430.183 263.746 422.883 260.561 416.348 257.7C412.515 263.651 410.479 270.6 410.488 277.701C410.488 278.129 410.505 278.552 410.519 278.976H483.22C483.235 278.552 483.252 278.129 483.252 277.701C483.254 274.064 482.722 270.448 481.673 266.969L463.063 266.012Z" stroke="#190000" stroke-width="1.26547" stroke-linecap="round" stroke-linejoin="round"/>
<path d="M365.405 259.994C366.828 261.672 368.787 262.791 370.941 263.158" stroke="#190000" stroke-width="1.26547" stroke-linecap="round" stroke-linejoin="round"/>
<path d="M409.697 234.685L408.115 237.057" stroke="#190000" stroke-width="1.26547" stroke-linecap="round" stroke-linejoin="round"/>
<path d="M439.751 267.113C441.015 267.876 442.377 268.092 443.706 267.738" stroke="#190000" stroke-width="1.26547" stroke-linecap="round" stroke-linejoin="round"/>
<path d="M361.45 208.481C361.915 208.668 362.487 208.732 363.032 208.657" stroke="#190000" stroke-width="1.26547" stroke-linecap="round" stroke-linejoin="round"/>
<path d="M370.941 184.857V185.648" stroke="#190000" stroke-width="1.26547" stroke-linecap="round" stroke-linejoin="round"/>
<path d="M340.886 183.18L341.677 183.371" stroke="#190000" stroke-width="1.26547" stroke-linecap="round" stroke-linejoin="round"/>
<path d="M393.087 206.212L391.505 207.794" stroke="#190000" stroke-width="1.26547" stroke-linecap="round" stroke-linejoin="round"/>
<path d="M405.742 285.304H607.427V248.13H405.742V285.304Z" fill="#D9342D" stroke="black" stroke-width="1.26547" stroke-linecap="round" stroke-linejoin="round"/>
<mask id="mask7_180_114" style="mask-type:luminance" maskUnits="userSpaceOnUse" x="405" y="247" width="204" height="38">
<path fill-rule="evenodd" clip-rule="evenodd" d="M405.762 284.914H608.087V247.411H405.762V284.914Z" fill="white"/>
</mask>
<g mask="url(#mask7_180_114)">
<path d="M556.941 289.943H582.74V241.009H556.941V289.943Z" fill="white" stroke="black" stroke-width="1.26547" stroke-linecap="round" stroke-linejoin="round"/>
<path d="M556.941 289.943V290.213H582.741L582.929 290.135L583.008 289.943V241.009L582.929 240.817L582.741 240.739H556.941L556.751 240.817L556.674 241.009V289.943L556.751 290.135L556.941 290.213V289.943H557.208V241.279H582.473V289.673H556.941V289.943H557.208H556.941Z" fill="#040000"/>
<path d="M556.941 289.943V290.213H582.741L582.929 290.135L583.008 289.943V241.009L582.929 240.817L582.741 240.739H556.941L556.751 240.817L556.674 241.009V289.943L556.751 290.135L556.941 290.213V289.943H557.208V241.279H582.473V289.673H556.941V289.943H557.208H556.941V289.943V289.943Z" stroke="black" stroke-width="1.26547" stroke-linecap="round" stroke-linejoin="round"/>
<path d="M545.479 289.943H550.307V241.009H545.479V289.943Z" fill="white" stroke="black" stroke-width="1.26547" stroke-linecap="round" stroke-linejoin="round"/>
<path d="M545.479 289.943V290.213H550.307L550.497 290.135L550.575 289.943V241.009L550.497 240.817L550.307 240.739H545.479L545.29 240.817L545.211 241.009V289.943L545.29 290.135L545.479 290.213V289.943H545.746V241.279H550.04V289.673H545.479V289.943H545.746H545.479Z" fill="#040000"/>
<path d="M545.479 289.943V290.213H550.307L550.497 290.135L550.575 289.943V241.009L550.497 240.817L550.307 240.739H545.479L545.29 240.817L545.211 241.009V289.943L545.29 290.135L545.479 290.213V289.943H545.746V241.279H550.04V289.673H545.479V289.943H545.746H545.479V289.943V289.943Z" stroke="black" stroke-width="1.26547" stroke-linecap="round" stroke-linejoin="round"/>
</g>
<path fill-rule="evenodd" clip-rule="evenodd" d="M405.742 285.304H607.427V248.13H405.742V285.304V285.304V285.304Z" stroke="black" stroke-width="1.26547" stroke-linecap="round" stroke-linejoin="round"/>
<path d="M478.81 251.299C468.057 250.896 540.072 276.143 542.1 276.594C544.127 277.045 538.96 260.531 538.96 260.531L524.541 256.478" fill="#B92022"/>
<path d="M478.81 251.299C468.057 250.896 540.072 276.143 542.1 276.594C544.127 277.045 538.96 260.531 538.96 260.531L524.541 256.478" stroke="black" stroke-width="1.26547" stroke-linecap="round" stroke-linejoin="round"/>
<path d="M406.009 285.034V285.304H607.951L608.14 285.224L608.217 285.034V247.609L608.14 247.418L607.951 247.339H406.009L405.82 247.418L405.742 247.609V285.034L405.82 285.224L406.009 285.304V285.034H406.276V247.879H607.684V284.763L406.009 284.764V285.034H406.276H406.009Z" fill="#040000"/>
<path d="M406.009 285.034V285.304H607.951L608.14 285.224L608.217 285.034V247.609L608.14 247.418L607.951 247.339H406.009L405.82 247.418L405.742 247.609V285.034L405.82 285.224L406.009 285.304V285.034H406.276V247.879H607.684V284.763L406.009 284.764V285.034H406.276H406.009V285.034V285.034Z" stroke="black" stroke-width="1.26547" stroke-linecap="round" stroke-linejoin="round"/>
<path d="M450.033 247.339L554.142 271.067C554.142 271.067 556.249 249.742 560.762 247.339H450.033Z" fill="white" stroke="black" stroke-width="1.26547" stroke-linecap="round" stroke-linejoin="round"/>
<path d="M449.51 247.6L449.451 247.854L553.808 271.067L554.024 271.024L554.133 270.838C554.134 270.835 554.265 269.539 554.533 267.55C554.935 264.568 555.644 260.035 556.675 256.041C557.189 254.045 557.784 252.182 558.454 250.721C559.121 249.258 559.88 248.21 560.629 247.829L560.762 247.536C560.732 247.42 560.625 247.339 560.503 247.339H449.51C449.374 247.339 449.259 247.439 449.244 247.571C449.229 247.702 449.318 247.824 449.451 247.854L449.51 247.6V247.86H560.503V247.6L560.377 247.369C559.12 248.04 558.157 249.826 557.305 252.131C554.787 259.046 553.604 270.777 553.601 270.787L553.867 270.813L553.927 270.559L449.569 247.346L449.51 247.6L449.51 247.6Z" fill="#040000" stroke="black" stroke-width="1.26547" stroke-linecap="round" stroke-linejoin="round"/>
<path d="M586.863 200.675H435.006C440.919 212.725 435.006 247.34 435.006 247.34H586.863C586.863 247.34 580.949 212.725 586.863 200.675Z" fill="white" stroke="black" stroke-width="1.26547" stroke-linecap="round" stroke-linejoin="round"/>
<mask id="mask8_180_114" style="mask-type:luminance" maskUnits="userSpaceOnUse" x="435" y="200" width="152" height="47">
<path fill-rule="evenodd" clip-rule="evenodd" d="M586.603 200.775H435.042C440.944 212.658 435.042 246.794 435.042 246.794H586.603C586.603 246.794 580.702 212.658 586.603 200.775Z" fill="white"/>
</mask>
<g mask="url(#mask8_180_114)">
<path d="M432.946 218.587L436.006 218.706L488.423 220.748L429.886 223.784" fill="#D4D9EE"/>
<path d="M432.946 218.587L436.006 218.706L488.423 220.748L429.886 223.784" stroke="black" stroke-width="1.26547" stroke-linecap="round" stroke-linejoin="round"/>
<path d="M610.166 231.778L607.105 231.659L554.689 229.617L613.226 226.58" fill="#D4D9EE"/>
<path d="M610.166 231.778L607.105 231.659L554.689 229.617L613.226 226.58" stroke="black" stroke-width="1.26547" stroke-linecap="round" stroke-linejoin="round"/>
<path d="M611.697 209.793L608.636 209.674L444 207.574L614.757 204.595" fill="#D4D9EE"/>
<path d="M611.697 209.793L608.636 209.674L444 207.574L614.757 204.595" stroke="black" stroke-width="1.26547" stroke-linecap="round" stroke-linejoin="round"/>
</g>
<path fill-rule="evenodd" clip-rule="evenodd" d="M586.863 200.675H435.006C440.919 212.725 435.006 247.34 435.006 247.34H586.863C586.863 247.34 580.949 212.725 586.863 200.675Z" stroke="black" stroke-width="1.26547" stroke-linecap="round" stroke-linejoin="round"/>
<path d="M587.391 200.942V200.675H435.269L435.042 200.801L435.03 201.06C436.97 204.951 437.638 211.38 437.635 218.196C437.635 225.013 436.978 232.224 436.32 237.728C435.991 240.481 435.663 242.806 435.416 244.444C435.17 246.08 435.006 247.025 435.006 247.028L435.065 247.244L435.269 247.34H587.391L587.595 247.244L587.653 247.028C587.653 247.025 587.489 246.08 587.244 244.444C586.504 239.532 585.025 228.422 585.025 218.196C585.022 211.38 585.691 204.95 587.629 201.06L587.617 200.801L587.391 200.675V200.942L587.152 200.823C585.142 204.873 584.494 211.342 584.492 218.196C584.492 231.896 587.128 247.111 587.128 247.119L587.391 247.073V246.807H435.269V247.073L435.531 247.119C435.532 247.111 438.168 231.896 438.168 218.196C438.165 211.342 437.517 204.874 435.508 200.823L435.269 200.942V201.208H587.391V200.942L587.152 200.823L587.391 200.942Z" fill="#040000"/>
<path d="M587.391 200.942V200.675H435.269L435.042 200.801L435.03 201.06C436.97 204.951 437.638 211.38 437.635 218.196C437.635 225.013 436.978 232.224 436.32 237.728C435.991 240.481 435.663 242.806 435.416 244.444C435.17 246.08 435.006 247.025 435.006 247.028L435.065 247.244L435.269 247.34H587.391L587.595 247.244L587.653 247.028C587.653 247.025 587.489 246.08 587.244 244.444C586.504 239.532 585.025 228.422 585.025 218.196C585.022 211.38 585.691 204.95 587.629 201.06L587.617 200.801L587.391 200.675V200.942L587.152 200.823C585.142 204.873 584.494 211.342 584.492 218.196C584.492 231.896 587.128 247.111 587.128 247.119L587.391 247.073V246.807H435.269V247.073L435.531 247.119C435.532 247.111 438.168 231.896 438.168 218.196C438.165 211.342 437.517 204.874 435.508 200.823L435.269 200.942V201.208H587.391V200.942L587.152 200.823L587.391 200.942V200.942Z" stroke="black" stroke-width="1.26547" stroke-linecap="round" stroke-linejoin="round"/>
<path d="M593.19 200.675H429.469V191.975H593.19V200.675Z" fill="#14B18E" stroke="black" stroke-width="1.26547" stroke-linecap="round" stroke-linejoin="round"/>
<path d="M592.923 201.191V200.916H429.212V192.524H592.657V201.191H592.923V200.916V201.191H593.19V192.25L593.113 192.055L592.923 191.975H428.945L428.757 192.055L428.679 192.25V201.191L428.757 201.385L428.945 201.466H592.923L593.113 201.385L593.19 201.191H592.923Z" fill="#040000"/>
<path d="M592.923 201.191V200.916H429.212V192.524H592.657V201.191H592.923V200.916V201.191H593.19V192.25L593.113 192.055L592.923 191.975H428.945L428.757 192.055L428.679 192.25V201.191L428.757 201.385L428.945 201.466H592.923L593.113 201.385L593.19 201.191H592.923V201.191V201.191Z" stroke="black" stroke-width="1.26547" stroke-linecap="round" stroke-linejoin="round"/>
<path d="M593.19 248.13H429.469V239.43H593.19V248.13Z" fill="#14B18E" stroke="black" stroke-width="1.26547" stroke-linecap="round" stroke-linejoin="round"/>
<mask id="mask9_180_114" style="mask-type:luminance" maskUnits="userSpaceOnUse" x="429" y="239" width="165" height="10">
<path fill-rule="evenodd" clip-rule="evenodd" d="M593.509 248.298H429.514V239.509H593.509V248.298Z" fill="white"/>
</mask>
<g mask="url(#mask9_180_114)">
<path d="M423.207 247.313C435.44 247.313 570.112 244.989 571.015 248.299C571.919 251.608 437.957 256.487 437.957 256.487L410.786 247.313" fill="#14B18E"/>
<path d="M423.207 247.313C435.44 247.313 570.112 244.989 571.015 248.299C571.919 251.608 437.957 256.487 437.957 256.487L410.786 247.313" stroke="black" stroke-width="1.26547" stroke-linecap="round" stroke-linejoin="round"/>
<path d="M423.207 247.583C430.357 247.583 479.253 246.79 518.881 246.79C532.995 246.79 545.934 246.89 555.387 247.163C560.113 247.299 563.968 247.479 566.66 247.71C568.004 247.824 569.057 247.953 569.775 248.092C570.049 248.14 570.319 248.211 570.582 248.304L570.758 248.392L570.775 248.407L570.849 248.346L570.759 248.37L570.775 248.407L570.849 248.346L570.759 248.37L570.898 248.332H570.754L570.759 248.372L570.898 248.332H570.874L570.77 248.266L570.754 248.332H570.874L570.77 248.266L570.779 248.272L570.771 248.265L570.77 248.266L570.779 248.272L570.771 248.265C570.755 248.293 570.555 248.409 570.238 248.504C568.991 248.901 565.942 249.335 561.622 249.768C546.484 251.291 515.559 252.903 488.427 254.135C474.86 254.751 462.24 255.271 453.012 255.637C448.398 255.821 444.632 255.965 442.019 256.064C439.406 256.163 437.952 256.217 437.947 256.217L437.957 256.487L438.042 256.23L410.87 247.056C410.779 247.025 410.679 247.045 410.608 247.109C410.536 247.174 410.503 247.272 410.523 247.367C410.542 247.462 410.61 247.539 410.701 247.569L437.873 256.742L437.967 256.757C437.967 256.757 471.234 255.545 504.502 253.92C521.136 253.107 537.77 252.191 550.249 251.272C556.488 250.811 561.689 250.35 565.335 249.901C567.159 249.675 568.593 249.453 569.583 249.232C569.978 249.153 570.365 249.041 570.741 248.896C570.866 248.847 570.984 248.781 571.091 248.698C571.209 248.613 571.281 248.478 571.287 248.332L571.273 248.227C571.181 247.966 570.993 247.897 570.775 247.8C569.946 247.48 568.003 247.249 565.061 247.045C556.257 246.448 538.734 246.25 518.881 246.25C479.249 246.25 430.344 247.042 423.207 247.042C423.112 247.042 423.023 247.094 422.976 247.177C422.928 247.261 422.928 247.364 422.976 247.448C423.023 247.531 423.112 247.583 423.207 247.583L423.207 247.583Z" fill="#040000" stroke="black" stroke-width="1.26547" stroke-linecap="round" stroke-linejoin="round"/>
</g>
<path fill-rule="evenodd" clip-rule="evenodd" d="M593.19 248.13H429.469V239.43H593.19V248.13V248.13V248.13Z" stroke="black" stroke-width="1.26547" stroke-linecap="round" stroke-linejoin="round"/>
<path d="M592.923 248.646V248.372H429.212V239.98H592.657V248.646H592.923V248.372V248.646H593.19V239.705L593.113 239.511L592.923 239.43H428.945L428.757 239.511L428.679 239.705V248.646L428.757 248.842L428.945 248.921H592.923L593.113 248.842L593.19 248.646H592.923Z" fill="#040000"/>
<path d="M592.923 248.646V248.372H429.212V239.98H592.657V248.646H592.923V248.372V248.646H593.19V239.705L593.113 239.511L592.923 239.43H428.945L428.757 239.511L428.679 239.705V248.646L428.757 248.842L428.945 248.921H592.923L593.113 248.842L593.19 248.646H592.923V248.646V248.646Z" stroke="black" stroke-width="1.26547" stroke-linecap="round" stroke-linejoin="round"/>
<path d="M528.827 228.347C532.523 227.56 536.219 226.773 539.915 225.986C540.411 225.88 540.201 225.098 539.704 225.203C536.009 225.991 532.314 226.778 528.618 227.565C528.121 227.672 528.332 228.453 528.827 228.347V228.347Z" fill="#040000" stroke="black" stroke-width="1.26547" stroke-linecap="round" stroke-linejoin="round"/>
<path d="M448.831 269.485H459.145C459.65 269.485 459.651 268.694 459.145 268.694H448.831C448.325 268.694 448.325 269.485 448.831 269.485Z" fill="#040000" stroke="black" stroke-width="1.26547" stroke-linecap="round" stroke-linejoin="round"/>
<path d="M499.422 273.073L500.652 269.308V249.713H487.998L489.342 274.231L499.422 273.073Z" fill="#FACCC4"/>
<mask id="mask10_180_114" style="mask-type:luminance" maskUnits="userSpaceOnUse" x="488" y="249" width="13" height="25">
<path fill-rule="evenodd" clip-rule="evenodd" d="M499.152 272.75L500.35 269.046V249.772H488.023L489.332 273.889L499.152 272.75Z" fill="white"/>
</mask>
<g mask="url(#mask10_180_114)">
<path d="M486.505 266.935C488.992 267.623 500.35 264.769 500.35 264.769L487.248 260.777" fill="#ED707B"/>
</g>
<path fill-rule="evenodd" clip-rule="evenodd" d="M499.422 273.073L500.652 269.308V249.713H487.998L489.342 274.231L499.422 273.073V273.073Z" stroke="#190000" stroke-width="1.26547" stroke-linecap="round" stroke-linejoin="round"/>
<path d="M465.856 284.513C465.856 284.513 465.302 275.049 477.289 276.208C489.277 277.367 488.165 267.904 488.165 267.904L500.652 268.676V281.285C500.652 283.068 499.407 284.513 497.87 284.513L465.856 284.513Z" fill="#D3575E" stroke="#190000" stroke-width="1.26547" stroke-linecap="round" stroke-linejoin="round"/>
<path d="M531.666 273.073L529.734 269.308L525.962 249.713H538.38L541.78 274.231L531.666 273.073Z" fill="#FACCC4"/>
<mask id="mask11_180_114" style="mask-type:luminance" maskUnits="userSpaceOnUse" x="525" y="249" width="17" height="25">
<path fill-rule="evenodd" clip-rule="evenodd" d="M531.675 272.75L529.744 269.047L525.975 249.772H538.385L541.784 273.889L531.675 272.75Z" fill="white"/>
</mask>
<g mask="url(#mask11_180_114)">
<path d="M526.621 267.338C535.029 265.293 540.334 259.558 540.334 259.558L527.929 259.251" fill="#ED707B"/>
</g>
<path fill-rule="evenodd" clip-rule="evenodd" d="M531.666 273.073L529.734 269.308L525.962 249.713H538.38L541.78 274.231L531.666 273.073V273.073Z" stroke="#190000" stroke-width="1.26547" stroke-linecap="round" stroke-linejoin="round"/>
<path d="M567.09 284.513C567.09 284.513 565.801 275.049 554.011 276.208C542.221 277.367 541.492 267.904 541.492 267.904L529.125 268.676L531.581 281.285C531.929 283.068 533.459 284.513 534.999 284.513L567.09 284.513Z" fill="#D3575E" stroke="#190000" stroke-width="1.26547" stroke-linecap="round" stroke-linejoin="round"/>
<path d="M522.535 259.783C522.535 259.783 534.505 261.455 540.989 255.378L535.358 198.012L520.363 115.255L492.743 123.79L498.757 148.479L513.283 198.111L522.535 259.783Z" fill="#516DDB"/>
<mask id="mask12_180_114" style="mask-type:luminance" maskUnits="userSpaceOnUse" x="492" y="114" width="50" height="146">
<path fill-rule="evenodd" clip-rule="evenodd" d="M522.767 259.308C522.767 259.308 534.822 260.983 541.352 254.896L535.681 197.443L520.58 114.56L492.763 123.108L498.82 147.834L513.449 197.542L522.767 259.308Z" fill="white"/>
</mask>
<g mask="url(#mask12_180_114)">
<path d="M503.516 149.672C509.2 142.785 505.095 157.707 509.9 185.485C514.706 213.263 493.766 186.939 493.766 186.939" fill="#3152BA"/>
<path d="M515.592 127.731L517.086 147.196C517.271 149.616 519.171 151.413 521.334 151.215L535.212 149.945" stroke="#3152BA" stroke-width="1.26547" stroke-linecap="round" stroke-linejoin="round"/>
<g opacity="0.16">
<path fill-rule="evenodd" clip-rule="evenodd" d="M524.349 258.406L518.709 262.57L434.471 171.274L440.111 167.11L524.349 258.406V258.406Z" stroke="#3152BA" stroke-width="1.26547" stroke-linecap="round" stroke-linejoin="round"/>
<path fill-rule="evenodd" clip-rule="evenodd" d="M535.105 250.462L529.465 254.627L445.228 163.331L450.868 159.167L535.105 250.462V250.462Z" stroke="#3152BA" stroke-width="1.26547" stroke-linecap="round" stroke-linejoin="round"/>
<path fill-rule="evenodd" clip-rule="evenodd" d="M545.862 242.52L540.222 246.685L455.984 155.389L461.624 151.224L545.862 242.52V242.52Z" stroke="#3152BA" stroke-width="1.26547" stroke-linecap="round" stroke-linejoin="round"/>
<path fill-rule="evenodd" clip-rule="evenodd" d="M556.619 234.577L550.978 238.742L466.741 147.446L472.381 143.281L556.619 234.577V234.577Z" stroke="#3152BA" stroke-width="1.26547" stroke-linecap="round" stroke-linejoin="round"/>
<path fill-rule="evenodd" clip-rule="evenodd" d="M567.375 226.634L561.735 230.799L477.497 139.503L483.137 135.338L567.375 226.634V226.634Z" stroke="#3152BA" stroke-width="1.26547" stroke-linecap="round" stroke-linejoin="round"/>
<path fill-rule="evenodd" clip-rule="evenodd" d="M578.131 218.691L572.491 222.856L488.254 131.56L493.894 127.395L578.131 218.691V218.691Z" stroke="#3152BA" stroke-width="1.26547" stroke-linecap="round" stroke-linejoin="round"/>
<path fill-rule="evenodd" clip-rule="evenodd" d="M588.888 210.748L583.248 214.913L499.01 123.617L504.65 119.452L588.888 210.748V210.748Z" stroke="#3152BA" stroke-width="1.26547" stroke-linecap="round" stroke-linejoin="round"/>
<path fill-rule="evenodd" clip-rule="evenodd" d="M599.644 202.805L594.004 206.97L509.767 115.674L515.407 111.509L599.644 202.805V202.805Z" stroke="#3152BA" stroke-width="1.26547" stroke-linecap="round" stroke-linejoin="round"/>
</g>
<g opacity="0.46">
<path fill-rule="evenodd" clip-rule="evenodd" d="M428.84 187.655L423.106 181.44L528.719 103.453L534.454 109.668L428.84 187.655V187.655Z" stroke="#3152BA" stroke-width="1.26547" stroke-linecap="round" stroke-linejoin="round"/>
<path fill-rule="evenodd" clip-rule="evenodd" d="M439.777 199.508L434.042 193.293L539.656 115.306L545.39 121.521L439.777 199.508V199.508Z" stroke="#3152BA" stroke-width="1.26547" stroke-linecap="round" stroke-linejoin="round"/>
<path fill-rule="evenodd" clip-rule="evenodd" d="M450.713 211.361L444.979 205.146L550.592 127.159L556.327 133.374L450.713 211.361V211.361Z" stroke="#3152BA" stroke-width="1.26547" stroke-linecap="round" stroke-linejoin="round"/>
<path fill-rule="evenodd" clip-rule="evenodd" d="M461.65 223.215L455.916 216.999L561.529 139.012L567.264 145.227L461.65 223.215V223.215Z" stroke="#3152BA" stroke-width="1.26547" stroke-linecap="round" stroke-linejoin="round"/>
<path fill-rule="evenodd" clip-rule="evenodd" d="M472.586 235.067L466.852 228.852L572.465 150.865L578.2 157.08L472.586 235.067V235.067Z" stroke="#3152BA" stroke-width="1.26547" stroke-linecap="round" stroke-linejoin="round"/>
<path fill-rule="evenodd" clip-rule="evenodd" d="M483.523 246.92L477.789 240.705L583.402 162.718L589.137 168.933L483.523 246.92V246.92Z" stroke="#3152BA" stroke-width="1.26547" stroke-linecap="round" stroke-linejoin="round"/>
<path fill-rule="evenodd" clip-rule="evenodd" d="M494.46 258.773L488.725 252.558L594.339 174.571L600.073 180.786L494.46 258.773V258.773Z" stroke="#3152BA" stroke-width="1.26547" stroke-linecap="round" stroke-linejoin="round"/>
<path fill-rule="evenodd" clip-rule="evenodd" d="M505.396 270.627L499.662 264.412L605.275 186.424L611.01 192.639L505.396 270.627V270.627Z" stroke="#3152BA" stroke-width="1.26547" stroke-linecap="round" stroke-linejoin="round"/>
</g>
</g>
<path fill-rule="evenodd" clip-rule="evenodd" d="M522.535 259.783C522.535 259.783 534.505 261.455 540.989 255.378L535.358 198.012L520.363 115.255L492.743 123.79L498.757 148.478L513.283 198.111L522.535 259.783Z" stroke="#190000" stroke-width="1.26547" stroke-linecap="round" stroke-linejoin="round"/>
<path d="M504.851 124.747H480.879V195.282L485.917 260.171C485.917 260.171 488.4 264.703 506.98 260.746L505.528 195.781L505.042 144.775" fill="#516DDB"/>
<mask id="mask13_180_114" style="mask-type:luminance" maskUnits="userSpaceOnUse" x="480" y="124" width="27" height="139">
<path fill-rule="evenodd" clip-rule="evenodd" d="M504.674 124.807H480.966V195.494L485.949 260.523C485.949 260.523 488.404 265.065 506.779 261.099L505.344 195.994L504.863 144.878" fill="white"/>
</mask>
<g mask="url(#mask13_180_114)">
<path d="M502.437 137.611C503.367 140.425 469.825 146.804 467.399 159.271C466.386 164.477 478.497 130.779 478.497 130.779L491.224 128.474" fill="#3152BA"/>
<path d="M478 152.697H487.775C490.608 152.697 492.905 150.407 492.905 147.583V131.485" stroke="#3152BA" stroke-width="1.26547" stroke-linecap="round" stroke-linejoin="round"/>
<g opacity="0.16">
<path fill-rule="evenodd" clip-rule="evenodd" d="M501.169 265.213L495.525 269.382L411.233 177.982L416.877 173.812L501.169 265.213V265.213Z" stroke="#3152BA" stroke-width="1.26547" stroke-linecap="round" stroke-linejoin="round"/>
<path fill-rule="evenodd" clip-rule="evenodd" d="M511.932 257.26L506.288 261.43L421.996 170.03L427.64 165.86L511.932 257.26V257.26Z" stroke="#3152BA" stroke-width="1.26547" stroke-linecap="round" stroke-linejoin="round"/>
<path fill-rule="evenodd" clip-rule="evenodd" d="M522.696 249.309L517.052 253.478L432.76 162.078L438.404 157.908L522.696 249.309V249.309Z" stroke="#3152BA" stroke-width="1.26547" stroke-linecap="round" stroke-linejoin="round"/>
<path fill-rule="evenodd" clip-rule="evenodd" d="M533.459 241.357L527.815 245.527L443.523 154.126L449.167 149.957L533.459 241.357V241.357Z" stroke="#3152BA" stroke-width="1.26547" stroke-linecap="round" stroke-linejoin="round"/>
<path fill-rule="evenodd" clip-rule="evenodd" d="M544.223 233.405L538.579 237.574L454.287 146.174L459.931 142.004L544.223 233.405V233.405Z" stroke="#3152BA" stroke-width="1.26547" stroke-linecap="round" stroke-linejoin="round"/>
<path fill-rule="evenodd" clip-rule="evenodd" d="M554.986 225.453L549.342 229.622L465.05 138.222L470.694 134.052L554.986 225.453V225.453Z" stroke="#3152BA" stroke-width="1.26547" stroke-linecap="round" stroke-linejoin="round"/>
<path fill-rule="evenodd" clip-rule="evenodd" d="M565.75 217.501L560.106 221.671L475.814 130.27L481.458 126.101L565.75 217.501V217.501Z" stroke="#3152BA" stroke-width="1.26547" stroke-linecap="round" stroke-linejoin="round"/>
<path fill-rule="evenodd" clip-rule="evenodd" d="M576.513 209.549L570.869 213.718L486.577 122.318L492.221 118.148L576.513 209.549V209.549Z" stroke="#3152BA" stroke-width="1.26547" stroke-linecap="round" stroke-linejoin="round"/>
</g>
<g opacity="0.46">
<path fill-rule="evenodd" clip-rule="evenodd" d="M405.599 194.382L399.86 188.16L505.542 110.083L511.28 116.306L405.599 194.382V194.382Z" stroke="#3152BA" stroke-width="1.26547" stroke-linecap="round" stroke-linejoin="round"/>
<path fill-rule="evenodd" clip-rule="evenodd" d="M416.542 206.249L410.804 200.027L516.485 121.95L522.224 128.172L416.542 206.249V206.249Z" stroke="#3152BA" stroke-width="1.26547" stroke-linecap="round" stroke-linejoin="round"/>
<path fill-rule="evenodd" clip-rule="evenodd" d="M427.486 218.115L421.748 211.893L527.429 133.816L533.167 140.039L427.486 218.115V218.115Z" stroke="#3152BA" stroke-width="1.26547" stroke-linecap="round" stroke-linejoin="round"/>
<path fill-rule="evenodd" clip-rule="evenodd" d="M438.429 229.982L432.691 223.76L538.373 145.683L544.111 151.905L438.429 229.982V229.982Z" stroke="#3152BA" stroke-width="1.26547" stroke-linecap="round" stroke-linejoin="round"/>
<path fill-rule="evenodd" clip-rule="evenodd" d="M449.373 241.848L443.635 235.626L549.317 157.549L555.055 163.771L449.373 241.848V241.848Z" stroke="#3152BA" stroke-width="1.26547" stroke-linecap="round" stroke-linejoin="round"/>
<path fill-rule="evenodd" clip-rule="evenodd" d="M460.317 253.714L454.578 247.492L560.26 169.415L565.998 175.638L460.317 253.714V253.714Z" stroke="#3152BA" stroke-width="1.26547" stroke-linecap="round" stroke-linejoin="round"/>
<path fill-rule="evenodd" clip-rule="evenodd" d="M471.261 265.581L465.522 259.359L571.204 181.282L576.942 187.505L471.261 265.581V265.581Z" stroke="#3152BA" stroke-width="1.26547" stroke-linecap="round" stroke-linejoin="round"/>
<path fill-rule="evenodd" clip-rule="evenodd" d="M482.204 277.448L476.466 271.225L582.147 193.149L587.886 199.371L482.204 277.448V277.448Z" stroke="#3152BA" stroke-width="1.26547" stroke-linecap="round" stroke-linejoin="round"/>
</g>
</g>
<path d="M504.851 124.747H480.879V195.282L485.917 260.171C485.917 260.171 488.4 264.703 506.98 260.746L505.528 195.781L505.042 144.775" stroke="#190000" stroke-width="1.26547" stroke-linecap="round" stroke-linejoin="round"/>
<path d="M476.405 83.4833L479.295 71.3604C479.295 71.3604 496 63.6445 515.357 67.1173C515.357 67.1173 525.171 130.659 525.171 133.78C525.171 133.78 500.749 142.81 474.045 132.354C471.991 128.974 481.932 120.155 476.405 83.4833Z" fill="#FBD164"/>
<mask id="mask14_180_114" style="mask-type:luminance" maskUnits="userSpaceOnUse" x="474" y="66" width="52" height="72">
<path fill-rule="evenodd" clip-rule="evenodd" d="M477.202 83.5778L480.079 71.4307C480.079 71.4307 496.709 63.6995 515.978 67.1792C515.978 67.1792 525.748 130.848 525.748 133.975C525.748 133.975 501.437 143.023 474.853 132.546C472.808 129.16 482.705 120.323 477.202 83.5778Z" fill="white"/>
</mask>
<g mask="url(#mask14_180_114)">
<path d="M500.611 92.0735C512.87 96.5855 491.48 104.2 501.691 113.861L504.573 113.599C492.261 106.034 516.64 96.2423 501.423 91.3601L500.611 92.0735Z" fill="#409159" stroke="#190000" stroke-width="1.26547" stroke-linecap="round" stroke-linejoin="round"/>
<path d="M501.015 89.4578C495.496 74.5193 511.39 73.6538 503.181 88.9433L501.015 89.4578Z" fill="#F08059"/>
<path d="M501.015 89.4578C495.496 74.5193 511.39 73.6538 503.181 88.9433" stroke="#190000" stroke-width="1.26547" stroke-linecap="round" stroke-linejoin="round"/>
<path d="M502.126 90.9177C507.645 105.856 491.751 106.722 499.96 91.4322L502.126 90.9177Z" fill="#F08059"/>
<path d="M502.126 90.9177C507.645 105.856 491.751 106.722 499.96 91.4322" stroke="#190000" stroke-width="1.26547" stroke-linecap="round" stroke-linejoin="round"/>
<path d="M502.486 89.4671C519.821 80.4855 516.976 95.9312 502.523 91.4782L502.486 89.4671Z" fill="#F08059"/>
<path d="M502.486 89.4671C519.821 80.4855 516.976 95.9312 502.523 91.4782" stroke="#190000" stroke-width="1.26547" stroke-linecap="round" stroke-linejoin="round"/>
<path d="M500.655 90.9083C483.32 99.89 486.165 84.4443 500.618 88.8972L500.655 90.9083Z" fill="#F08059"/>
<path d="M500.655 90.9083C483.32 99.89 486.165 84.4443 500.618 88.8972" stroke="#190000" stroke-width="1.26547" stroke-linecap="round" stroke-linejoin="round"/>
<path d="M501.825 89.1623C510.18 72.2482 519.407 82.558 503.383 90.2205L501.825 89.1623Z" fill="#F08059"/>
<path d="M501.825 89.1623C510.18 72.2482 519.407 82.558 503.383 90.2205" stroke="#190000" stroke-width="1.26547" stroke-linecap="round" stroke-linejoin="round"/>
<path d="M501.316 91.2137C492.961 108.128 483.734 97.818 499.758 90.1555L501.316 91.2137Z" fill="#F08059"/>
<path d="M501.316 91.2137C492.961 108.128 483.734 97.818 499.758 90.1555" stroke="#190000" stroke-width="1.26547" stroke-linecap="round" stroke-linejoin="round"/>
<path d="M502.61 90.1948C518.771 94.407 505.521 105.941 501.105 91.9806L502.61 90.1948Z" fill="#F08059"/>
<path d="M502.61 90.1948C518.771 94.407 505.521 105.941 501.105 91.9806" stroke="#190000" stroke-width="1.26547" stroke-linecap="round" stroke-linejoin="round"/>
<path d="M500.531 90.1811C484.37 85.9689 497.62 74.4352 502.036 88.3953L500.531 90.1811Z" fill="#F08059"/>
<path d="M500.531 90.1811C484.37 85.9689 497.62 74.4352 502.036 88.3953" stroke="#190000" stroke-width="1.26547" stroke-linecap="round" stroke-linejoin="round"/>
<ellipse cx="501.677" cy="90.1779" rx="5.52425" ry="4.34917" transform="rotate(-39.4594 501.677 90.1779)" fill="white" stroke="#190000" stroke-width="1.26547" stroke-linecap="round" stroke-linejoin="round"/>
<path d="M503.344 105.934C510.153 109.446 513.73 101.249 513.73 101.249C513.73 101.249 503.967 99.3722 503.344 105.934Z" fill="#409159" stroke="#190000" stroke-width="1.26547" stroke-linecap="round" stroke-linejoin="round"/>
<ellipse cx="497.076" cy="69.5414" rx="11.9342" ry="11.8388" fill="#FB81B2" stroke="#190000" stroke-width="1.26547" stroke-linecap="round" stroke-linejoin="round"/>
<ellipse cx="497.076" cy="67.4279" rx="10.8562" ry="11.8388" fill="#FACCC4" stroke="#190000" stroke-width="1.26547" stroke-linecap="round" stroke-linejoin="round"/>
<path d="M479.897 92.7261C489.187 82.2419 482.061 114.455 486.38 113.802L486.312 124.352C488.683 128.578 474.705 128.874 474.853 132.546C475.001 136.218 469.804 128.871 469.804 128.871L468.586 109.992" fill="#F9AE64"/>
<path d="M518.057 80.159C512.655 78.4667 523.234 101.007 510.222 103.529C497.211 106.051 517.551 124.352 517.551 124.352L510.172 138.443L525.748 105.713L524.81 95.2206" fill="#F9AE64"/>
</g>
<path fill-rule="evenodd" clip-rule="evenodd" d="M476.405 83.4833L479.295 71.3604C479.295 71.3604 496 63.6445 515.357 67.1173C515.357 67.1173 525.171 130.659 525.171 133.78C525.171 133.78 500.749 142.81 474.045 132.354C471.991 128.974 481.932 120.155 476.405 83.4833Z" stroke="#190000" stroke-width="1.26547" stroke-linecap="round" stroke-linejoin="round"/>
<path d="M485.657 110.201L490.443 138.639C490.552 139.279 490.924 139.844 491.467 140.195C492.01 140.547 492.675 140.654 493.3 140.49L525.819 132C526.953 131.706 527.686 130.603 527.52 129.438L523.735 103.001C523.644 102.375 523.301 101.813 522.787 101.446C522.273 101.08 521.632 100.941 521.014 101.062L487.493 107.551C486.266 107.786 485.45 108.963 485.657 110.201Z" fill="white"/>
<mask id="mask15_180_114" style="mask-type:luminance" maskUnits="userSpaceOnUse" x="485" y="101" width="43" height="41">
<path fill-rule="evenodd" clip-rule="evenodd" d="M485.705 110.331L490.529 139.092C490.639 139.739 491.014 140.31 491.561 140.666C492.108 141.022 492.779 141.13 493.409 140.964L526.185 132.378C527.328 132.081 528.067 130.965 527.9 129.787L524.085 103.049C523.993 102.416 523.648 101.847 523.13 101.477C522.611 101.106 521.965 100.966 521.342 101.088L487.556 107.65C486.319 107.888 485.497 109.079 485.705 110.331Z" fill="white"/>
</mask>
<g mask="url(#mask15_180_114)">
<path d="M486.601 107.017L493.451 145.707L488.325 144.748L483.099 107.55" fill="white"/>
<path d="M486.601 107.017L493.451 145.707L488.325 144.748L483.099 107.55" stroke="#190000" stroke-width="1.26547" stroke-linecap="round" stroke-linejoin="round"/>
<ellipse cx="509.838" cy="120.127" rx="4.7748" ry="4.79627" fill="white" stroke="#190000" stroke-width="1.26547" stroke-linecap="round" stroke-linejoin="round"/>
</g>
<path fill-rule="evenodd" clip-rule="evenodd" d="M485.657 110.201L490.443 138.639C490.552 139.279 490.924 139.844 491.467 140.195C492.01 140.547 492.675 140.654 493.3 140.49L525.819 132C526.953 131.706 527.686 130.603 527.52 129.438L523.735 103.001C523.644 102.375 523.301 101.813 522.787 101.446C522.273 101.08 521.632 100.941 521.014 101.062L487.493 107.551C486.266 107.786 485.45 108.963 485.657 110.201V110.201Z" stroke="#190000" stroke-width="1.26547" stroke-linecap="round" stroke-linejoin="round"/>
<path d="M499.132 66.81C509.195 67.8539 514.098 64.4614 514.098 64.4614C505.583 58.7203 514.614 54.2841 509.195 49.0649C503.777 43.8458 508.338 35.8576 499.132 34.5818L497.971 38.2352C501.196 48.1516 495.907 58.9161 495.907 58.9161L499.132 66.81Z" fill="#4B4D5C" stroke="#190000" stroke-width="1.26547" stroke-linecap="round" stroke-linejoin="round"/>
<path d="M487.998 70.1736L490.112 54.3552L500.961 56.2378C501.122 59.66 501.559 64.9355 502.234 69.0751" fill="#FACCC4"/>
<mask id="mask16_180_114" style="mask-type:luminance" maskUnits="userSpaceOnUse" x="487" y="54" width="15" height="17">
<path fill-rule="evenodd" clip-rule="evenodd" d="M487.298 70.0332L489.46 54.4314L500.557 56.2882C500.721 59.6635 501.168 64.8668 501.858 68.9497" fill="white"/>
</mask>
<g mask="url(#mask16_180_114)">
<path d="M487.437 59.9458C494.276 68.2606 500.218 64.8149 501.858 68.949C503.499 73.0832 501.858 56.2875 501.858 56.2875L496.869 55.6279L488.371 58.5678" fill="#ED707B"/>
</g>
<path d="M487.998 70.1736L490.112 54.3552L500.961 56.2378C501.122 59.66 501.559 64.9355 502.234 69.0751" stroke="#190000" stroke-width="1.26547" stroke-linecap="round" stroke-linejoin="round"/>
<path d="M502.931 48.7447C507 45.8806 507.781 52.2771 502.234 55.9368L502.931 48.7447Z" fill="#FACCC4"/>
<path d="M502.931 48.7447C507 45.8806 507.781 52.2771 502.234 55.9368" stroke="#190000" stroke-width="1.26547" stroke-linecap="round" stroke-linejoin="round"/>
<path d="M498.184 38.5361C498.184 38.5361 489.211 38.6629 492.799 47.0189C495.375 53.0148 491.616 57.2507 492.032 61.7846C492.726 62.1858 493.545 62.3593 494.53 62.2116C503.151 60.9197 504.048 53.7419 503.775 45.4331C498.26 44.2281 498.184 38.5361 498.184 38.5361Z" fill="#FACCC4"/>
<mask id="mask17_180_114" style="mask-type:luminance" maskUnits="userSpaceOnUse" x="491" y="38" width="14" height="25">
<path fill-rule="evenodd" clip-rule="evenodd" d="M498.351 38.5435C498.351 38.5435 489.144 38.6701 492.826 47.0173C495.469 53.0068 491.612 57.2383 492.039 61.7674C492.751 62.1682 493.592 62.3415 494.602 62.1939C503.448 60.9035 504.369 53.7332 504.089 45.4332C498.429 44.2294 498.351 38.5435 498.351 38.5435Z" fill="white"/>
</mask>
<g mask="url(#mask17_180_114)">
<path d="M489.923 46.3163C489.924 46.2802 489.954 46.2519 489.99 46.2528L492.112 46.3097C492.148 46.3106 492.177 46.3408 492.176 46.3769L492.064 50.2418C492.063 50.2778 492.033 50.3062 491.997 50.3052L489.874 50.2484C489.838 50.2474 489.81 50.2173 489.811 50.1811L489.923 46.3163Z" fill="#190000"/>
<path d="M490.844 43.7207C488.526 44.3039 489.125 45.5256 490.598 45.252C492.072 44.9783 492.358 43.3398 490.844 43.7207Z" fill="#190000"/>
</g>
<path fill-rule="evenodd" clip-rule="evenodd" d="M498.184 38.5361C498.184 38.5361 489.211 38.6629 492.799 47.0189C495.375 53.0148 491.616 57.2507 492.032 61.7846C492.726 62.1858 493.545 62.3593 494.53 62.2116C503.151 60.9197 504.048 53.7419 503.775 45.4331C498.26 44.2281 498.184 38.5361 498.184 38.5361Z" stroke="#190000" stroke-width="1.26547" stroke-linecap="round" stroke-linejoin="round"/>
<path d="M498.232 36.0209L498.665 34.6993C494.1 30.7282 483.796 33.8027 482.623 43.0256C481.449 52.249 472.972 48.662 475.971 54.9389C478.97 61.2159 472.179 64.3071 472.179 64.3071C472.179 64.3071 488.361 69.03 494.361 67.4928C492.224 65.4667 491.399 63.6142 491.232 61.8085C490.808 57.2212 494.633 52.9353 492.013 46.8687C488.361 38.4142 497.491 38.2859 497.491 38.2859C497.491 38.2859 497.568 44.045 503.18 45.2642C503.39 45.3098 503.59 45.3633 503.816 45.3955" fill="#4B4D5C"/>
<path d="M498.232 36.0209L498.665 34.6993C494.1 30.7282 483.796 33.8027 482.623 43.0256C481.449 52.249 472.972 48.662 475.971 54.9389C478.97 61.2159 472.179 64.3071 472.179 64.3071C472.179 64.3071 488.361 69.03 494.361 67.4928C492.224 65.4667 491.399 63.6142 491.232 61.8085C490.808 57.2212 494.633 52.9353 492.013 46.8687C488.361 38.4142 497.491 38.2859 497.491 38.2859C497.491 38.2859 497.568 44.045 503.18 45.2642C503.39 45.3098 503.59 45.3633 503.816 45.3955" stroke="#190000" stroke-width="1.26547" stroke-linecap="round" stroke-linejoin="round"/>
<path d="M484.834 51.9824C483.994 52.4593 483.514 53.3006 483.344 54.1503C483.173 55 483.275 55.8703 483.377 56.7279" stroke="#190000" stroke-width="1.26547" stroke-linecap="round" stroke-linejoin="round"/>
<path d="M509.734 126.328C507.306 127.51 506.563 127.054 503.096 133.703C503.096 133.703 503.839 135.479 506.415 133.348C506.415 133.348 503.542 137.207 503.096 137.664C502.65 138.121 504.37 140.329 506.662 137.763C506.662 137.763 507.792 140.028 510.269 137.997C510.269 137.997 513.081 139.209 514.171 136.903C515.261 134.597 516.471 130.759 516.471 130.759L510.13 126.597" fill="#FACCC4"/>
<mask id="mask18_180_114" style="mask-type:luminance" maskUnits="userSpaceOnUse" x="503" y="127" width="15" height="13">
<path fill-rule="evenodd" clip-rule="evenodd" d="M510.061 127.119C507.538 128.272 506.766 127.826 503.162 134.308C503.162 134.308 503.934 136.04 506.611 133.962C506.611 133.962 503.625 137.725 503.162 138.17C502.698 138.616 504.486 140.769 506.869 138.267C506.869 138.267 508.043 140.474 510.618 138.495C510.618 138.495 513.54 139.676 514.673 137.428C515.806 135.18 517.063 131.438 517.063 131.438L510.473 127.381" fill="white"/>
</mask>
<g mask="url(#mask18_180_114)">
<path d="M512.249 125.174C508.375 126.819 509.236 127.977 509.236 127.977C509.236 127.977 508.892 130.028 516.036 137.151C523.18 144.274 515.864 128.142 515.864 128.142" fill="#ED707B"/>
</g>
<path d="M509.734 126.328C507.306 127.51 506.563 127.054 503.096 133.703C503.096 133.703 503.839 135.479 506.415 133.348C506.415 133.348 503.542 137.207 503.096 137.664C502.65 138.121 504.37 140.329 506.662 137.763C506.662 137.763 507.792 140.028 510.269 137.997C510.269 137.997 513.081 139.209 514.171 136.903C515.261 134.597 516.471 130.759 516.471 130.759L510.13 126.597" stroke="#190000" stroke-width="1.26547" stroke-linecap="round" stroke-linejoin="round"/>
<path d="M515.888 80.3596C516.75 91.0676 518.444 103.977 518.631 105.104C518.932 106.914 508.562 125.437 508.562 125.437C509.914 131.049 516.545 135.82 516.545 135.82C516.545 135.82 532.609 111.138 533.059 104.802C533.51 98.4667 526.519 63.2642 514.796 67.337" fill="#FBD164"/>
<mask id="mask19_180_114" style="mask-type:luminance" maskUnits="userSpaceOnUse" x="508" y="66" width="25" height="70">
<path fill-rule="evenodd" clip-rule="evenodd" d="M515.826 79.7024C516.679 90.4369 518.355 103.378 518.54 104.508C518.838 106.322 508.577 124.891 508.577 124.891C509.915 130.517 516.476 135.3 516.476 135.3C516.476 135.3 532.37 110.556 532.817 104.205C533.263 97.8542 526.345 62.5647 514.746 66.6476" fill="white"/>
</mask>
<g mask="url(#mask19_180_114)">
<path d="M525.931 134.861C516.499 134.697 529.289 124.266 520.036 120.044L518.131 120.921C528.322 123.185 514.009 135.845 525.545 135.551L525.931 134.861Z" fill="#409159" stroke="#190000" stroke-width="1.26547" stroke-linecap="round" stroke-linejoin="round"/>
<path d="M525.171 136.026C517.869 127.02 528.507 122.586 526.527 135.147L525.171 136.026Z" fill="#F08059"/>
<path d="M525.171 136.026C517.869 127.02 528.507 122.586 526.527 135.147" stroke="#190000" stroke-width="1.26547" stroke-linecap="round" stroke-linejoin="round"/>
<path d="M525.269 137.117C515.569 147.517 513.853 136.141 524.767 135.735L525.269 137.117Z" fill="#F08059"/>
<path d="M525.269 137.117C515.569 147.517 513.853 136.141 524.767 135.735" stroke="#190000" stroke-width="1.26547" stroke-linecap="round" stroke-linejoin="round"/>
<path d="M526.176 135.678C535.877 125.279 537.592 136.655 526.678 137.061L526.176 135.678Z" fill="#F08059"/>
<path d="M526.176 135.678C535.877 125.279 537.592 136.655 526.678 137.061" stroke="#190000" stroke-width="1.26547" stroke-linecap="round" stroke-linejoin="round"/>
<path d="M525.653 135.627C527.349 121.905 536.085 126.813 526.967 135.983L525.653 135.627Z" fill="#F08059"/>
<path d="M525.653 135.627C527.349 121.905 536.085 126.813 526.967 135.983" stroke="#190000" stroke-width="1.26547" stroke-linecap="round" stroke-linejoin="round"/>
<path d="M525.011 136.644C512.989 137.629 519.298 126.449 525.615 135.044L525.011 136.644Z" fill="#F08059"/>
<path d="M525.011 136.644C512.989 137.629 519.298 126.449 525.615 135.044" stroke="#190000" stroke-width="1.26547" stroke-linecap="round" stroke-linejoin="round"/>
<path d="M526.433 136.151C538.456 135.166 532.147 146.346 525.829 137.75L526.433 136.151Z" fill="#F08059"/>
<path d="M526.433 136.151C538.456 135.166 532.147 146.346 525.829 137.75" stroke="#190000" stroke-width="1.26547" stroke-linecap="round" stroke-linejoin="round"/>
<ellipse cx="525.652" cy="136.43" rx="4.03545" ry="3.15143" transform="rotate(-58.6409 525.652 136.43)" fill="white" stroke="#190000" stroke-width="1.26547" stroke-linecap="round" stroke-linejoin="round"/>
<path d="M520.784 125.928C515.308 125.141 514.808 131.677 514.808 131.677C514.808 131.677 521.913 130.62 520.784 125.928Z" fill="#409159" stroke="#190000" stroke-width="1.26547" stroke-linecap="round" stroke-linejoin="round"/>
<ellipse cx="533.273" cy="103.825" rx="5.70409" ry="8.4778" fill="#D3575E" stroke="#190000" stroke-width="1.26547" stroke-linecap="round" stroke-linejoin="round"/>
</g>
<path d="M515.888 80.3596C516.75 91.0676 518.444 103.977 518.631 105.104C518.932 106.914 508.562 125.437 508.562 125.437C509.914 131.049 516.545 135.82 516.545 135.82C516.545 135.82 532.609 111.138 533.059 104.802C533.51 98.4667 526.519 63.2642 514.796 67.337" stroke="#190000" stroke-width="1.26547" stroke-linecap="round" stroke-linejoin="round"/>
<path d="M480.085 70.9641C469.112 72.2104 469.145 86.5164 470.319 113.171C470.319 113.171 468.849 120.47 479.582 124.747C483.502 124.747 482.282 112.46 482.282 112.46C482.282 112.46 481.58 107.008 481.124 106.553C480.766 106.196 481.796 93.9619 482.253 88.738" fill="#FBD164"/>
<mask id="mask20_180_114" style="mask-type:luminance" maskUnits="userSpaceOnUse" x="469" y="71" width="14" height="55">
<path fill-rule="evenodd" clip-rule="evenodd" d="M480.363 71.0662C469.101 72.3234 469.135 86.7547 470.339 113.642C470.339 113.642 468.831 121.006 479.847 125.32C483.869 125.32 482.617 112.925 482.617 112.925C482.617 112.925 481.897 107.425 481.429 106.967C481.061 106.607 482.119 94.2653 482.588 88.9956" fill="white"/>
</mask>
<g mask="url(#mask20_180_114)">
<path d="M462.85 73.3967C475.725 71.7246 460.341 88.4695 473.763 92.3469L476.186 90.772C461.868 89.7438 478.894 69.6651 463.241 72.3819L462.85 73.3967Z" fill="#409159" stroke="#190000" stroke-width="1.26547" stroke-linecap="round" stroke-linejoin="round"/>
<path d="M463.658 71.6609C475.356 82.4317 461.733 90.5951 461.983 73.1276L463.658 71.6609Z" fill="#F08059"/>
<path d="M463.658 71.6609C475.356 82.4317 461.733 90.5951 461.983 73.1276" stroke="#190000" stroke-width="1.26547" stroke-linecap="round" stroke-linejoin="round"/>
<path d="M463.312 70.1985C474.496 54.1185 479.048 69.2316 464.265 71.9765L463.312 70.1985Z" fill="#F08059"/>
<path d="M463.312 70.1985C474.496 54.1185 479.048 69.2316 464.265 71.9765" stroke="#190000" stroke-width="1.26547" stroke-linecap="round" stroke-linejoin="round"/>
<path d="M462.59 70.2337C462.227 51.2473 475.079 56.1615 464.448 70.4538L462.59 70.2337Z" fill="#F08059"/>
<path d="M462.59 70.2337C462.227 51.2473 475.079 56.1615 464.448 70.4538" stroke="#190000" stroke-width="1.26547" stroke-linecap="round" stroke-linejoin="round"/>
<path d="M463.755 70.7897C479.934 67.0356 473.52 83.4945 463.244 73.0841L463.755 70.7897Z" fill="#F08059"/>
<path d="M463.755 70.7897C479.934 67.0356 473.52 83.4945 463.244 73.0841" stroke="#190000" stroke-width="1.26547" stroke-linecap="round" stroke-linejoin="round"/>
<ellipse cx="462.924" cy="71.2093" rx="5.55374" ry="4.32646" transform="rotate(-66.9144 462.924 71.2093)" fill="white" stroke="#190000" stroke-width="1.26547" stroke-linecap="round" stroke-linejoin="round"/>
<path d="M471.598 84.5006C479.208 84.4696 478.616 75.4885 478.616 75.4885C478.616 75.4885 469.147 78.3525 471.598 84.5006Z" fill="#409159" stroke="#190000" stroke-width="1.26547" stroke-linecap="round" stroke-linejoin="round"/>
</g>
<path d="M480.085 70.9641C469.112 72.2104 469.145 86.5164 470.319 113.171C470.319 113.171 468.849 120.47 479.582 124.747C483.502 124.747 482.282 112.46 482.282 112.46C482.282 112.46 481.58 107.008 481.124 106.553C480.766 106.196 481.796 93.9619 482.253 88.738" stroke="#190000" stroke-width="1.26547" stroke-linecap="round" stroke-linejoin="round"/>
<path d="M495.669 117.283C495.669 117.283 495.948 117.15 495.902 116.392C494.115 115.365 490.904 115.342 488.819 115.459C490.421 114.487 491.961 113.08 490.571 112.914C488.894 112.713 486.659 113.516 480.723 114.786C479.605 115.589 477.648 120 477.718 122.14C477.718 122.14 486.45 124.083 487.847 123.949C488.811 123.857 490.127 123.103 490.859 122.64C490.859 122.639 490.861 122.64 490.862 122.64C490.87 122.635 490.893 122.619 490.91 122.607C491.209 122.417 491.409 122.277 491.409 122.277C491.409 122.277 491.399 122.268 491.398 122.266C492.569 121.437 495.245 119.504 495.506 119.201C495.832 118.822 495.739 118.153 495.739 118.153C495.878 117.729 495.669 117.283 495.669 117.283Z" fill="#FACCC4"/>
<mask id="mask21_180_114" style="mask-type:luminance" maskUnits="userSpaceOnUse" x="477" y="112" width="19" height="13">
<path fill-rule="evenodd" clip-rule="evenodd" d="M495.657 117.567C495.657 117.567 495.936 117.426 495.889 116.631C494.108 115.554 490.908 115.53 488.829 115.652C490.426 114.633 491.96 113.157 490.575 112.982C488.904 112.772 486.676 113.614 480.758 114.947C479.645 115.789 477.693 120.417 477.763 122.662C477.763 122.662 486.467 124.701 487.86 124.56C488.821 124.464 490.133 123.672 490.862 123.186C490.862 123.186 490.864 123.187 490.865 123.186C490.873 123.181 490.896 123.164 490.913 123.152C491.211 122.952 491.41 122.806 491.41 122.806C491.41 122.806 491.401 122.796 491.399 122.795C492.567 121.925 495.234 119.897 495.495 119.578C495.819 119.181 495.727 118.479 495.727 118.479C495.866 118.035 495.657 117.567 495.657 117.567Z" fill="white"/>
</mask>
<g mask="url(#mask21_180_114)">
<path d="M480.416 114.678C483.19 112.814 479.801 119.902 482.189 124.282C484.577 128.661 472.092 120.737 472.092 120.737" fill="#ED707B"/>
</g>
<path fill-rule="evenodd" clip-rule="evenodd" d="M495.669 117.283C495.669 117.283 495.948 117.15 495.902 116.392C494.115 115.365 490.904 115.342 488.819 115.459C490.421 114.487 491.961 113.08 490.571 112.914C488.894 112.713 486.659 113.516 480.723 114.786C479.605 115.589 477.648 120 477.718 122.14C477.718 122.14 486.45 124.083 487.847 123.949C488.811 123.857 490.127 123.103 490.859 122.64C490.859 122.639 490.861 122.64 490.862 122.64C490.87 122.635 490.893 122.619 490.91 122.607C491.209 122.417 491.409 122.277 491.409 122.277C491.409 122.277 491.399 122.268 491.398 122.266C492.569 121.437 495.245 119.504 495.506 119.201C495.832 118.822 495.739 118.153 495.739 118.153C495.878 117.729 495.669 117.283 495.669 117.283Z" stroke="#190000" stroke-width="1.26547" stroke-linecap="round" stroke-linejoin="round"/>
<path d="M484.664 256.04C482.841 260.872 485.611 263.543 485.611 263.543C485.611 263.543 493.731 268.375 506.189 262.971C506.189 262.971 506.189 260.109 506.009 256.295C487.387 262.271 484.664 256.04 484.664 256.04Z" fill="#399FE8" stroke="#190000" stroke-width="1.26547" stroke-linecap="round" stroke-linejoin="round"/>
<path d="M541.331 251.294C543.915 255.638 541.658 258.662 541.658 258.662C541.658 258.662 535.214 264.587 522.154 261.451C522.154 261.451 521.677 258.701 521.216 255.005C540.387 257.673 541.331 251.294 541.331 251.294Z" fill="#399FE8" stroke="#190000" stroke-width="1.26547" stroke-linecap="round" stroke-linejoin="round"/>
<path d="M485.19 271.067L487.207 272.763C484.84 273.036 482.467 273.261 480.088 273.44" stroke="#190000" stroke-width="1.26547" stroke-linecap="round" stroke-linejoin="round"/>
<path d="M545.496 267.904L542.571 271.067C544.686 270.697 546.795 270.296 548.898 269.864" stroke="#190000" stroke-width="1.26547" stroke-linecap="round" stroke-linejoin="round"/>
<path d="M512.516 196.721C514.494 197.617 516.759 197.757 518.843 197.113" stroke="#190000" stroke-width="1.26547" stroke-linecap="round" stroke-linejoin="round"/>
<path d="M503.025 196.721C500.744 197.464 498.354 197.995 495.907 198.303" stroke="#190000" stroke-width="1.26547" stroke-linecap="round" stroke-linejoin="round"/>
<path d="M518.844 104.183C519.262 104.977 519.815 105.53 520.425 105.764" stroke="#190000" stroke-width="1.26547" stroke-linecap="round" stroke-linejoin="round"/>
<path d="M492.743 241.012C493.013 241.852 493.614 242.452 494.325 242.594" stroke="#190000" stroke-width="1.26547" stroke-linecap="round" stroke-linejoin="round"/>
</g>
<defs>
<clipPath id="clip0_180_114">
<rect width="662" height="275" rx="11.126" fill="white"/>
</clipPath>
</defs>
</svg>
