<svg xmlns="http://www.w3.org/2000/svg" width="413.25" height="77.634" viewBox="0 0 413.25 77.634"><g transform="translate(-407.25 -876.991)"><path d="M5.25,0V-34.125a20.069,20.069,0,0,1,3.713-1.838,44.32,44.32,0,0,1,6.188-1.95,29.874,29.874,0,0,1,7.125-.862,18.052,18.052,0,0,1,4.313.413,9.453,9.453,0,0,1,2.588,1.012v7.2q-1.5-.225-3.413-.375t-3.9-.113q-1.988.038-3.825.188t-3.263.375V0ZM50.775,1.125A29.451,29.451,0,0,1,44.7.525,15.351,15.351,0,0,1,39.6-1.5a10.207,10.207,0,0,1-3.563-3.863A12.612,12.612,0,0,1,34.725-11.4,12.692,12.692,0,0,1,36.3-17.963a10.033,10.033,0,0,1,4.613-4.05A17.916,17.916,0,0,1,48.375-23.4a24.481,24.481,0,0,1,5.025.487,19.707,19.707,0,0,1,4.2,1.35,14.468,14.468,0,0,1,3.075,1.838L61.35-14.4a13.277,13.277,0,0,0-4.012-1.688,20.851,20.851,0,0,0-5.287-.637,10.98,10.98,0,0,0-5.925,1.275,4.41,4.41,0,0,0-1.95,3.975A4.681,4.681,0,0,0,45.225-8.4a6.136,6.136,0,0,0,2.7,1.875,10.017,10.017,0,0,0,3.45.6,22.45,22.45,0,0,0,5.963-.562,2.346,2.346,0,0,0,1.838-2.437v-14.85q0-3.675-2.325-5.363a10.952,10.952,0,0,0-6.525-1.687,21.452,21.452,0,0,0-6.6,1.087,16.545,16.545,0,0,0-5.475,2.813V-35.55a18.955,18.955,0,0,1,6.075-2.287,38.517,38.517,0,0,1,8.7-.937,26.946,26.946,0,0,1,4.125.337,18.688,18.688,0,0,1,4.2,1.163,12.361,12.361,0,0,1,3.675,2.325,10.855,10.855,0,0,1,2.625,3.712,13.26,13.26,0,0,1,.975,5.363L68.55-7.95a6.939,6.939,0,0,1-2.213,5.438A13.092,13.092,0,0,1,60.113.3,46.788,46.788,0,0,1,50.775,1.125ZM96.6.825A23.807,23.807,0,0,1,89.4-.263a17.593,17.593,0,0,1-6.15-3.375,15.768,15.768,0,0,1-4.275-6A22.688,22.688,0,0,1,77.4-18.525a25.529,25.529,0,0,1,1.5-9.3,16.7,16.7,0,0,1,4.125-6.263,16.154,16.154,0,0,1,6.113-3.562,23.917,23.917,0,0,1,7.387-1.125,32.625,32.625,0,0,1,6.188.6,26.356,26.356,0,0,1,5.662,1.725v8.325a42.49,42.49,0,0,0-5.137-1.837,19.013,19.013,0,0,0-5.212-.712q-5.325,0-8.25,2.625T86.85-19.5q0,6.225,2.7,9.188T98.4-7.35a17.546,17.546,0,0,0,5.363-.825,32.686,32.686,0,0,0,4.688-1.875V-1.8A26.44,26.44,0,0,1,102.975.15,27.713,27.713,0,0,1,96.6.825ZM117.15,0V-53.25h9.6v21.975l-3.525-2.25a25.252,25.252,0,0,1,6.75-3.788,21.288,21.288,0,0,1,7.65-1.462,17.487,17.487,0,0,1,7.425,1.462,10.642,10.642,0,0,1,4.912,4.65,17.6,17.6,0,0,1,1.762,8.513V0H142.2V-22.5q0-4.125-1.988-6.188t-5.887-2.062a14.194,14.194,0,0,0-4.05.6,15.262,15.262,0,0,0-3.525,1.5L126.6,0ZM176.7,1.125a29.451,29.451,0,0,1-6.075-.6,15.351,15.351,0,0,1-5.1-2.025,10.207,10.207,0,0,1-3.562-3.863A12.612,12.612,0,0,1,160.65-11.4a12.692,12.692,0,0,1,1.575-6.563,10.033,10.033,0,0,1,4.613-4.05A17.916,17.916,0,0,1,174.3-23.4a24.481,24.481,0,0,1,5.025.487,19.707,19.707,0,0,1,4.2,1.35,14.468,14.468,0,0,1,3.075,1.838l.675,5.325a13.277,13.277,0,0,0-4.012-1.688,20.851,20.851,0,0,0-5.288-.637,10.98,10.98,0,0,0-5.925,1.275,4.41,4.41,0,0,0-1.95,3.975A4.681,4.681,0,0,0,171.15-8.4a6.136,6.136,0,0,0,2.7,1.875,10.017,10.017,0,0,0,3.45.6,22.45,22.45,0,0,0,5.962-.562A2.346,2.346,0,0,0,185.1-8.925v-14.85q0-3.675-2.325-5.363a10.952,10.952,0,0,0-6.525-1.687,21.452,21.452,0,0,0-6.6,1.087,16.545,16.545,0,0,0-5.475,2.813V-35.55a18.955,18.955,0,0,1,6.075-2.287,38.517,38.517,0,0,1,8.7-.937,26.946,26.946,0,0,1,4.125.337,18.688,18.688,0,0,1,4.2,1.163,12.362,12.362,0,0,1,3.675,2.325,10.855,10.855,0,0,1,2.625,3.712,13.26,13.26,0,0,1,.975,5.363L194.475-7.95a6.939,6.939,0,0,1-2.212,5.438A13.092,13.092,0,0,1,186.038.3,46.788,46.788,0,0,1,176.7,1.125Zm33.675,13.5a14.825,14.825,0,0,1-3.187-.338,17.1,17.1,0,0,1-2.663-.787V5.55a18.206,18.206,0,0,0,2.025.6,9.326,9.326,0,0,0,2.1.225,5.821,5.821,0,0,0,3.488-1.05,7.777,7.777,0,0,0,2.438-3.188,23.337,23.337,0,0,0,1.575-5.513L216.3,1.8,200.175-37.8H211.05L220.8-9.675h-1.125l9.6-28.125H239.4L224.175,1.425a30.711,30.711,0,0,1-4.238,7.913,14.444,14.444,0,0,1-4.687,4.087A10.8,10.8,0,0,1,210.375,14.625ZM325.35,1.2q-5.85,0-8.925-2.888T313.35-10.05V-30.3H307.5v-7.5h5.85V-48.3h9.9v10.5h8.7v7.5h-8.7v18.75a5.5,5.5,0,0,0,.862,3.375,3.709,3.709,0,0,0,3.113,1.125,9.142,9.142,0,0,0,2.512-.375A7.872,7.872,0,0,0,331.95-8.4V-.15A10.625,10.625,0,0,1,328.762.9,20.331,20.331,0,0,1,325.35,1.2ZM341.1,0V-53.25h9.6v21.975l-3.525-2.25a25.252,25.252,0,0,1,6.75-3.788,21.288,21.288,0,0,1,7.65-1.462A17.486,17.486,0,0,1,369-37.313a10.642,10.642,0,0,1,4.913,4.65,17.6,17.6,0,0,1,1.763,8.513V0H366.15V-22.5q0-4.125-1.987-6.188t-5.888-2.062a14.194,14.194,0,0,0-4.05.6,15.262,15.262,0,0,0-3.525,1.5L350.55,0Zm59.55,1.125a29.451,29.451,0,0,1-6.075-.6,15.351,15.351,0,0,1-5.1-2.025,10.207,10.207,0,0,1-3.562-3.863A12.612,12.612,0,0,1,384.6-11.4a12.692,12.692,0,0,1,1.575-6.563,10.033,10.033,0,0,1,4.612-4.05A17.916,17.916,0,0,1,398.25-23.4a24.48,24.48,0,0,1,5.025.487,19.707,19.707,0,0,1,4.2,1.35,14.469,14.469,0,0,1,3.075,1.838l.675,5.325a13.277,13.277,0,0,0-4.013-1.688,20.851,20.851,0,0,0-5.287-.637A10.98,10.98,0,0,0,396-15.45a4.411,4.411,0,0,0-1.95,3.975A4.681,4.681,0,0,0,395.1-8.4a6.136,6.136,0,0,0,2.7,1.875,10.017,10.017,0,0,0,3.45.6,22.45,22.45,0,0,0,5.962-.562,2.346,2.346,0,0,0,1.838-2.437v-14.85q0-3.675-2.325-5.363a10.952,10.952,0,0,0-6.525-1.687,21.452,21.452,0,0,0-6.6,1.087,16.545,16.545,0,0,0-5.475,2.813V-35.55a18.955,18.955,0,0,1,6.075-2.287,38.517,38.517,0,0,1,8.7-.937,26.946,26.946,0,0,1,4.125.337,18.688,18.688,0,0,1,4.2,1.163A12.361,12.361,0,0,1,414.9-34.95a10.855,10.855,0,0,1,2.625,3.712,13.26,13.26,0,0,1,.975,5.363L418.425-7.95a6.939,6.939,0,0,1-2.213,5.438A13.092,13.092,0,0,1,409.987.3,46.788,46.788,0,0,1,400.65,1.125Z" transform="translate(402 940)" fill="#2f2d5c"/><g transform="translate(0 182.241)"><path d="M139.964-859.642a46.1,46.1,0,0,0-9.724-5.367,41.574,41.574,0,0,0-10.5-2.714,5.49,5.49,0,0,1-3.4-1.734,4.748,4.748,0,0,1-1.367-3.328V-897.12a4.646,4.646,0,0,1,1.533-3.592,4.014,4.014,0,0,1,3.5-1.084,38.783,38.783,0,0,1,12.281,4.116,53.833,53.833,0,0,1,11.473,8.2,53.833,53.833,0,0,1,11.473-8.2,38.785,38.785,0,0,1,12.3-4.116,3.983,3.983,0,0,1,3.478,1.089,4.65,4.65,0,0,1,1.533,3.587v24.33a4.749,4.749,0,0,1-1.367,3.337,5.5,5.5,0,0,1-3.4,1.73,41.574,41.574,0,0,0-10.5,2.714,46.1,46.1,0,0,0-9.724,5.367,6.442,6.442,0,0,1-3.8,1.161A6.442,6.442,0,0,1,139.964-859.642Zm3.8-3.682a54.239,54.239,0,0,1,11.345-6.4,44.567,44.567,0,0,1,12.066-3.1v-23.426a32.423,32.423,0,0,0-11.212,4.156,64.94,64.94,0,0,0-12.2,9.341,72.449,72.449,0,0,0-12.415-9.466,31.231,31.231,0,0,0-10.977-4.032v23.426a43.953,43.953,0,0,1,12,3.08A54.659,54.659,0,0,1,143.761-863.324ZM143.761-879.806Z" transform="translate(531.022 1622.25)" fill="#2f2d5c"/><path d="M144-900.78a11.945,11.945,0,0,1-8.783-3.572,11.935,11.935,0,0,1-3.575-8.785,11.959,11.959,0,0,1,3.568-8.788,11.916,11.916,0,0,1,8.776-3.575,11.94,11.94,0,0,1,8.783,3.575,11.946,11.946,0,0,1,3.575,8.788,11.948,11.948,0,0,1-3.568,8.785A11.921,11.921,0,0,1,144-900.78Zm.013-5.165a6.9,6.9,0,0,0,5.083-2.115,6.959,6.959,0,0,0,2.1-5.09,6.9,6.9,0,0,0-2.122-5.08,6.984,6.984,0,0,0-5.1-2.106,6.9,6.9,0,0,0-5.083,2.118,6.97,6.97,0,0,0-2.1,5.093,6.886,6.886,0,0,0,2.122,5.077A6.99,6.99,0,0,0,144.017-905.944ZM143.919-913.288Z" transform="translate(530.785 1620.25)" fill="#5122c0"/></g></g></svg>