<svg xmlns="http://www.w3.org/2000/svg" width="407.325" height="77.559" viewBox="0 0 407.325 77.559"><g transform="translate(-407.55 -694.991)"><path d="M5.55,0V-34.2a26.925,26.925,0,0,1,3.6-1.65,39.8,39.8,0,0,1,6.225-1.837,33.946,33.946,0,0,1,7.275-.788,13.012,13.012,0,0,1,3.075.3,11.958,11.958,0,0,1,2.025.675v6.3q-1.725-.225-3.6-.337a31.279,31.279,0,0,0-3.75,0q-1.875.113-3.675.337t-3.3.45V0ZM49.425,1.125A27.517,27.517,0,0,1,43.8.563,15.368,15.368,0,0,1,38.888-1.35a9.876,9.876,0,0,1-3.525-3.712A12,12,0,0,1,34.05-10.95a13.055,13.055,0,0,1,1.65-6.9,10.16,10.16,0,0,1,4.725-4.05,18.2,18.2,0,0,1,7.35-1.35,26.732,26.732,0,0,1,5.137.45,20.517,20.517,0,0,1,4.125,1.237A14.539,14.539,0,0,1,60.15-19.8l.825,5.175a15.329,15.329,0,0,0-4.425-1.912,21.9,21.9,0,0,0-6-.788q-4.275,0-6.488,1.5a5.074,5.074,0,0,0-2.213,4.5,5.165,5.165,0,0,0,1.275,3.638,7.434,7.434,0,0,0,3.188,2.025,12.6,12.6,0,0,0,4.013.638,25.811,25.811,0,0,0,6.525-.6A2.635,2.635,0,0,0,58.95-8.4V-24.15q0-3.975-2.4-5.812T49.725-31.8A22.67,22.67,0,0,0,43.2-30.788a15.654,15.654,0,0,0-5.55,2.813v-7.35a17.679,17.679,0,0,1,6.112-2.287,39.329,39.329,0,0,1,8.288-.863,22.322,22.322,0,0,1,4.237.412A17.5,17.5,0,0,1,60.3-36.788a11.452,11.452,0,0,1,3.338,2.325A10.279,10.279,0,0,1,65.925-30.9a13.507,13.507,0,0,1,.825,4.95v18a7.1,7.1,0,0,1-2.287,5.663,12.73,12.73,0,0,1-6.187,2.7A49.558,49.558,0,0,1,49.425,1.125ZM94.725.75a23.7,23.7,0,0,1-6.75-.975,16.6,16.6,0,0,1-5.963-3.188,15.3,15.3,0,0,1-4.237-5.925A23.8,23.8,0,0,1,76.2-18.6a26.254,26.254,0,0,1,1.5-9.525,15.364,15.364,0,0,1,4.125-6.113A15.653,15.653,0,0,1,87.787-37.5a24.348,24.348,0,0,1,6.862-.975,32.492,32.492,0,0,1,6,.563,25.218,25.218,0,0,1,5.55,1.688v7.05a31.647,31.647,0,0,0-5.1-1.762,21.877,21.877,0,0,0-5.325-.638q-5.85,0-8.812,2.925T84-19.2q0,6.75,2.813,9.863T96-6.225a20.523,20.523,0,0,0,5.4-.712A30.241,30.241,0,0,0,106.275-8.7v7.05A26.019,26.019,0,0,1,100.8.15,29.451,29.451,0,0,1,94.725.75ZM115.65,0V-53.55h7.875v21.525l-2.325-1.95a26.751,26.751,0,0,1,6.488-3.263,21.079,21.079,0,0,1,6.938-1.237,17.128,17.128,0,0,1,7.575,1.537,10.9,10.9,0,0,1,4.913,4.875,18.71,18.71,0,0,1,1.762,8.737V0H141V-22.35q0-4.575-2.175-6.975t-6.45-2.4a15.971,15.971,0,0,0-4.537.675,21.208,21.208,0,0,0-4.312,1.8L123.45,0Zm58.275,1.125A27.517,27.517,0,0,1,168.3.563a15.367,15.367,0,0,1-4.912-1.913,9.876,9.876,0,0,1-3.525-3.712,12,12,0,0,1-1.312-5.888,13.055,13.055,0,0,1,1.65-6.9,10.16,10.16,0,0,1,4.725-4.05,18.2,18.2,0,0,1,7.35-1.35,26.732,26.732,0,0,1,5.137.45,20.516,20.516,0,0,1,4.125,1.237A14.539,14.539,0,0,1,184.65-19.8l.825,5.175a15.329,15.329,0,0,0-4.425-1.912,21.9,21.9,0,0,0-6-.788q-4.275,0-6.488,1.5a5.074,5.074,0,0,0-2.212,4.5,5.165,5.165,0,0,0,1.275,3.638,7.434,7.434,0,0,0,3.188,2.025,12.6,12.6,0,0,0,4.013.638,25.811,25.811,0,0,0,6.525-.6,2.635,2.635,0,0,0,2.1-2.775V-24.15q0-3.975-2.4-5.812T174.225-31.8a22.67,22.67,0,0,0-6.525,1.012,15.654,15.654,0,0,0-5.55,2.813v-7.35a17.679,17.679,0,0,1,6.113-2.287,39.329,39.329,0,0,1,8.287-.863,22.322,22.322,0,0,1,4.238.412,17.5,17.5,0,0,1,4.012,1.275,11.452,11.452,0,0,1,3.338,2.325,10.279,10.279,0,0,1,2.287,3.563,13.506,13.506,0,0,1,.825,4.95v18a7.1,7.1,0,0,1-2.287,5.663,12.73,12.73,0,0,1-6.187,2.7A49.558,49.558,0,0,1,173.925,1.125ZM206.7,14.55a13.369,13.369,0,0,1-2.7-.262,14.371,14.371,0,0,1-2.25-.637V6.9q.9.3,1.8.525a8.026,8.026,0,0,0,1.95.225,5.813,5.813,0,0,0,3.75-1.2A9.415,9.415,0,0,0,211.8,3a25.431,25.431,0,0,0,1.725-5.4l.15,3.9-16.05-39.15h8.925l10.875,29.7H216.3l10.725-29.7H235.2L219.675,2.325a27.96,27.96,0,0,1-4.05,7.463,12.927,12.927,0,0,1-4.462,3.713A10.657,10.657,0,0,1,206.7,14.55ZM321.6.975a11.516,11.516,0,0,1-8.062-2.7q-2.963-2.7-2.962-7.95v-21.45H304.5V-37.65h6.075v-10.5h8.1v10.5h9.15v6.525h-9.15V-11.25a6.778,6.778,0,0,0,.938,3.937Q320.55-6,323.1-6a9.929,9.929,0,0,0,2.55-.338,8.767,8.767,0,0,0,2.175-.862V-.225a13.114,13.114,0,0,1-3.038.9A18.246,18.246,0,0,1,321.6.975ZM337.275,0V-53.55h7.875v21.525l-2.325-1.95a26.751,26.751,0,0,1,6.487-3.263,21.079,21.079,0,0,1,6.938-1.237,17.128,17.128,0,0,1,7.575,1.537,10.9,10.9,0,0,1,4.913,4.875,18.71,18.71,0,0,1,1.762,8.737V0h-7.875V-22.35q0-4.575-2.175-6.975t-6.45-2.4a15.971,15.971,0,0,0-4.538.675,21.208,21.208,0,0,0-4.312,1.8L345.075,0ZM395.55,1.125a27.516,27.516,0,0,1-5.625-.562,15.367,15.367,0,0,1-4.913-1.913,9.875,9.875,0,0,1-3.525-3.712,12,12,0,0,1-1.312-5.888,13.055,13.055,0,0,1,1.65-6.9,10.16,10.16,0,0,1,4.725-4.05,18.2,18.2,0,0,1,7.35-1.35,26.732,26.732,0,0,1,5.138.45,20.517,20.517,0,0,1,4.125,1.237,14.539,14.539,0,0,1,3.112,1.763l.825,5.175a15.329,15.329,0,0,0-4.425-1.912,21.9,21.9,0,0,0-6-.788q-4.275,0-6.488,1.5a5.074,5.074,0,0,0-2.212,4.5,5.165,5.165,0,0,0,1.275,3.638,7.434,7.434,0,0,0,3.188,2.025,12.6,12.6,0,0,0,4.013.638,25.811,25.811,0,0,0,6.525-.6,2.635,2.635,0,0,0,2.1-2.775V-24.15q0-3.975-2.4-5.812T395.85-31.8a22.67,22.67,0,0,0-6.525,1.012,15.654,15.654,0,0,0-5.55,2.813v-7.35a17.679,17.679,0,0,1,6.113-2.287,39.329,39.329,0,0,1,8.288-.863,22.322,22.322,0,0,1,4.237.412,17.5,17.5,0,0,1,4.013,1.275,11.452,11.452,0,0,1,3.337,2.325A10.279,10.279,0,0,1,412.05-30.9a13.507,13.507,0,0,1,.825,4.95v18a7.1,7.1,0,0,1-2.288,5.663A12.73,12.73,0,0,1,404.4.413,49.558,49.558,0,0,1,395.55,1.125Z" transform="translate(402 758)" fill="#2f2d5c"/><g transform="translate(-3 0.241)"><path d="M139.964-859.642a46.1,46.1,0,0,0-9.724-5.367,41.574,41.574,0,0,0-10.5-2.714,5.49,5.49,0,0,1-3.4-1.734,4.748,4.748,0,0,1-1.367-3.328V-897.12a4.646,4.646,0,0,1,1.533-3.592,4.014,4.014,0,0,1,3.5-1.084,38.783,38.783,0,0,1,12.281,4.116,53.833,53.833,0,0,1,11.473,8.2,53.833,53.833,0,0,1,11.473-8.2,38.785,38.785,0,0,1,12.3-4.116,3.983,3.983,0,0,1,3.478,1.089,4.65,4.65,0,0,1,1.533,3.587v24.33a4.749,4.749,0,0,1-1.367,3.337,5.5,5.5,0,0,1-3.4,1.73,41.574,41.574,0,0,0-10.5,2.714,46.1,46.1,0,0,0-9.724,5.367,6.442,6.442,0,0,1-3.8,1.161A6.442,6.442,0,0,1,139.964-859.642Zm3.8-3.682a54.239,54.239,0,0,1,11.345-6.4,44.567,44.567,0,0,1,12.066-3.1v-23.426a32.423,32.423,0,0,0-11.212,4.156,64.94,64.94,0,0,0-12.2,9.341,72.449,72.449,0,0,0-12.415-9.466,31.231,31.231,0,0,0-10.977-4.032v23.426a43.953,43.953,0,0,1,12,3.08A54.659,54.659,0,0,1,143.761-863.324ZM143.761-879.806Z" transform="translate(531.022 1622.25)" fill="#2f2d5c"/><path d="M144-900.78a11.945,11.945,0,0,1-8.783-3.572,11.935,11.935,0,0,1-3.575-8.785,11.959,11.959,0,0,1,3.568-8.788,11.916,11.916,0,0,1,8.776-3.575,11.94,11.94,0,0,1,8.783,3.575,11.946,11.946,0,0,1,3.575,8.788,11.948,11.948,0,0,1-3.568,8.785A11.921,11.921,0,0,1,144-900.78Zm.013-5.165a6.9,6.9,0,0,0,5.083-2.115,6.959,6.959,0,0,0,2.1-5.09,6.9,6.9,0,0,0-2.122-5.08,6.984,6.984,0,0,0-5.1-2.106,6.9,6.9,0,0,0-5.083,2.118,6.97,6.97,0,0,0-2.1,5.093,6.886,6.886,0,0,0,2.122,5.077A6.99,6.99,0,0,0,144.017-905.944ZM143.919-913.288Z" transform="translate(530.785 1620.25)" fill="#5122c0"/></g></g></svg>