<svg width="113" height="112" viewBox="0 0 113 112" fill="none" xmlns="http://www.w3.org/2000/svg">
<g clip-path="url(#clip0_44_191)">
<path d="M110.637 68.8982C117.808 38.8619 99.2709 8.69997 69.2346 1.52977C39.1982 -5.64042 9.03628 12.8963 1.86609 42.9327C-5.30411 72.9691 13.2326 103.131 43.269 110.301C73.3054 117.471 103.467 98.9346 110.637 68.8982Z" fill="#673CCB"/>
<path d="M56.2509 95.2209C77.3362 95.2209 94.4292 77.8245 94.4292 56.3649C94.4292 34.9052 77.3362 17.5088 56.2509 17.5088C35.1655 17.5088 18.0725 34.9052 18.0725 56.3649C18.0725 77.8245 35.1655 95.2209 56.2509 95.2209Z" fill="#673CCB"/>
<path opacity="0.2" d="M56.2509 95.2209C77.3362 95.2209 94.4292 77.8245 94.4292 56.3649C94.4292 34.9052 77.3362 17.5088 56.2509 17.5088C35.1655 17.5088 18.0725 34.9052 18.0725 56.3649C18.0725 77.8245 35.1655 95.2209 56.2509 95.2209Z" fill="black"/>
<path opacity="0.2" d="M21.6854 57.1594C21.6854 35.6982 38.7414 18.3033 59.8638 18.3033C62.2358 18.3033 64.4949 18.5292 66.641 18.981C63.2524 17.9644 59.7508 17.3997 56.0233 17.3997C34.901 17.3997 17.845 34.7945 17.845 56.2557C17.845 75.3449 31.3994 91.2714 49.2461 94.547C33.3196 89.803 21.6854 74.8931 21.6854 57.1594Z" fill="black"/>
<path opacity="0.2" d="M25.7503 79.7523C25.1855 80.2041 13.6642 92.1772 13.6642 92.1772L9.93677 87.3202L22.5876 74.8953L25.7503 79.7523Z" fill="white"/>
<path opacity="0.2" d="M49.1352 0.454834C48.2316 0.567788 47.3279 0.680741 46.4243 0.906649L37.7269 3.16572H37.6139L3.276 38.0684V38.1814L0.791016 49.4767C0.791016 49.4767 0.791016 49.4767 0.791016 49.5897C0.903969 49.3638 43.3746 5.4248 49.1352 0.454834Z" fill="white"/>
<path opacity="0.2" d="M110.808 68.343C101.997 76.9275 78.9547 100.874 70.1443 110.136C90.363 104.94 106.064 88.7876 110.808 68.343Z" fill="white"/>
<path opacity="0.2" d="M29.4787 84.041L16.489 95.2234C16.489 95.2234 27.7844 105.502 35.6911 107.987L48.9067 94.4328C48.9067 94.4328 48.9067 94.4328 48.7938 94.4328C41.4518 92.9644 34.6746 89.2369 29.4787 84.041Z" fill="white"/>
<path opacity="0.2" d="M93.8629 49.4791L107.869 34.3433C104.706 26.8884 100.075 20.3371 94.3147 14.9153L84.0359 29.5993C89.0059 35.021 92.5074 41.9112 93.8629 49.4791Z" fill="white"/>
<path d="M88.1901 23L90.2766 31.8676L99.2485 33.8498L90.3809 36.0406L88.3988 44.9082L86.2079 36.0406L77.3403 34.0584L86.2079 31.9719L88.1901 23Z" fill="#F0F0F0"/>
<path d="M32.3134 66L25.7354 48.658H28.9594L34.4974 63.998H33.5354L38.9954 48.684L42.0114 48.658L35.2774 66H32.3134ZM50.1953 66.286C48.4793 66.286 47.0146 65.9567 45.8013 65.298C44.6053 64.6393 43.6953 63.6513 43.0713 62.334C42.4473 61.0167 42.1353 59.3527 42.1353 57.342C42.1353 54.378 42.82 52.142 44.1893 50.634C45.576 49.126 47.578 48.372 50.1953 48.372C51.9286 48.372 53.3933 48.7013 54.5893 49.36C55.7853 50.0187 56.6953 51.0153 57.3193 52.35C57.9606 53.6673 58.2813 55.3313 58.2813 57.342C58.2813 60.2887 57.588 62.516 56.2013 64.024C54.832 65.532 52.83 66.286 50.1953 66.286ZM50.1953 63.816C51.3566 63.816 52.31 63.5993 53.0553 63.166C53.818 62.7153 54.3813 62.0133 54.7453 61.06C55.1266 60.1067 55.3173 58.8587 55.3173 57.316C55.3173 55.7907 55.1266 54.56 54.7453 53.624C54.3813 52.6707 53.818 51.9773 53.0553 51.544C52.31 51.0933 51.3566 50.868 50.1953 50.868C49.0513 50.868 48.098 51.0933 47.3353 51.544C46.5726 51.9947 46.0006 52.6967 45.6193 53.65C45.2553 54.586 45.0733 55.8167 45.0733 57.342C45.0733 58.8673 45.2553 60.1067 45.6193 61.06C46.0006 62.0133 46.5726 62.7153 47.3353 63.166C48.098 63.5993 49.0513 63.816 50.1953 63.816ZM64.4906 66V51.076H58.8746V48.658H72.9666V51.076H67.3506V66H64.4906ZM74.5262 66V48.658H85.8882V51.076H77.4122V56.094H84.7962V58.538H77.3862V63.582H85.8882V66H74.5262Z" fill="white"/>
</g>
<defs>
<clipPath id="clip0_44_191">
<rect width="111.824" height="111.824" fill="white" transform="translate(0.34082)"/>
</clipPath>
</defs>
</svg>
