<svg width="42" height="30" viewBox="0 0 42 30" fill="none" xmlns="http://www.w3.org/2000/svg">
    <path
        d="M41.3956 4.99195C40.9899 4.70464 40.4481 4.69879 40.0376 4.97434L33.1449 9.51597C32.8799 9.69304 32.6946 9.96858 32.6336 10.2817C32.5703 10.5936 32.636 10.9184 32.8142 11.1835C33.2106 11.7745 33.4194 12.464 33.4194 13.1781C33.4194 15.1646 31.8034 16.7805 29.817 16.7805C27.8306 16.7805 26.2146 15.1646 26.2146 13.1781C26.2146 12.0102 26.7915 10.909 27.7555 10.2312C28.2973 9.85131 28.4285 9.10313 28.0486 8.56022L22.3941 0.481937C21.9485 -0.160646 20.8744 -0.160646 20.4287 0.481937L14.7743 8.5603C14.3943 9.10322 14.5257 9.85139 15.0674 10.2313C16.0313 10.9091 16.6083 12.0102 16.6083 13.1782C16.6083 15.1646 14.9923 16.7806 13.0059 16.7806C11.0195 16.7806 9.40354 15.1646 9.40354 13.1782C9.40354 12.4641 9.61224 11.7746 10.0087 11.1835C10.1869 10.9185 10.2526 10.5937 10.1893 10.2818C10.1283 9.96867 9.94301 9.69304 9.67796 9.51605L2.78526 4.97442C2.37251 4.69887 1.83303 4.70472 1.42732 4.99203C1.02162 5.27814 0.833974 5.78359 0.953573 6.26438L6.18856 28.3294C6.33866 28.9345 6.92496 29.339 7.55113 29.223C17.7407 25.9112 26.5668 25.9112 35.9761 29.223C36.0417 29.2346 36.1098 29.2394 36.1731 29.2394C36.7149 29.2394 37.2027 28.8711 37.3388 28.3294L41.8694 6.26438C41.9889 5.78351 41.8013 5.27805 41.3956 4.99195Z"
        fill="url(#paint0_linear_0_1)" />
    <path
        d="M17.3971 20.2684V18.6729L21.3977 12.3701H22.7734V14.5786H21.9592L19.4372 18.5699V18.6448H25.1223V20.2684H17.3971ZM21.9967 21.9529V19.7818L22.0341 19.0753V12.3701H23.9338V21.9529H21.9967Z"
        fill="white" />
    <defs>
        <linearGradient id="paint0_linear_0_1" x1="21.4114" y1="26.3904" x2="21.4114" y2="1.88758e-05"
            gradientUnits="userSpaceOnUse">
            <stop stop-color="#8D76CE" />
            <stop offset="1" stop-color="#D5CAFF" />
        </linearGradient>
    </defs>
</svg>