<svg width="44" height="28" viewBox="0 0 44 28" fill="none" xmlns="http://www.w3.org/2000/svg">
    <path
        d="M42.6788 5.21259C42.2552 4.91258 41.6894 4.90648 41.2608 5.1942L34.0635 9.93657C33.7867 10.1215 33.5933 10.4092 33.5296 10.7361C33.4635 11.0618 33.532 11.401 33.7182 11.6778C34.132 12.2949 34.35 13.0149 34.35 13.7606C34.35 15.8348 32.6627 17.5222 30.5884 17.5222C28.5142 17.5222 26.8268 15.8348 26.8268 13.7606C26.8268 12.541 27.4293 11.3912 28.4358 10.6835C29.0015 10.2867 29.1386 9.50549 28.7419 8.93857L22.8375 0.503239C22.3722 -0.167746 21.2506 -0.167746 20.7852 0.503239L14.8809 8.93866C14.4841 9.50557 14.6213 10.2868 15.187 10.6835C16.1935 11.3913 16.7959 12.5411 16.7959 13.7607C16.7959 15.8349 15.1086 17.5223 13.0343 17.5223C10.9601 17.5223 9.27274 15.8349 9.27274 13.7607C9.27274 13.015 9.49066 12.295 9.9046 11.6779C10.0908 11.4011 10.1593 11.062 10.0932 10.7362C10.0295 10.4093 9.83606 10.1215 9.55929 9.93665L2.36193 5.19428C1.93094 4.90656 1.36762 4.91266 0.943978 5.21267C0.520339 5.51143 0.324402 6.03922 0.449287 6.54127L5.54792 26.6031C5.70465 27.235 6.31687 27.6574 6.97072 27.5362C17.6107 24.078 25.866 24.078 36.6521 27.5362C36.7206 27.5484 36.7916 27.5533 36.8578 27.5533C37.4235 27.5533 37.9328 27.1688 38.0749 26.6031L43.1736 6.54127C43.2984 6.03914 43.1025 5.51134 42.6788 5.21259Z"
        fill="url(#paint0_linear_0_1)" />
    <path d="M23.5965 10.3694V20.3759H21.4809V12.3776H21.4222L19.1307 13.814V11.9378L21.6079 10.3694H23.5965Z"
        fill="white" />
    <defs>
        <linearGradient id="paint0_linear_0_1" x1="21.8114" y1="27.5568" x2="21.8114" y2="1.97101e-05"
            gradientUnits="userSpaceOnUse">
            <stop stop-color="#FD5900" />
            <stop offset="1" stop-color="#FFDE00" />
        </linearGradient>
    </defs>
</svg>