<svg width="40" height="28" viewBox="0 0 40 28" fill="none" xmlns="http://www.w3.org/2000/svg">
    <path
        d="M39.2623 4.72452C38.8783 4.4526 38.3655 4.44707 37.9771 4.70785L31.4536 9.00618C31.2028 9.17377 31.0275 9.43455 30.9697 9.73087C30.9098 10.026 30.9719 10.3335 31.1407 10.5843C31.5158 11.1437 31.7134 11.7963 31.7134 12.4722C31.7134 14.3522 30.184 15.8816 28.304 15.8816C26.424 15.8816 24.8946 14.3522 24.8946 12.4722C24.8946 11.3668 25.4406 10.3246 26.3529 9.68313C26.8657 9.32356 26.9899 8.61547 26.6303 8.10163L21.2787 0.456119C20.857 -0.15204 19.8404 -0.15204 19.4187 0.456119L14.0671 8.10171C13.7076 8.61554 13.8319 9.32363 14.3446 9.68321C15.2569 10.3247 15.8029 11.3668 15.8029 12.4722C15.8029 14.3523 14.2735 15.8816 12.3935 15.8816C10.5135 15.8816 8.98411 14.3523 8.98411 12.4722C8.98411 11.7963 9.18163 11.1438 9.55681 10.5844C9.72554 10.3336 9.78766 10.0262 9.72773 9.73094C9.67 9.43463 9.49468 9.17377 9.24383 9.00626L2.72038 4.70793C2.32974 4.44715 1.81917 4.45268 1.43519 4.7246C1.05122 4.99538 0.87363 5.47375 0.986821 5.92879L5.94136 26.8118C6.08342 27.3845 6.63831 27.7673 7.23094 27.6574C16.8747 24.5231 25.2279 24.5231 34.1331 27.6574C34.1953 27.6685 34.2597 27.673 34.3196 27.673C34.8324 27.673 35.294 27.3245 35.4228 26.8118L39.7107 5.92879C39.8238 5.47368 39.6463 4.9953 39.2623 4.72452Z"
        fill="url(#paint0_linear_0_1)" />
    <path
        d="M16.7256 20.7412V19.3595L19.954 16.3703C20.2285 16.1046 20.4588 15.8654 20.6448 15.6529C20.8337 15.4403 20.9769 15.2322 21.0744 15.0284C21.1718 14.8218 21.2205 14.5989 21.2205 14.3597C21.2205 14.094 21.16 13.8652 21.0389 13.6733C20.9179 13.4785 20.7526 13.3294 20.5429 13.2261C20.3333 13.1198 20.0957 13.0666 19.83 13.0666C19.5524 13.0666 19.3103 13.1227 19.1037 13.2349C18.897 13.3471 18.7376 13.508 18.6254 13.7176C18.5132 13.9272 18.4571 14.1767 18.4571 14.466H16.637C16.637 13.8726 16.7714 13.3574 17.04 12.9205C17.3087 12.4835 17.6851 12.1455 18.1693 11.9064C18.6535 11.6672 19.2114 11.5477 19.8432 11.5477C20.4927 11.5477 21.0581 11.6628 21.5393 11.8931C22.0235 12.1204 22.3999 12.4363 22.6686 12.8408C22.9373 13.2452 23.0716 13.7088 23.0716 14.2313C23.0716 14.5738 23.0037 14.9118 22.8679 15.2454C22.735 15.5791 22.4974 15.9496 22.1549 16.357C21.8124 16.7615 21.3297 17.2471 20.7068 17.814L19.3827 19.1115V19.1735H23.1912V20.7412H16.7256Z"
        fill="white" />
    <defs>
        <linearGradient id="paint0_linear_0_1" x1="20.3487" y1="24.9766" x2="20.3487" y2="1.78646e-05"
            gradientUnits="userSpaceOnUse">
            <stop stop-color="#8D76CE" />
            <stop offset="1" stop-color="#D5CAFF" />
        </linearGradient>
    </defs>
</svg>