<svg width="40" height="29" viewBox="0 0 40 29" fill="none" xmlns="http://www.w3.org/2000/svg">
    <path
        d="M39.3601 4.81366C38.9689 4.53661 38.4464 4.53098 38.0507 4.79668L31.4041 9.17611C31.1485 9.34686 30.9699 9.61256 30.9111 9.91447C30.85 10.2152 30.9133 10.5285 31.0852 10.7841C31.4674 11.354 31.6687 12.0188 31.6687 12.7075C31.6687 14.623 30.1105 16.1812 28.195 16.1812C26.2795 16.1812 24.7213 14.623 24.7213 12.7075C24.7213 11.5812 25.2776 10.5194 26.2071 9.86584C26.7296 9.49947 26.8562 8.77802 26.4898 8.25449L21.0372 0.464725C20.6076 -0.154908 19.5718 -0.154908 19.1421 0.464725L13.6896 8.25457C13.3232 8.7781 13.4499 9.49955 13.9722 9.86591C14.9017 10.5195 15.4581 11.5813 15.4581 12.7076C15.4581 14.6231 13.8998 16.1813 11.9844 16.1813C10.0689 16.1813 8.51064 14.6231 8.51064 12.7076C8.51064 12.0189 8.71188 11.3541 9.09414 10.7841C9.26606 10.5285 9.32935 10.2154 9.26829 9.91455C9.20947 9.61264 9.03085 9.34686 8.77526 9.17619L2.12873 4.79676C1.73072 4.53106 1.21051 4.53669 0.81929 4.81374C0.428072 5.08963 0.24713 5.57703 0.362457 6.04066L5.41048 27.3176C5.55522 27.9012 6.12058 28.2912 6.72439 28.1793C16.5501 24.9858 25.0609 24.9858 34.1342 28.1793C34.1975 28.1906 34.2631 28.1951 34.3241 28.1951C34.8466 28.1951 35.3169 27.84 35.4482 27.3176L39.817 6.04066C39.9323 5.57695 39.7514 5.08955 39.3601 4.81366Z"
        fill="url(#paint0_linear_0_1)" />
    <path
        d="M20.053 20.9381C19.3793 20.9381 18.7792 20.8223 18.2527 20.5907C17.7294 20.3561 17.3157 20.0342 17.0119 19.6251C16.7111 19.213 16.5562 18.7377 16.5472 18.1993H18.5144C18.5265 18.4249 18.6002 18.6234 18.7355 18.7949C18.8739 18.9633 19.0574 19.0942 19.286 19.1874C19.5146 19.2807 19.7718 19.3273 20.0576 19.3273C20.3554 19.3273 20.6186 19.2747 20.8472 19.1694C21.0758 19.0641 21.2548 18.9182 21.3841 18.7317C21.5134 18.5452 21.5781 18.3301 21.5781 18.0865C21.5781 17.8398 21.5089 17.6218 21.3706 17.4323C21.2352 17.2397 21.0397 17.0893 20.784 16.9811C20.5313 16.8728 20.2305 16.8186 19.8816 16.8186H19.0198V15.3838H19.8816C20.1764 15.3838 20.4366 15.3327 20.6622 15.2304C20.8908 15.1281 21.0683 14.9867 21.1946 14.8063C21.3209 14.6228 21.3841 14.4092 21.3841 14.1655C21.3841 13.9339 21.3284 13.7309 21.2172 13.5564C21.1089 13.3789 20.9555 13.2406 20.7569 13.1413C20.5614 13.042 20.3328 12.9924 20.0711 12.9924C19.8064 12.9924 19.5642 13.0405 19.3447 13.1368C19.1251 13.23 18.9491 13.3639 18.8168 13.5384C18.6844 13.7128 18.6137 13.9174 18.6047 14.152H16.7322C16.7412 13.6196 16.8931 13.1503 17.1879 12.7443C17.4827 12.3382 17.8798 12.0208 18.3791 11.7922C18.8814 11.5606 19.4484 11.4448 20.0801 11.4448C20.7178 11.4448 21.2758 11.5606 21.7541 11.7922C22.2324 12.0238 22.6039 12.3367 22.8686 12.7307C23.1363 13.1218 23.2686 13.5609 23.2656 14.0482C23.2686 14.5656 23.1077 14.9973 22.7828 15.3432C22.461 15.6891 22.0414 15.9087 21.524 16.0019V16.0741C22.2038 16.1614 22.7212 16.3975 23.0761 16.7825C23.4341 17.1645 23.6115 17.6428 23.6085 18.2173C23.6115 18.7438 23.4596 19.2115 23.1528 19.6206C22.849 20.0297 22.4294 20.3515 21.894 20.5862C21.3585 20.8208 20.7449 20.9381 20.053 20.9381Z"
        fill="white" />
    <defs>
        <linearGradient id="paint0_linear_0_1" x1="20.0897" y1="25.4478" x2="20.0897" y2="1.82017e-05"
            gradientUnits="userSpaceOnUse">
            <stop stop-color="#8D76CE" />
            <stop offset="1" stop-color="#D5CAFF" />
        </linearGradient>
    </defs>
</svg>